<svg xmlns="http://www.w3.org/2000/svg" viewBox="0 0 302 396"><path d="M 0.000 43.400 L 10.203 38.981 L 12.889 35.472 L 18.322 24.270 L 32.991 16.138 L 38.460 10.344 L 42.325 0.431 L 46.000 0.000 L 47.123 0.435 L 46.722 2.155 L 42.243 12.963 L 40.683 15.101 L 36.476 18.457 L 21.090 25.842 L 17.038 31.699 L 12.662 42.456 L 0.416 48.028 L 0.416 52.828 L 12.670 47.263 L 14.818 44.415 L 18.720 34.357 L 22.817 28.472 L 44.381 17.558 L 46.338 14.621 L 51.923 0.435 L 56.724 0.433 L 51.170 14.550 L 48.242 19.003 L 25.853 30.085 L 21.473 35.650 L 13.273 51.512 L 10.328 53.482 L 0.414 57.629 L 0.412 62.429 L 11.852 57.475 L 14.845 54.253 L 23.805 37.852 L 27.487 32.860 L 50.497 21.353 L 55.223 16.086 L 61.525 0.431 L 66.323 0.437 L 60.705 14.692 L 57.703 19.159 L 51.563 24.484 L 30.384 34.609 L 26.041 40.267 L 21.648 49.185 L 13.419 61.066 L 10.431 63.040 L 0.418 67.227 L 0.416 72.028 L 11.205 67.476 L 14.623 64.629 L 22.079 54.467 L 28.411 42.566 L 32.018 37.453 L 54.497 26.291 L 64.272 17.018 L 71.123 0.435 L 75.924 0.434 L 70.357 14.580 L 67.433 19.051 L 55.993 29.119 L 34.982 39.190 L 30.771 44.896 L 25.048 56.051 L 14.669 69.568 L 11.165 72.300 L 0.415 76.828 L 0.413 81.629 L 11.138 77.126 L 14.691 74.476 L 25.988 60.614 L 36.678 42.139 L 59.631 30.361 L 73.448 17.659 L 80.724 0.432 L 85.522 0.437 L 79.900 14.707 L 76.926 19.203 L 60.704 33.636 L 39.545 43.902 L 35.489 49.798 L 30.343 60.345 L 15.576 78.642 L 11.273 81.877 L 0.418 86.427 L 0.417 91.227 L 11.239 86.698 L 16.315 83.013 L 25.861 72.188 L 33.806 61.239 L 37.919 52.226 L 41.373 46.985 L 64.399 34.915 L 82.952 17.791 L 90.323 0.436 L 95.124 0.435 L 89.541 14.618 L 86.628 19.116 L 65.273 38.409 L 44.297 48.724 L 40.839 53.884 L 35.808 64.420 L 26.704 76.699 L 20.206 84.161 L 13.561 90.211 L 0.416 96.028 L 0.415 100.828 L 13.543 95.062 L 22.171 87.236 L 30.423 77.774 L 37.803 67.615 L 46.193 51.857 L 69.016 39.720 L 92.076 18.412 L 94.359 14.578 L 99.924 0.434 L 104.724 0.433 L 99.174 14.544 L 96.316 19.048 L 69.970 43.267 L 49.169 53.644 L 45.770 58.802 L 41.276 68.545 L 31.317 82.314 L 25.390 89.019 L 14.248 99.368 L 0.414 105.629 L 0.417 110.427 L 13.618 104.616 L 26.304 93.102 L 35.358 83.045 L 41.145 74.985 L 51.743 56.240 L 73.329 45.082 L 101.608 18.510 L 103.921 14.663 L 109.523 0.436 L 114.323 0.435 L 108.358 15.444 L 105.229 19.802 L 75.095 48.198 L 54.305 58.810 L 43.726 77.463 L 31.442 92.968 L 14.320 108.909 L 0.416 115.228 L 0.415 120.028 L 13.504 114.170 L 31.552 98.001 L 45.836 80.722 L 56.278 61.984 L 78.365 50.258 L 111.286 18.438 L 113.555 14.589 L 119.124 0.434 L 123.924 0.433 L 117.989 15.380 L 114.908 19.746 L 80.182 53.447 L 58.829 64.521 L 48.963 82.504 L 36.680 97.920 L 13.460 118.944 L 0.414 124.828 L 0.418 129.627 L 12.784 124.137 L 19.682 117.006 L 29.150 110.066 L 37.094 102.687 L 51.385 85.219 L 61.317 67.077 L 82.117 56.401 L 88.894 50.469 L 92.972 45.653 L 120.808 18.541 L 123.113 14.682 L 128.723 0.437 L 133.523 0.436 L 127.534 15.497 L 124.407 19.883 L 85.940 57.996 L 74.257 64.831 L 63.706 69.703 L 56.354 84.145 L 42.066 102.766 L 33.547 110.846 L 18.861 121.345 L 13.571 128.517 L 0.417 134.427 L 0.418 139.227 L 13.593 133.335 L 17.320 129.454 L 20.411 123.061 L 35.611 113.298 L 43.145 106.828 L 56.174 90.662 L 60.122 84.609 L 66.123 72.515 L 86.847 61.764 L 95.013 54.684 L 105.335 43.310 L 130.418 18.551 L 132.713 14.683 L 138.323 0.437 L 143.123 0.436 L 137.135 15.496 L 134.029 19.899 L 90.797 63.497 L 79.005 70.139 L 69.178 74.603 L 61.112 89.656 L 47.437 107.596 L 38.397 115.053 L 22.886 124.260 L 19.713 131.560 L 14.974 136.984 L 11.252 139.492 L 0.417 144.027 L 0.417 148.827 L 13.571 142.950 L 21.588 134.431 L 25.675 125.530 L 40.583 117.150 L 49.943 110.122 L 61.711 95.307 L 71.797 77.270 L 82.338 72.336 L 94.007 65.575 L 140.056 18.532 L 142.325 14.657 L 147.923 0.436 L 152.723 0.435 L 146.763 15.442 L 143.091 20.514 L 95.916 68.768 L 74.428 79.923 L 66.318 94.895 L 59.629 104.493 L 54.305 110.595 L 45.068 117.720 L 29.360 126.387 L 27.558 128.341 L 23.412 137.298 L 14.904 146.586 L 11.209 149.105 L 0.416 153.628 L 0.415 158.428 L 13.504 152.561 L 25.787 139.475 L 29.874 130.512 L 32.348 127.955 L 39.829 123.037 L 50.282 117.870 L 57.321 112.316 L 66.484 101.282 L 77.111 82.632 L 86.806 78.021 L 99.175 70.790 L 149.718 18.474 L 151.952 14.598 L 157.524 0.434 L 162.324 0.434 L 156.761 14.579 L 154.539 18.455 L 116.347 57.639 L 107.524 67.793 L 99.683 75.107 L 79.780 85.299 L 77.188 88.890 L 72.077 99.369 L 64.205 110.267 L 54.725 118.478 L 41.865 124.806 L 34.716 130.195 L 32.246 132.752 L 28.165 141.695 L 14.890 156.264 L 11.175 158.726 L 0.415 163.228 L 0.417 168.027 L 11.236 163.480 L 14.223 161.484 L 30.695 143.603 L 35.366 133.934 L 45.271 126.139 L 58.876 119.122 L 67.125 112.114 L 74.680 102.012 L 79.378 92.257 L 82.368 87.854 L 103.930 76.698 L 119.673 59.338 L 130.194 49.450 L 159.271 18.557 L 161.522 14.667 L 167.123 0.436 L 171.923 0.435 L 164.110 18.530 L 136.167 49.090 L 122.902 61.269 L 106.689 79.342 L 84.477 91.002 L 77.340 104.480 L 70.810 113.054 L 63.277 119.479 L 51.345 125.775 L 37.803 136.168 L 32.987 145.731 L 13.468 166.844 L 0.416 172.828 L 0.415 177.628 L 13.486 171.703 L 18.378 165.326 L 35.223 147.910 L 40.171 138.414 L 53.668 127.993 L 66.071 120.733 L 74.480 114.004 L 79.536 107.716 L 87.172 93.526 L 110.122 81.455 L 125.548 63.926 L 139.620 51.349 L 146.238 42.842 L 168.367 19.207 L 171.146 14.613 L 176.724 0.434 L 181.524 0.434 L 173.749 18.483 L 148.821 45.577 L 143.037 53.543 L 128.869 65.962 L 118.560 78.396 L 112.167 84.694 L 89.849 96.040 L 82.667 109.427 L 78.761 114.336 L 73.392 119.098 L 56.054 130.271 L 42.551 140.637 L 36.937 150.755 L 21.018 166.554 L 14.139 175.920 L 11.181 177.913 L 0.415 182.428 L 0.417 187.227 L 11.243 182.691 L 14.225 180.703 L 22.591 168.987 L 39.482 152.723 L 44.530 143.248 L 53.662 135.926 L 80.859 116.741 L 85.592 111.309 L 92.528 98.697 L 113.413 88.200 L 120.847 81.659 L 132.426 67.827 L 146.717 55.404 L 151.765 47.963 L 178.488 18.572 L 180.721 14.669 L 186.323 0.436 L 191.123 0.436 L 183.309 18.568 L 156.167 48.760 L 149.510 58.360 L 135.759 69.994 L 124.719 83.090 L 117.582 89.967 L 95.805 100.758 L 92.659 105.033 L 88.482 113.023 L 83.636 118.340 L 73.819 124.722 L 65.008 132.397 L 46.756 145.492 L 41.845 155.004 L 24.604 170.849 L 14.903 184.918 L 11.231 187.486 L 0.417 192.027 L 0.416 196.828 L 11.219 192.295 L 14.159 190.261 L 19.516 184.183 L 27.305 172.084 L 44.219 157.258 L 48.341 148.327 L 67.356 134.834 L 76.683 126.406 L 87.723 118.682 L 91.307 114.666 L 97.842 103.925 L 121.013 92.176 L 139.146 72.168 L 152.904 60.592 L 160.580 49.525 L 187.567 19.257 L 190.334 14.641 L 195.923 0.435 L 200.724 0.435 L 192.951 18.531 L 165.569 49.570 L 155.630 63.397 L 143.831 73.083 L 123.069 95.493 L 101.270 106.077 L 91.136 119.671 L 83.569 124.504 L 69.674 137.230 L 51.235 149.958 L 46.462 159.474 L 29.416 174.108 L 22.750 184.751 L 14.847 194.539 L 11.204 197.107 L 0.416 201.628 L 0.415 206.428 L 11.178 201.906 L 15.396 198.620 L 25.408 185.965 L 30.348 177.438 L 48.620 161.568 L 52.600 153.577 L 54.321 151.610 L 72.093 139.544 L 86.457 126.073 L 94.571 120.460 L 103.346 109.180 L 124.347 99.142 L 131.650 92.549 L 147.293 75.230 L 159.022 65.517 L 168.194 52.272 L 197.229 19.212 L 199.957 14.592 L 205.524 0.434 L 210.323 0.436 L 202.538 18.569 L 179.249 46.092 L 170.536 55.217 L 160.877 69.310 L 150.381 77.798 L 128.785 100.777 L 106.095 111.683 L 98.505 120.537 L 88.719 128.494 L 79.165 138.021 L 73.613 142.612 L 55.795 154.728 L 50.391 164.013 L 41.119 171.157 L 32.685 179.276 L 25.014 191.453 L 14.168 204.657 L 11.222 206.689 L 0.417 211.228 L 0.416 216.028 L 11.212 211.495 L 14.174 209.492 L 27.346 193.571 L 34.959 181.358 L 43.891 172.484 L 52.579 166.092 L 58.230 156.966 L 76.107 144.992 L 81.655 140.408 L 108.037 114.675 L 131.545 103.540 L 151.916 81.914 L 163.666 72.131 L 173.717 57.231 L 183.259 47.683 L 207.353 18.555 L 215.123 0.435 L 219.923 0.435 L 212.160 18.556 L 187.162 49.257 L 176.340 60.052 L 166.435 75.050 L 153.927 85.324 L 134.224 106.312 L 110.496 117.027 L 103.689 122.895 L 84.212 142.788 L 78.607 147.300 L 60.633 159.147 L 54.759 168.135 L 46.019 174.430 L 36.661 184.146 L 29.650 195.654 L 24.527 200.686 L 14.100 214.199 L 11.207 216.288 L 0.416 220.828 L 0.416 225.628 L 11.212 221.081 L 14.087 218.968 L 23.135 206.661 L 32.416 196.933 L 38.234 186.817 L 48.201 176.427 L 56.940 170.108 L 62.900 161.173 L 86.724 145.133 L 102.080 129.978 L 106.348 124.189 L 111.310 120.320 L 136.782 109.122 L 157.825 86.926 L 169.201 78.107 L 179.528 62.301 L 190.917 50.784 L 216.959 18.571 L 224.723 0.435 L 229.523 0.436 L 221.751 18.582 L 194.041 52.971 L 182.151 65.285 L 172.632 80.551 L 161.137 89.226 L 139.306 111.932 L 112.610 122.633 L 109.227 125.585 L 104.645 132.253 L 89.249 147.374 L 82.804 152.294 L 65.189 163.089 L 59.162 172.001 L 50.462 178.384 L 40.363 188.646 L 34.616 198.818 L 25.247 208.500 L 13.433 224.370 L 0.417 230.427 L 0.417 235.227 L 11.229 230.692 L 14.160 228.652 L 23.070 215.157 L 31.395 205.671 L 36.730 200.868 L 43.040 189.961 L 52.708 180.547 L 60.722 174.723 L 67.388 165.177 L 85.189 154.647 L 91.595 149.674 L 107.119 134.670 L 112.142 127.212 L 115.407 124.136 L 125.644 120.718 L 143.019 113.311 L 148.447 108.567 L 163.810 92.128 L 175.348 83.493 L 184.841 68.235 L 196.103 56.560 L 226.549 18.586 L 234.323 0.436 L 239.123 0.436 L 231.358 18.595 L 221.609 30.428 L 212.710 42.915 L 197.639 60.850 L 187.588 71.193 L 178.666 85.779 L 166.419 94.957 L 150.232 111.839 L 143.323 116.074 L 133.071 119.521 L 117.513 126.625 L 114.419 129.860 L 110.000 136.643 L 93.780 152.235 L 87.286 157.092 L 69.335 167.350 L 62.895 177.022 L 47.911 188.529 L 38.800 202.986 L 27.114 214.110 L 20.001 223.423 L 15.406 232.102 L 11.221 235.471 L 0.417 240.027 L 0.415 244.828 L 11.173 240.302 L 14.013 238.175 L 19.502 231.133 L 22.689 223.784 L 29.922 214.649 L 40.654 205.218 L 50.756 189.399 L 65.430 179.116 L 71.611 169.387 L 89.562 159.421 L 96.102 154.688 L 112.316 139.238 L 119.758 129.208 L 132.827 121.391 L 143.939 117.872 L 153.555 113.043 L 164.136 103.371 L 169.526 97.369 L 181.164 88.990 L 190.668 73.814 L 200.628 63.472 L 207.715 54.213 L 215.781 45.786 L 224.866 32.430 L 236.219 18.522 L 243.924 0.434 L 248.724 0.435 L 241.005 18.543 L 228.011 34.621 L 219.290 48.241 L 213.361 53.707 L 203.960 65.738 L 193.482 76.849 L 184.500 91.328 L 172.835 99.693 L 166.135 106.930 L 158.492 113.174 L 146.250 118.792 L 134.224 122.461 L 127.179 126.404 L 121.271 131.898 L 114.235 142.293 L 98.455 156.930 L 91.215 162.240 L 73.848 171.486 L 68.323 180.609 L 53.556 190.795 L 47.192 199.428 L 42.183 207.908 L 31.176 217.070 L 25.017 224.780 L 22.352 231.392 L 18.265 236.120 L 14.043 242.965 L 11.183 245.087 L 0.415 249.628 L 0.416 254.428 L 13.366 248.301 L 20.032 237.662 L 25.233 231.495 L 28.500 224.182 L 38.471 213.824 L 44.451 209.902 L 49.863 200.582 L 55.360 193.528 L 70.629 182.446 L 76.464 173.455 L 94.744 163.880 L 107.341 153.724 L 116.308 144.897 L 121.922 134.646 L 127.812 127.868 L 134.812 123.847 L 145.194 120.864 L 162.914 114.283 L 169.348 109.384 L 175.359 102.706 L 187.749 93.761 L 196.810 79.289 L 206.670 68.791 L 216.583 55.980 L 222.619 50.622 L 231.696 36.134 L 245.784 18.575 L 253.523 0.435 L 258.324 0.434 L 250.622 18.543 L 235.503 37.512 L 226.520 52.002 L 219.978 58.104 L 208.488 73.051 L 199.814 82.151 L 190.635 96.509 L 178.282 105.445 L 171.559 112.643 L 166.235 115.972 L 135.294 125.227 L 129.053 128.726 L 122.342 137.115 L 116.522 149.221 L 110.186 155.557 L 96.942 166.263 L 78.727 175.868 L 72.574 184.598 L 57.500 195.884 L 52.440 202.146 L 46.958 211.369 L 40.825 215.007 L 31.343 224.534 L 27.956 231.761 L 21.234 240.142 L 13.349 253.140 L 0.415 259.228 L 0.416 264.028 L 13.409 257.943 L 18.405 248.442 L 31.170 231.139 L 33.748 225.449 L 43.412 216.189 L 49.475 212.383 L 53.177 206.247 L 59.911 197.823 L 74.347 187.092 L 80.704 178.462 L 98.964 168.809 L 115.503 154.945 L 118.001 151.234 L 123.088 138.731 L 130.291 129.554 L 136.675 126.306 L 151.460 122.301 L 162.967 120.242 L 171.330 116.897 L 175.841 113.964 L 181.393 108.076 L 193.101 99.692 L 202.985 84.669 L 211.239 76.365 L 222.567 61.223 L 227.300 57.078 L 231.298 52.203 L 240.216 37.619 L 255.398 18.602 L 263.123 0.435 L 267.923 0.435 L 260.219 18.586 L 243.481 39.780 L 231.318 58.668 L 225.408 64.160 L 214.185 79.341 L 205.841 87.532 L 196.622 101.910 L 184.278 110.897 L 177.745 117.067 L 174.616 118.822 L 163.631 122.836 L 151.139 124.108 L 137.187 127.655 L 131.557 130.354 L 124.265 139.441 L 118.542 154.573 L 115.111 159.802 L 101.247 171.225 L 82.912 180.680 L 75.980 189.941 L 62.151 199.947 L 51.775 213.408 L 36.644 225.845 L 28.825 238.920 L 20.260 249.249 L 14.054 262.140 L 11.198 264.277 L 0.416 268.828 L 0.415 273.628 L 10.372 269.467 L 13.340 267.504 L 17.412 261.600 L 21.711 250.807 L 30.037 241.426 L 39.114 227.028 L 51.688 217.146 L 64.443 202.129 L 78.312 192.187 L 85.150 182.853 L 104.283 173.059 L 116.517 162.518 L 119.077 157.821 L 124.570 141.659 L 132.167 131.701 L 135.996 129.432 L 149.955 126.014 L 164.241 125.366 L 177.785 120.550 L 198.908 105.433 L 208.728 90.426 L 218.273 80.916 L 228.279 67.102 L 234.188 61.623 L 246.770 41.950 L 265.042 18.572 L 272.724 0.435 L 277.524 0.434 L 269.844 18.573 L 250.576 43.454 L 237.565 63.922 L 231.115 70.119 L 221.674 83.243 L 211.540 93.436 L 202.339 107.792 L 182.277 121.381 L 167.177 127.120 L 162.835 128.219 L 156.645 127.347 L 149.474 127.690 L 136.338 130.683 L 133.275 132.504 L 125.587 142.400 L 119.618 161.234 L 117.126 165.953 L 106.360 175.418 L 87.202 185.151 L 81.052 193.910 L 66.505 204.429 L 57.733 213.412 L 54.344 218.667 L 49.017 221.912 L 41.634 228.326 L 31.682 243.214 L 23.721 251.705 L 19.469 262.432 L 13.918 271.630 L 11.184 273.882 L 0.415 278.428 L 0.416 283.228 L 11.200 278.668 L 13.982 276.447 L 17.798 268.339 L 21.459 263.253 L 26.505 251.907 L 29.261 248.352 L 33.382 244.937 L 38.448 236.440 L 42.936 230.815 L 47.973 227.106 L 50.902 223.733 L 57.058 220.137 L 61.009 213.212 L 68.233 206.564 L 83.080 196.457 L 89.153 187.625 L 107.535 178.218 L 116.160 171.761 L 119.633 166.562 L 126.123 144.090 L 128.953 139.507 L 134.232 133.379 L 137.368 131.731 L 149.697 129.186 L 156.886 129.203 L 162.959 130.699 L 166.481 130.061 L 183.334 123.883 L 204.919 110.931 L 214.776 95.911 L 224.341 86.380 L 234.476 72.613 L 239.164 68.429 L 242.499 64.184 L 254.371 45.063 L 274.630 18.605 L 282.323 0.435 L 287.124 0.434 L 279.453 18.574 L 260.866 42.839 L 245.427 67.093 L 237.518 75.614 L 227.255 89.222 L 217.203 99.495 L 208.455 113.083 L 204.878 115.757 L 191.808 121.729 L 185.199 126.347 L 173.160 129.875 L 166.601 132.710 L 163.046 132.936 L 157.122 130.924 L 150.855 130.569 L 137.614 132.924 L 135.267 134.148 L 127.139 144.801 L 121.084 168.260 L 118.427 173.919 L 109.937 180.482 L 91.630 189.918 L 85.469 198.646 L 70.412 208.356 L 63.528 213.992 L 59.547 221.775 L 53.294 225.189 L 49.737 229.146 L 44.567 232.646 L 40.653 237.564 L 35.560 246.024 L 30.727 249.905 L 28.217 253.617 L 23.345 264.097 L 19.138 269.851 L 16.634 276.585 L 13.916 281.232 L 11.182 283.482 L 0.415 288.028 L 0.416 292.828 L 13.375 286.723 L 18.487 277.265 L 20.954 270.521 L 24.806 265.602 L 32.438 251.410 L 37.326 247.576 L 40.855 241.335 L 46.970 233.576 L 51.562 230.780 L 55.315 226.973 L 62.255 222.948 L 65.962 215.055 L 87.705 200.786 L 93.928 192.079 L 112.414 182.916 L 119.319 177.191 L 122.308 170.721 L 128.543 144.533 L 135.771 135.360 L 138.087 134.126 L 150.465 132.001 L 156.745 132.408 L 164.305 135.150 L 167.866 134.957 L 177.074 131.372 L 187.566 128.930 L 194.491 123.291 L 207.888 118.030 L 210.915 116.117 L 219.958 102.715 L 229.410 93.080 L 234.671 85.799 L 249.786 68.031 L 264.641 44.422 L 284.729 17.848 L 291.923 0.435 L 296.724 0.434 L 288.802 19.425 L 268.103 46.542 L 259.903 60.463 L 248.570 76.644 L 238.345 87.915 L 231.982 96.577 L 223.072 105.439 L 214.878 117.223 L 211.204 119.720 L 197.051 125.354 L 190.592 131.464 L 187.224 132.679 L 177.456 133.870 L 169.161 137.230 L 164.733 137.290 L 157.353 134.080 L 151.135 133.355 L 145.778 133.749 L 137.930 135.532 L 136.479 136.497 L 129.476 145.709 L 128.576 153.724 L 125.245 163.958 L 123.968 171.918 L 120.507 180.137 L 114.491 185.467 L 95.896 194.303 L 89.770 203.037 L 82.423 208.194 L 74.326 212.035 L 69.250 215.724 L 64.048 224.830 L 48.554 235.336 L 42.386 243.015 L 39.478 248.541 L 34.693 252.537 L 31.641 256.942 L 26.123 267.187 L 22.735 271.318 L 14.524 290.204 L 11.172 293.091 L 0.415 297.628 L 0.415 302.428 L 11.177 297.893 L 14.002 295.743 L 17.495 289.491 L 24.276 272.879 L 27.977 267.882 L 33.183 258.460 L 41.742 249.356 L 44.639 243.817 L 50.463 237.000 L 58.217 230.975 L 65.997 226.600 L 71.626 217.544 L 74.908 214.481 L 85.527 209.727 L 92.102 205.033 L 98.307 196.410 L 116.949 187.687 L 120.998 184.195 L 125.109 175.264 L 127.077 163.814 L 130.295 155.439 L 130.843 145.674 L 137.479 137.268 L 146.032 134.970 L 151.398 134.686 L 156.725 135.407 L 163.041 138.770 L 167.327 139.931 L 177.524 136.672 L 188.190 136.318 L 193.921 133.804 L 200.182 127.477 L 214.899 120.862 L 218.507 118.228 L 226.104 108.230 L 235.106 99.455 L 246.638 84.579 L 251.679 79.495 L 265.430 59.517 L 271.182 49.360 L 277.826 39.754 L 286.024 29.059 L 292.753 21.876 L 300.828 2.863 L 300.828 14.453 L 295.708 25.958 L 287.869 33.370 L 283.334 38.965 L 254.062 83.288 L 249.536 87.649 L 238.573 101.901 L 229.472 110.625 L 223.746 117.568 L 217.382 122.555 L 203.004 130.003 L 196.036 136.905 L 188.650 140.219 L 177.150 139.647 L 166.818 142.317 L 162.648 140.702 L 156.547 136.904 L 150.362 135.920 L 145.883 136.256 L 138.209 138.436 L 132.021 146.077 L 132.264 155.792 L 129.055 163.223 L 128.558 170.362 L 126.642 177.305 L 121.817 187.923 L 118.966 190.067 L 101.076 198.485 L 94.643 206.955 L 88.725 211.047 L 77.230 216.131 L 73.589 220.087 L 68.079 228.262 L 60.086 232.293 L 52.501 238.553 L 47.095 244.592 L 42.968 251.532 L 34.284 260.569 L 25.852 274.320 L 19.848 289.348 L 14.562 299.754 L 11.201 302.662 L 0.416 307.228 L 0.416 312.028 L 10.387 307.852 L 13.286 305.792 L 18.596 297.443 L 27.815 275.057 L 35.733 262.057 L 44.617 253.240 L 53.524 240.859 L 61.682 233.887 L 70.478 229.426 L 79.890 217.521 L 96.008 209.573 L 100.591 205.271 L 104.296 200.378 L 120.572 192.720 L 123.465 190.655 L 130.504 171.257 L 131.021 162.371 L 134.445 155.089 L 133.254 146.417 L 138.343 140.173 L 140.544 138.840 L 145.771 137.513 L 152.036 137.332 L 155.573 138.001 L 162.880 143.167 L 167.918 144.826 L 175.621 142.655 L 188.829 144.193 L 199.363 139.173 L 204.878 133.288 L 221.070 123.606 L 241.645 104.767 L 252.637 90.540 L 258.236 84.732 L 286.331 41.783 L 298.036 30.610 L 300.821 26.034 L 300.659 34.747 L 288.294 46.520 L 261.163 87.913 L 255.543 93.697 L 246.253 105.818 L 240.574 111.583 L 227.809 121.550 L 221.443 127.905 L 207.510 136.116 L 201.903 141.904 L 192.390 146.997 L 187.242 148.352 L 176.976 145.509 L 173.432 145.545 L 169.239 147.158 L 166.593 147.242 L 160.961 144.479 L 155.549 139.748 L 152.189 138.637 L 145.931 138.691 L 139.298 141.025 L 134.414 147.275 L 136.534 154.815 L 132.506 162.765 L 132.241 172.513 L 124.834 193.662 L 106.433 202.919 L 102.154 207.416 L 96.346 211.652 L 81.780 218.674 L 73.271 230.038 L 63.908 235.335 L 55.608 242.140 L 46.070 255.131 L 37.575 263.045 L 29.626 275.973 L 20.554 298.340 L 16.472 304.233 L 13.316 310.657 L 10.383 312.660 L 0.416 316.828 L 0.415 321.628 L 10.360 317.468 L 13.288 315.460 L 15.573 311.619 L 17.408 305.633 L 22.775 298.566 L 30.967 277.850 L 39.371 264.163 L 47.391 257.129 L 51.809 250.416 L 57.697 243.699 L 65.293 237.450 L 75.862 230.703 L 80.870 224.422 L 83.075 219.668 L 97.606 212.627 L 107.046 205.797 L 126.275 196.338 L 134.220 172.591 L 134.029 162.908 L 138.484 155.212 L 138.504 153.507 L 135.903 148.839 L 135.839 147.157 L 139.764 142.376 L 146.307 139.833 L 151.665 139.846 L 154.892 141.205 L 160.597 146.878 L 166.234 149.633 L 168.861 149.807 L 173.874 147.985 L 176.521 148.083 L 188.103 152.301 L 193.995 150.297 L 204.300 144.816 L 210.714 138.615 L 223.884 130.944 L 231.496 122.148 L 242.060 115.341 L 247.499 110.659 L 258.619 96.594 L 264.255 90.843 L 286.070 56.829 L 293.442 47.776 L 300.663 41.036 L 300.667 47.460 L 286.890 62.834 L 269.832 90.314 L 252.098 111.684 L 245.937 116.878 L 235.056 123.169 L 226.785 133.694 L 212.848 141.834 L 207.079 147.443 L 196.718 152.824 L 187.541 156.133 L 176.466 150.560 L 173.877 150.442 L 168.992 152.545 L 165.534 151.921 L 159.180 148.596 L 154.047 142.394 L 151.731 141.187 L 146.377 141.048 L 140.691 143.336 L 137.251 148.167 L 140.167 152.584 L 140.555 155.117 L 135.369 163.364 L 136.078 173.007 L 127.934 198.610 L 125.963 200.354 L 114.660 205.855 L 107.710 207.468 L 96.501 214.920 L 84.434 220.660 L 82.558 226.391 L 77.900 231.833 L 66.048 239.869 L 60.024 245.231 L 53.731 251.594 L 48.220 259.694 L 41.762 264.440 L 31.954 280.471 L 25.376 297.912 L 23.281 301.877 L 18.841 306.209 L 17.605 311.415 L 13.308 320.276 L 10.367 322.267 L 0.415 326.428 L 0.415 331.228 L 10.372 327.069 L 13.329 325.101 L 19.554 311.234 L 20.303 306.900 L 25.946 301.306 L 30.823 290.719 L 34.257 280.643 L 43.172 266.124 L 49.668 261.509 L 53.199 257.444 L 55.740 252.741 L 67.607 241.834 L 75.246 237.158 L 79.204 233.505 L 84.654 227.581 L 85.721 221.686 L 97.036 216.428 L 108.139 208.874 L 117.831 207.681 L 125.123 204.195 L 128.707 201.537 L 130.598 197.526 L 135.339 179.282 L 137.866 173.560 L 138.002 169.993 L 136.655 164.004 L 142.574 155.230 L 141.887 151.883 L 138.996 147.733 L 141.535 144.183 L 146.451 142.280 L 151.779 142.597 L 157.676 150.278 L 163.927 153.792 L 169.838 155.619 L 174.509 153.239 L 176.028 153.209 L 182.705 157.558 L 188.483 159.835 L 209.622 150.070 L 215.586 144.662 L 229.554 136.581 L 236.110 126.970 L 238.638 124.438 L 251.171 117.425 L 255.346 114.041 L 264.963 102.202 L 270.043 97.144 L 288.889 67.607 L 300.696 54.060 L 300.724 61.483 L 291.253 72.326 L 282.746 86.121 L 271.865 101.569 L 257.849 116.728 L 245.285 123.721 L 241.032 127.034 L 232.343 139.529 L 218.281 147.514 L 212.005 152.592 L 189.972 162.851 L 187.429 163.254 L 176.937 158.111 L 170.041 158.793 L 159.375 154.040 L 155.150 150.779 L 151.164 143.931 L 146.787 143.515 L 142.672 145.013 L 141.548 146.376 L 141.483 147.934 L 144.225 152.451 L 144.725 154.979 L 143.123 158.154 L 139.276 161.905 L 138.030 164.247 L 139.694 170.156 L 139.663 173.717 L 136.599 180.186 L 132.764 196.829 L 130.326 202.570 L 124.825 207.198 L 119.946 209.488 L 115.561 210.431 L 107.620 210.547 L 97.569 218.141 L 87.794 222.392 L 86.609 228.160 L 78.069 237.345 L 70.044 243.112 L 58.636 253.204 L 51.850 262.589 L 44.637 267.708 L 37.805 278.265 L 28.192 301.376 L 21.980 307.601 L 21.521 311.087 L 13.987 329.269 L 11.206 331.479 L 0.416 336.028 L 0.416 340.828 L 11.186 336.280 L 14.540 333.381 L 17.011 328.610 L 20.539 316.562 L 23.475 311.039 L 23.761 308.480 L 28.836 303.733 L 30.850 300.767 L 39.990 278.460 L 45.846 269.475 L 48.412 267.007 L 53.802 263.911 L 60.679 254.576 L 78.803 238.629 L 87.455 229.558 L 89.945 223.406 L 98.971 219.448 L 108.730 211.568 L 115.806 211.980 L 121.062 210.891 L 125.106 208.960 L 132.077 203.347 L 134.741 196.711 L 138.173 180.040 L 141.448 173.694 L 141.357 170.154 L 139.501 164.353 L 144.966 158.588 L 146.715 155.466 L 146.524 152.913 L 143.238 147.576 L 144.105 145.566 L 146.656 144.833 L 150.181 145.119 L 154.068 152.886 L 157.652 155.510 L 169.859 161.221 L 177.735 162.453 L 187.642 166.579 L 190.212 166.149 L 195.605 162.943 L 214.585 154.750 L 221.190 150.123 L 235.312 142.293 L 242.041 131.742 L 245.731 127.816 L 250.767 124.054 L 260.964 118.351 L 266.950 112.929 L 278.289 100.224 L 294.238 76.290 L 300.688 68.805 L 300.699 75.806 L 278.128 107.208 L 269.236 116.078 L 254.890 125.379 L 248.622 130.505 L 244.945 134.455 L 238.286 145.064 L 218.644 155.924 L 197.983 164.776 L 191.941 168.627 L 187.615 169.432 L 169.828 163.443 L 161.151 158.704 L 155.254 156.507 L 151.952 153.579 L 149.597 146.929 L 148.110 146.196 L 145.487 146.559 L 148.983 154.593 L 147.138 158.643 L 142.389 162.694 L 141.079 164.865 L 142.899 169.806 L 143.227 173.341 L 139.312 181.344 L 136.553 197.266 L 133.516 204.705 L 125.409 210.240 L 120.508 212.478 L 116.118 213.399 L 109.057 213.195 L 101.038 220.345 L 92.070 224.484 L 88.370 230.338 L 74.883 243.447 L 70.043 249.893 L 63.725 254.926 L 55.428 265.484 L 47.893 270.197 L 42.478 278.358 L 39.878 285.899 L 32.809 301.432 L 25.945 308.452 L 24.829 312.537 L 22.102 317.149 L 18.992 329.304 L 14.958 337.334 L 11.196 341.069 L 0.416 345.628 L 0.415 350.428 L 11.172 345.872 L 13.889 343.594 L 20.922 330.061 L 24.032 317.051 L 28.069 309.190 L 34.793 302.078 L 41.953 286.633 L 44.294 279.894 L 48.836 272.269 L 58.283 265.721 L 65.513 256.585 L 71.383 251.059 L 75.699 244.272 L 80.486 240.227 L 92.946 226.196 L 102.584 221.531 L 109.705 214.843 L 115.839 214.896 L 120.194 213.841 L 135.145 206.058 L 138.646 196.870 L 140.707 181.792 L 144.819 173.917 L 144.847 171.273 L 142.680 164.651 L 148.145 160.146 L 150.669 156.453 L 161.012 160.365 L 171.769 166.714 L 176.514 170.523 L 189.689 172.694 L 195.530 170.567 L 200.458 166.740 L 234.180 151.998 L 241.801 147.314 L 247.807 137.352 L 253.397 131.523 L 264.702 122.645 L 273.806 116.899 L 281.073 110.228 L 292.797 95.464 L 300.742 83.480 L 300.758 91.998 L 295.735 99.449 L 284.689 112.463 L 277.630 117.983 L 269.876 122.493 L 256.990 133.681 L 251.322 139.449 L 245.847 148.704 L 242.518 151.642 L 203.894 168.619 L 197.609 173.550 L 190.924 176.126 L 185.056 174.560 L 177.959 175.299 L 175.407 174.550 L 172.382 172.684 L 169.949 169.020 L 160.651 162.089 L 153.081 159.415 L 150.717 159.791 L 144.381 164.681 L 146.805 173.808 L 142.024 183.297 L 140.764 196.600 L 136.712 207.504 L 135.415 208.659 L 130.257 209.962 L 118.143 215.803 L 110.302 216.622 L 103.169 223.328 L 93.520 228.004 L 81.241 241.035 L 76.454 245.078 L 72.397 252.019 L 61.735 265.295 L 57.829 269.001 L 50.936 273.045 L 46.097 281.535 L 36.729 302.834 L 29.983 309.961 L 25.642 317.739 L 23.500 329.087 L 14.326 347.589 L 11.171 350.668 L 0.415 355.228 L 0.416 360.028 L 11.192 355.450 L 13.846 353.096 L 25.448 329.742 L 27.623 317.550 L 32.487 309.997 L 38.706 303.545 L 52.041 275.221 L 53.891 273.332 L 59.446 270.456 L 63.297 266.676 L 73.289 252.852 L 77.229 245.829 L 93.169 230.083 L 104.474 224.604 L 110.901 218.497 L 116.074 218.009 L 129.941 211.549 L 134.327 211.144 L 138.172 209.068 L 142.886 196.466 L 142.537 191.175 L 143.767 183.236 L 146.917 178.943 L 149.124 174.032 L 146.438 165.102 L 152.224 161.242 L 157.384 162.387 L 162.643 165.700 L 167.728 170.752 L 170.642 176.235 L 173.613 178.193 L 177.819 179.595 L 184.495 177.307 L 189.191 179.589 L 193.505 178.781 L 200.200 176.134 L 205.646 171.542 L 222.574 163.108 L 237.752 157.461 L 246.707 153.268 L 249.764 150.003 L 253.763 142.972 L 258.671 137.703 L 266.859 130.655 L 272.982 124.068 L 288.376 114.783 L 300.756 100.532 L 300.693 108.316 L 291.517 118.162 L 283.909 120.660 L 275.808 126.332 L 269.409 133.863 L 257.537 144.862 L 252.729 152.433 L 249.579 155.604 L 226.833 164.043 L 208.645 173.891 L 203.102 178.378 L 192.256 182.749 L 188.787 183.056 L 183.015 181.054 L 178.362 183.604 L 175.819 183.438 L 169.587 179.925 L 165.530 171.989 L 159.632 165.282 L 152.982 163.086 L 149.169 165.237 L 148.474 166.963 L 151.530 172.452 L 151.489 175.058 L 149.943 178.288 L 145.501 183.849 L 144.212 191.686 L 144.851 196.880 L 139.827 210.354 L 135.234 212.865 L 129.128 213.210 L 116.211 219.549 L 111.189 220.696 L 105.268 226.166 L 93.030 231.717 L 77.752 246.837 L 73.923 253.918 L 70.493 258.072 L 64.403 268.046 L 60.850 272.100 L 54.091 276.300 L 41.015 303.632 L 35.457 309.451 L 29.716 317.502 L 27.678 329.648 L 18.739 346.276 L 13.769 357.833 L 11.184 360.251 L 0.416 364.828 L 0.415 369.628 L 11.178 365.085 L 13.860 362.794 L 19.774 347.772 L 30.152 328.909 L 30.765 326.311 L 30.366 322.802 L 31.685 317.674 L 43.160 303.957 L 51.689 285.272 L 53.897 282.535 L 56.089 277.659 L 62.559 273.104 L 70.999 259.334 L 74.914 254.435 L 78.703 247.363 L 94.071 232.460 L 104.122 228.740 L 107.935 226.383 L 112.494 222.160 L 116.733 220.890 L 127.802 214.973 L 130.332 214.161 L 135.595 214.642 L 141.120 211.984 L 146.859 196.926 L 145.899 190.982 L 147.011 184.922 L 152.479 179.175 L 153.577 176.749 L 153.844 173.224 L 151.125 166.828 L 152.055 165.568 L 154.428 165.154 L 159.283 167.182 L 163.904 173.773 L 167.851 181.820 L 173.246 186.448 L 177.366 187.924 L 183.328 184.413 L 189.205 186.530 L 191.827 186.310 L 205.982 180.592 L 210.904 176.734 L 221.263 171.334 L 228.752 166.409 L 253.042 157.112 L 255.670 154.683 L 260.813 147.352 L 272.713 136.424 L 278.907 128.743 L 285.108 123.614 L 290.230 123.552 L 294.385 121.873 L 300.728 115.591 L 300.675 122.926 L 297.906 125.205 L 292.115 127.690 L 289.548 128.321 L 286.993 127.739 L 284.806 128.918 L 280.830 132.560 L 275.356 139.703 L 266.478 147.326 L 258.975 156.263 L 255.465 159.066 L 230.480 169.255 L 223.901 173.933 L 212.714 179.733 L 208.484 183.054 L 192.563 189.313 L 189.937 189.756 L 183.942 188.211 L 176.949 191.800 L 172.838 190.238 L 170.023 188.043 L 166.817 183.698 L 158.374 168.885 L 157.054 167.771 L 153.959 167.317 L 156.059 173.630 L 155.516 178.071 L 154.398 180.486 L 148.718 185.913 L 147.627 191.038 L 148.823 196.930 L 142.849 212.925 L 140.942 214.682 L 136.717 216.214 L 130.591 215.380 L 127.157 216.364 L 112.978 223.964 L 106.011 229.563 L 98.591 232.817 L 94.273 233.710 L 79.508 248.029 L 63.231 274.825 L 57.817 279.337 L 44.925 304.892 L 33.724 317.761 L 32.441 322.861 L 32.949 326.353 L 32.291 328.942 L 27.930 337.836 L 21.186 348.483 L 17.293 357.578 L 16.430 362.881 L 14.999 366.169 L 11.201 369.865 L 0.416 374.428 L 0.416 379.228 L 11.974 374.203 L 16.848 367.810 L 18.725 363.756 L 18.340 359.361 L 18.998 356.784 L 22.916 348.684 L 30.314 337.385 L 34.598 328.452 L 35.122 325.841 L 34.604 322.364 L 35.622 318.125 L 46.959 305.363 L 59.293 281.434 L 63.995 276.118 L 72.840 260.424 L 76.760 255.521 L 79.404 249.824 L 93.984 235.267 L 99.046 234.214 L 107.301 230.613 L 114.249 224.989 L 123.334 219.237 L 130.010 216.713 L 137.898 217.736 L 143.544 215.179 L 147.127 207.954 L 150.797 196.879 L 150.963 195.152 L 149.370 191.070 L 150.706 186.100 L 156.066 181.538 L 158.601 174.926 L 159.687 175.380 L 162.787 179.731 L 169.535 191.405 L 173.031 194.173 L 177.240 195.163 L 184.487 191.688 L 189.542 193.193 L 192.169 192.871 L 210.605 185.590 L 215.718 181.957 L 226.231 176.809 L 231.907 172.422 L 257.439 161.193 L 261.810 158.022 L 269.914 149.575 L 278.284 142.740 L 286.364 133.192 L 291.416 132.756 L 300.585 128.981 L 300.584 133.792 L 291.424 137.547 L 287.305 138.005 L 280.547 146.383 L 258.811 163.796 L 234.372 175.191 L 228.677 179.532 L 218.142 184.590 L 213.752 187.696 L 192.917 196.143 L 189.430 196.665 L 184.391 195.272 L 180.038 196.198 L 176.183 198.421 L 172.832 197.832 L 168.679 194.484 L 161.684 180.943 L 159.445 178.963 L 156.970 183.453 L 151.994 188.228 L 151.115 190.724 L 153.034 196.389 L 150.813 201.291 L 149.036 208.242 L 144.467 216.936 L 137.840 219.472 L 129.993 217.920 L 124.126 219.950 L 108.359 231.716 L 99.286 235.646 L 94.237 236.374 L 80.332 250.315 L 77.235 256.768 L 73.306 261.656 L 64.610 277.402 L 61.331 281.658 L 49.627 304.860 L 44.140 311.972 L 37.782 318.248 L 36.699 322.510 L 37.276 325.971 L 36.691 328.563 L 31.973 338.270 L 24.860 348.644 L 20.169 357.341 L 19.766 359.053 L 20.896 365.017 L 14.701 376.874 L 12.030 379.149 L 0.416 384.028 L 0.000 387.800 L 0.415 388.828 L 14.531 382.955 L 17.273 380.789 L 19.244 373.032 L 22.931 365.956 L 22.902 363.305 L 21.215 358.390 L 36.358 334.056 L 39.385 326.570 L 38.948 322.230 L 39.836 318.841 L 45.742 313.368 L 51.639 305.466 L 55.996 297.654 L 62.744 282.054 L 73.945 262.619 L 78.340 256.977 L 81.466 250.558 L 94.814 237.386 L 99.117 237.203 L 109.026 232.970 L 125.320 220.456 L 129.512 219.040 L 139.097 221.004 L 145.716 218.397 L 150.753 208.937 L 152.475 202.007 L 155.156 196.369 L 153.215 189.939 L 158.128 185.002 L 159.677 182.060 L 160.595 182.110 L 164.405 189.233 L 167.569 197.610 L 171.666 201.008 L 175.837 201.771 L 181.292 197.545 L 184.840 197.802 L 189.743 199.942 L 193.239 199.569 L 206.277 193.539 L 215.603 190.255 L 220.150 187.380 L 229.976 182.954 L 236.328 178.017 L 258.284 167.748 L 282.923 149.752 L 288.948 143.169 L 300.585 138.592 L 300.584 143.392 L 292.313 146.920 L 286.992 151.705 L 271.099 161.915 L 259.895 170.936 L 238.619 180.677 L 234.671 184.285 L 230.755 186.494 L 195.524 202.243 L 190.252 202.546 L 182.120 198.956 L 179.877 199.946 L 178.026 203.008 L 175.969 204.693 L 173.407 205.024 L 169.164 203.537 L 165.896 200.575 L 163.248 191.053 L 160.081 186.176 L 155.528 189.708 L 155.545 191.171 L 157.591 195.067 L 157.504 196.774 L 154.437 202.267 L 152.683 209.162 L 146.584 220.064 L 142.547 221.968 L 139.030 222.619 L 129.491 220.163 L 127.766 220.447 L 117.317 227.397 L 112.978 231.935 L 109.238 234.426 L 100.164 238.392 L 95.843 238.512 L 93.585 239.696 L 87.081 247.151 L 81.729 251.913 L 78.696 258.413 L 74.747 263.289 L 63.631 282.837 L 57.806 298.848 L 53.781 305.857 L 48.018 313.869 L 41.743 320.189 L 41.334 327.141 L 37.452 336.251 L 22.591 358.685 L 24.785 363.418 L 25.266 366.964 L 24.233 370.352 L 22.056 373.013 L 22.298 380.060 L 20.660 384.209 L 17.889 386.363 L 0.416 393.628 L 9.108 394.827 L 21.589 389.619 L 24.211 387.312 L 26.894 380.645 L 25.105 374.149 L 26.708 372.198 L 27.926 367.920 L 26.387 362.789 L 24.527 359.721 L 24.825 357.438 L 38.526 338.454 L 43.206 327.717 L 44.048 320.794 L 49.685 315.057 L 58.012 302.247 L 64.475 283.591 L 75.535 263.999 L 79.486 259.116 L 83.060 251.904 L 87.860 247.840 L 94.375 240.406 L 95.925 239.788 L 99.351 240.189 L 109.275 235.929 L 113.736 232.894 L 118.711 227.724 L 127.571 221.592 L 129.271 221.264 L 139.608 224.174 L 143.146 223.624 L 147.996 221.371 L 154.946 208.890 L 156.520 202.908 L 160.192 196.770 L 159.925 194.232 L 158.257 191.269 L 159.485 189.455 L 161.374 191.629 L 164.139 203.878 L 167.535 206.557 L 172.820 207.639 L 175.444 207.371 L 178.362 205.362 L 181.595 200.318 L 183.328 200.497 L 191.192 204.797 L 194.731 205.285 L 197.373 204.773 L 232.709 189.240 L 241.570 183.204 L 262.055 173.860 L 265.789 171.355 L 273.494 163.799 L 285.114 156.890 L 290.906 154.462 L 295.639 150.351 L 300.584 148.192 L 300.585 152.992 L 294.277 157.881 L 282.513 161.750 L 275.690 166.068 L 267.073 175.142 L 243.504 186.127 L 234.645 192.165 L 198.311 207.428 L 191.273 206.547 L 182.058 201.663 L 179.114 206.843 L 176.370 209.084 L 172.963 210.022 L 167.580 209.814 L 163.357 208.441 L 161.115 203.696 L 159.980 203.003 L 158.807 203.929 L 156.835 209.752 L 151.819 217.183 L 150.365 221.414 L 148.617 223.345 L 143.593 225.270 L 140.053 225.690 L 128.150 222.447 L 118.613 229.100 L 114.450 233.782 L 109.319 237.395 L 100.327 241.470 L 96.085 241.040 L 93.919 242.229 L 88.741 248.436 L 83.360 253.155 L 80.384 259.661 L 76.428 264.509 L 65.041 284.852 L 59.000 303.606 L 51.577 315.891 L 46.101 321.792 L 45.206 327.818 L 40.266 339.377 L 26.876 357.377 L 26.544 359.672 L 30.030 367.879 L 28.997 375.549 L 30.958 378.407 L 31.568 380.899 L 27.026 391.600 L 20.695 394.828 L 27.970 395.000 L 30.743 394.604 L 31.163 393.813 L 36.362 380.468 L 32.692 374.487 L 32.662 370.313 L 28.806 359.335 L 29.382 356.825 L 42.325 339.667 L 46.579 329.766 L 48.276 322.902 L 52.859 317.415 L 60.153 304.037 L 66.005 285.225 L 76.937 265.659 L 80.872 260.792 L 84.369 253.562 L 89.778 248.869 L 94.988 242.717 L 100.707 242.949 L 108.828 239.132 L 114.702 235.015 L 119.462 229.678 L 128.230 223.577 L 140.894 227.218 L 149.510 224.973 L 151.470 223.263 L 154.071 216.693 L 160.089 209.865 L 161.855 211.311 L 165.250 212.398 L 174.182 211.901 L 178.817 209.295 L 181.775 203.838 L 183.006 203.174 L 188.036 206.575 L 193.784 209.090 L 199.091 209.941 L 203.432 209.022 L 238.932 194.006 L 245.267 189.084 L 270.419 177.277 L 278.087 168.593 L 284.687 163.947 L 290.633 164.206 L 297.273 161.486 L 300.687 158.616 L 300.589 164.949 L 290.564 168.929 L 285.725 167.528 L 280.569 171.050 L 276.447 176.919 L 273.001 179.771 L 247.796 191.795 L 241.333 196.568 L 215.291 206.645 L 206.496 211.211 L 202.250 212.703 L 199.613 212.520 L 191.088 209.660 L 182.993 204.768 L 179.460 210.558 L 174.997 213.483 L 166.126 214.937 L 160.106 213.809 L 158.622 214.445 L 154.963 218.371 L 153.062 224.333 L 151.202 226.169 L 141.691 228.727 L 134.659 227.221 L 128.234 224.719 L 120.265 230.442 L 114.070 236.925 L 108.125 240.998 L 100.818 244.494 L 95.176 244.045 L 84.619 255.010 L 82.075 260.764 L 77.669 266.417 L 67.548 284.480 L 61.288 304.151 L 53.719 319.458 L 50.486 323.744 L 44.082 340.489 L 32.340 355.264 L 31.135 358.537 L 31.859 364.715 L 35.873 369.418 L 37.117 374.423 L 41.021 380.330 L 35.689 394.583 L 40.489 394.584 L 45.293 382.926 L 45.623 380.357 L 40.095 373.454 L 39.809 370.932 L 37.553 366.108 L 33.115 363.913 L 33.593 357.066 L 43.757 344.607 L 46.917 339.166 L 57.765 312.622 L 62.826 303.106 L 68.387 285.124 L 78.476 267.066 L 82.874 261.416 L 85.387 255.658 L 95.352 245.483 L 96.718 245.086 L 100.016 246.202 L 106.606 243.420 L 114.721 237.750 L 120.898 231.250 L 128.122 225.912 L 134.405 228.529 L 141.409 230.146 L 144.970 229.901 L 151.858 227.812 L 154.041 226.359 L 156.869 218.884 L 159.520 216.516 L 165.524 217.299 L 175.181 215.171 L 179.000 212.872 L 183.614 206.737 L 191.063 211.210 L 200.840 215.657 L 203.444 215.653 L 206.843 214.459 L 217.945 208.601 L 244.039 198.717 L 250.678 194.190 L 275.810 182.099 L 279.303 179.302 L 282.840 174.106 L 284.874 172.412 L 286.460 172.147 L 288.827 173.430 L 291.411 173.537 L 300.584 169.795 L 300.585 174.595 L 291.425 178.323 L 285.748 176.958 L 279.725 183.477 L 264.653 191.474 L 253.176 196.632 L 246.351 200.927 L 220.298 210.756 L 214.296 214.667 L 206.839 217.799 L 201.682 218.846 L 196.607 215.219 L 183.579 208.546 L 179.328 214.299 L 175.584 216.719 L 165.200 219.558 L 159.284 219.429 L 156.087 226.676 L 153.535 228.990 L 142.245 231.648 L 135.232 230.154 L 129.730 227.182 L 128.186 227.215 L 121.708 231.914 L 115.557 238.408 L 106.127 245.299 L 100.360 247.682 L 95.605 246.659 L 91.610 251.514 L 86.241 256.237 L 83.288 262.767 L 79.331 267.620 L 68.849 286.431 L 64.036 302.768 L 58.688 313.117 L 49.429 338.379 L 45.454 345.409 L 36.050 356.233 L 36.281 359.628 L 35.272 362.665 L 39.580 364.348 L 42.926 374.318 L 49.921 379.615 L 50.369 382.097 L 45.289 394.585 L 50.089 394.585 L 54.867 382.949 L 54.995 380.403 L 52.783 377.737 L 46.116 375.159 L 44.090 373.602 L 41.686 364.167 L 39.069 360.975 L 38.196 356.149 L 46.040 347.585 L 50.576 339.854 L 59.650 313.569 L 64.947 303.209 L 69.792 286.905 L 80.240 268.083 L 84.183 263.223 L 87.179 256.729 L 96.092 248.140 L 100.969 249.124 L 106.690 246.613 L 117.288 238.295 L 122.725 232.371 L 128.537 228.386 L 135.530 231.635 L 143.425 233.167 L 154.707 230.334 L 156.903 228.898 L 160.626 221.793 L 165.611 221.560 L 175.829 218.250 L 179.539 215.766 L 184.415 210.119 L 195.096 216.201 L 201.250 221.302 L 202.951 221.669 L 208.207 220.548 L 217.261 216.603 L 225.722 211.572 L 249.321 202.891 L 254.478 199.342 L 266.033 194.428 L 281.098 186.397 L 286.492 182.062 L 291.425 183.107 L 300.585 179.394 L 300.583 184.195 L 291.388 187.898 L 286.382 187.440 L 267.331 197.583 L 257.235 201.445 L 252.156 205.074 L 229.277 213.349 L 211.721 222.480 L 201.163 223.679 L 198.889 222.288 L 194.584 217.694 L 184.789 211.781 L 176.476 219.519 L 162.145 224.206 L 156.939 231.146 L 143.946 234.627 L 135.165 232.874 L 129.776 229.761 L 128.299 229.638 L 123.184 233.326 L 118.395 238.679 L 107.332 247.916 L 100.764 250.767 L 97.490 249.604 L 95.981 249.906 L 87.617 257.892 L 85.110 263.671 L 80.692 269.316 L 70.686 287.431 L 66.104 302.944 L 60.500 314.198 L 55.296 331.431 L 51.664 340.656 L 47.358 348.556 L 40.996 354.879 L 39.952 357.114 L 42.535 361.664 L 45.637 373.589 L 55.867 376.879 L 59.333 379.565 L 59.927 382.050 L 54.889 394.583 L 59.689 394.585 L 64.449 382.951 L 64.469 380.397 L 62.961 378.251 L 60.672 376.892 L 46.881 373.040 L 45.127 368.166 L 43.871 361.100 L 41.848 356.373 L 47.958 350.106 L 52.240 342.231 L 56.499 331.360 L 61.612 314.177 L 67.161 302.944 L 71.796 287.527 L 81.777 269.470 L 85.730 264.623 L 88.709 258.118 L 95.935 251.477 L 97.371 251.161 L 101.456 252.288 L 107.191 249.742 L 119.376 239.175 L 123.495 234.451 L 128.544 230.714 L 136.198 234.581 L 144.082 236.090 L 149.373 235.276 L 157.054 232.778 L 159.345 231.464 L 162.831 226.283 L 176.078 221.273 L 180.383 218.054 L 184.453 213.472 L 185.863 213.443 L 193.214 218.513 L 198.583 224.523 L 200.884 225.845 L 213.158 225.102 L 234.860 214.467 L 255.113 207.093 L 259.588 204.174 L 270.391 199.772 L 285.594 192.093 L 287.231 191.746 L 291.422 192.683 L 300.585 188.994 L 300.585 193.794 L 291.415 197.468 L 286.463 195.774 L 283.930 196.261 L 273.698 201.855 L 261.244 206.966 L 256.606 209.654 L 226.395 221.178 L 219.824 225.841 L 216.524 227.224 L 212.117 227.844 L 205.997 226.594 L 201.935 228.131 L 200.254 227.908 L 197.352 225.847 L 192.234 219.610 L 185.158 214.537 L 176.154 222.724 L 163.911 227.886 L 160.817 232.238 L 158.652 233.735 L 151.036 236.433 L 144.894 237.611 L 136.138 235.965 L 129.996 232.288 L 128.535 232.256 L 124.175 235.208 L 108.217 250.860 L 101.706 253.789 L 96.931 252.426 L 89.030 259.378 L 86.562 265.155 L 82.171 270.788 L 72.703 288.102 L 68.312 302.662 L 62.492 314.760 L 57.705 331.107 L 53.163 342.835 L 48.960 350.756 L 43.522 356.600 L 47.444 371.822 L 64.564 376.549 L 68.818 379.605 L 69.242 382.947 L 64.489 394.585 L 69.289 394.585 L 74.034 382.943 L 73.542 379.603 L 71.686 377.722 L 68.434 376.253 L 48.568 371.111 L 47.208 367.909 L 45.260 356.652 L 50.359 350.626 L 54.051 343.441 L 58.582 331.704 L 63.363 315.350 L 69.169 303.233 L 73.170 289.468 L 83.023 271.338 L 87.409 265.699 L 89.895 259.934 L 96.553 254.000 L 102.053 255.356 L 109.324 251.907 L 124.936 235.918 L 128.569 233.291 L 137.032 237.653 L 145.806 239.141 L 151.917 237.760 L 161.088 234.169 L 165.517 228.671 L 175.413 224.663 L 185.439 216.354 L 191.635 221.058 L 196.522 227.493 L 200.078 230.146 L 201.724 230.428 L 206.217 227.916 L 212.914 230.242 L 217.373 229.889 L 222.466 228.204 L 229.539 222.766 L 254.145 214.249 L 262.776 209.525 L 276.120 204.190 L 284.109 200.076 L 291.409 202.256 L 300.585 198.594 L 300.584 203.395 L 291.388 207.036 L 288.859 206.391 L 285.085 204.024 L 283.437 204.155 L 265.188 211.775 L 260.760 214.786 L 254.185 217.712 L 232.768 224.567 L 225.689 230.028 L 220.681 231.953 L 212.609 232.139 L 206.233 229.228 L 202.284 232.524 L 199.862 232.531 L 195.709 229.127 L 190.428 221.858 L 185.576 217.967 L 175.372 226.078 L 166.360 229.940 L 161.942 235.465 L 149.298 240.119 L 145.774 240.657 L 137.866 239.313 L 130.166 234.818 L 127.861 235.046 L 115.423 246.664 L 109.679 253.504 L 102.362 256.876 L 96.735 255.693 L 90.618 260.741 L 88.106 266.509 L 83.711 272.159 L 74.293 289.545 L 70.197 303.295 L 64.362 315.427 L 59.887 330.965 L 55.104 343.591 L 51.462 350.817 L 46.244 357.664 L 48.323 368.228 L 49.626 370.427 L 72.264 375.989 L 77.732 378.860 L 78.968 381.211 L 78.830 382.922 L 74.089 394.584 L 78.889 394.585 L 83.617 382.940 L 83.732 381.235 L 82.477 378.890 L 77.024 376.008 L 50.082 369.354 L 49.085 366.990 L 47.638 357.317 L 52.509 351.042 L 56.454 342.976 L 60.865 331.193 L 65.051 316.532 L 71.164 303.556 L 75.284 289.840 L 84.687 272.478 L 88.625 267.612 L 91.617 261.105 L 96.438 257.120 L 98.025 256.984 L 102.075 258.500 L 110.255 254.963 L 116.361 247.314 L 128.003 236.183 L 130.325 236.110 L 137.914 240.806 L 148.436 241.984 L 162.774 236.750 L 167.877 230.690 L 175.255 227.512 L 185.674 219.674 L 189.705 223.101 L 195.339 231.206 L 200.147 235.118 L 202.528 234.771 L 206.585 230.607 L 211.982 233.563 L 222.715 234.059 L 227.785 232.302 L 236.741 226.383 L 258.941 219.115 L 267.448 214.240 L 283.172 207.649 L 290.547 211.797 L 300.585 208.194 L 300.584 212.995 L 293.102 216.084 L 290.543 216.552 L 283.751 212.232 L 281.376 212.270 L 269.662 216.837 L 262.770 220.921 L 243.959 227.000 L 230.473 234.108 L 225.430 235.980 L 212.049 235.028 L 206.760 232.384 L 202.840 236.952 L 200.520 237.811 L 195.601 233.968 L 188.462 223.645 L 185.100 221.302 L 174.466 229.384 L 168.768 231.938 L 163.580 237.929 L 148.444 243.594 L 137.939 242.331 L 130.462 237.413 L 128.125 237.335 L 117.264 247.992 L 111.535 255.940 L 102.602 260.051 L 96.962 258.261 L 92.134 262.130 L 89.162 268.653 L 85.231 273.530 L 75.871 290.925 L 72.419 302.989 L 66.039 316.835 L 61.835 331.492 L 57.750 342.447 L 53.943 350.589 L 48.609 358.585 L 50.022 366.537 L 51.181 368.764 L 80.011 375.555 L 86.589 378.265 L 88.573 382.078 L 83.689 394.584 L 88.489 394.583 L 93.207 382.905 L 93.234 381.205 L 91.299 378.241 L 85.576 375.762 L 52.189 368.110 L 50.957 365.929 L 49.857 358.040 L 54.502 351.565 L 58.759 342.616 L 67.063 316.939 L 73.454 303.051 L 76.569 291.788 L 85.917 274.335 L 89.836 269.430 L 92.852 262.908 L 96.950 259.616 L 103.423 261.540 L 112.335 257.264 L 117.794 249.125 L 128.560 238.304 L 130.885 238.937 L 138.289 243.988 L 148.822 245.110 L 164.736 238.880 L 169.321 233.427 L 174.083 230.975 L 185.620 222.875 L 187.544 224.459 L 194.323 235.064 L 200.569 240.128 L 203.579 238.639 L 207.236 234.122 L 211.078 236.225 L 226.120 238.249 L 232.083 236.244 L 249.220 228.261 L 267.213 222.397 L 281.781 215.576 L 290.519 221.307 L 300.583 217.795 L 300.585 222.595 L 292.255 225.954 L 289.725 225.720 L 282.523 220.402 L 280.175 219.856 L 227.490 240.389 L 223.953 240.212 L 218.119 237.977 L 210.984 237.586 L 207.130 235.862 L 203.114 241.301 L 201.602 242.242 L 199.989 242.010 L 193.208 236.260 L 185.511 224.316 L 170.983 234.191 L 165.533 240.028 L 160.752 242.508 L 148.906 246.714 L 138.396 245.612 L 130.412 239.825 L 128.222 240.001 L 118.854 249.652 L 115.007 256.713 L 112.380 259.113 L 103.400 263.171 L 97.002 260.880 L 93.640 263.593 L 91.037 269.309 L 86.700 274.990 L 77.401 292.406 L 74.307 303.641 L 67.629 318.332 L 59.971 342.248 L 56.243 350.426 L 51.278 357.851 L 50.912 359.469 L 51.951 365.663 L 53.551 367.456 L 88.651 375.286 L 96.065 378.301 L 98.012 381.251 L 97.992 382.940 L 93.289 394.585 L 98.089 394.585 L 102.786 382.951 L 102.802 381.262 L 100.829 378.337 L 97.701 376.651 L 90.800 374.664 L 54.840 366.730 L 52.886 365.272 L 52.014 359.100 L 57.124 350.812 L 61.196 341.814 L 68.839 317.920 L 75.506 303.232 L 78.274 292.845 L 87.576 275.453 L 91.477 270.563 L 94.062 264.836 L 97.256 262.082 L 103.599 264.762 L 113.371 260.326 L 115.974 257.908 L 120.086 250.005 L 128.816 241.148 L 130.244 241.007 L 138.904 247.303 L 146.790 248.549 L 149.424 248.274 L 161.224 243.976 L 166.731 240.967 L 172.146 235.096 L 185.058 225.851 L 186.268 226.769 L 192.354 237.724 L 199.799 244.109 L 202.938 243.601 L 207.634 237.670 L 210.959 238.877 L 218.063 239.168 L 224.481 242.252 L 228.003 242.564 L 257.628 232.175 L 279.210 223.323 L 280.911 223.278 L 283.130 224.650 L 286.662 228.682 L 290.551 230.875 L 300.585 227.394 L 300.585 232.195 L 293.939 234.942 L 291.385 235.729 L 288.927 234.853 L 283.872 231.146 L 280.755 226.793 L 279.284 226.487 L 258.620 235.051 L 233.976 243.480 L 228.710 244.590 L 224.351 243.865 L 218.107 240.410 L 211.036 240.153 L 208.539 239.218 L 207.164 239.819 L 203.128 245.647 L 201.599 246.553 L 199.989 246.280 L 194.841 242.726 L 191.754 239.477 L 184.891 227.371 L 173.525 235.558 L 168.394 241.695 L 161.340 245.624 L 148.707 250.223 L 139.069 248.838 L 130.503 242.387 L 129.007 242.590 L 120.330 251.565 L 117.069 258.912 L 114.550 261.418 L 104.008 266.331 L 101.485 265.782 L 97.719 263.436 L 95.056 265.180 L 91.973 271.646 L 88.082 276.552 L 79.204 293.168 L 76.444 303.564 L 69.482 319.115 L 62.432 341.330 L 57.596 351.962 L 53.669 357.971 L 53.189 360.335 L 53.874 364.755 L 55.201 365.702 L 90.293 373.464 L 104.877 377.813 L 106.762 379.663 L 107.708 382.086 L 102.889 394.585 L 107.689 394.584 L 112.493 382.064 L 111.536 379.637 L 109.640 377.793 L 103.753 375.665 L 55.485 364.693 L 54.224 359.771 L 63.109 342.270 L 70.232 320.042 L 77.493 303.600 L 80.285 293.204 L 95.770 265.976 L 97.790 264.850 L 102.250 267.627 L 104.820 267.828 L 114.584 263.261 L 117.924 260.309 L 121.948 251.365 L 129.432 243.803 L 130.893 243.903 L 139.463 250.354 L 146.414 252.091 L 149.058 251.959 L 161.640 247.163 L 168.694 243.206 L 174.326 236.362 L 184.476 229.231 L 191.280 241.393 L 199.604 248.188 L 201.216 248.601 L 203.502 247.477 L 208.467 240.495 L 211.004 241.346 L 217.197 241.396 L 225.855 246.004 L 230.262 246.559 L 234.693 245.829 L 259.546 237.901 L 278.686 230.232 L 287.377 238.699 L 290.520 240.412 L 293.093 240.082 L 300.584 236.995 L 300.583 241.795 L 291.351 245.286 L 286.594 242.970 L 281.377 236.887 L 276.951 234.316 L 255.947 242.428 L 233.342 248.506 L 227.142 248.105 L 216.902 242.542 L 209.072 242.176 L 207.698 242.931 L 204.018 249.103 L 201.008 250.673 L 194.960 247.005 L 190.933 243.423 L 187.512 238.133 L 184.786 231.462 L 183.649 230.901 L 175.084 237.131 L 171.002 242.995 L 166.682 246.216 L 149.320 253.616 L 146.666 253.751 L 139.751 251.769 L 135.847 249.552 L 131.134 245.365 L 129.131 245.325 L 122.424 252.615 L 119.217 260.973 L 116.094 264.140 L 104.725 269.467 L 102.169 269.014 L 97.655 266.185 L 95.979 267.657 L 81.287 293.336 L 78.496 303.744 L 71.530 319.365 L 64.715 340.781 L 59.980 351.498 L 55.851 358.471 L 55.455 361.904 L 56.630 364.015 L 113.653 377.311 L 115.783 378.890 L 117.278 382.043 L 112.489 394.583 L 117.289 394.584 L 122.075 382.066 L 120.603 378.905 L 118.506 377.287 L 113.402 375.592 L 58.068 363.333 L 56.799 362.380 L 56.345 360.758 L 65.519 341.400 L 69.213 331.255 L 71.105 323.413 L 79.611 303.589 L 82.099 294.045 L 90.562 278.212 L 93.985 274.061 L 97.358 267.885 L 103.286 270.936 L 105.020 271.036 L 111.678 268.399 L 117.877 264.767 L 120.583 261.267 L 123.148 253.629 L 129.711 246.503 L 131.025 246.632 L 135.763 250.767 L 139.693 252.933 L 146.525 255.160 L 150.066 254.983 L 161.799 250.442 L 167.340 247.465 L 172.128 243.415 L 176.216 237.567 L 183.344 232.565 L 184.430 233.425 L 186.715 239.288 L 190.571 245.341 L 200.684 252.730 L 204.422 250.803 L 209.087 243.449 L 216.779 243.732 L 229.241 250.755 L 235.500 250.631 L 259.844 244.320 L 276.557 238.017 L 278.754 239.178 L 283.291 244.680 L 290.521 249.951 L 293.096 249.678 L 300.584 246.595 L 300.584 251.395 L 291.357 254.836 L 287.476 252.834 L 275.984 241.942 L 261.565 246.660 L 236.340 253.137 L 228.340 252.537 L 215.473 244.511 L 209.368 244.955 L 204.781 252.468 L 201.203 254.732 L 192.949 249.542 L 189.621 246.537 L 183.051 234.188 L 176.702 238.582 L 172.612 244.458 L 166.438 249.663 L 160.856 252.563 L 150.690 256.207 L 146.263 256.426 L 141.174 254.635 L 135.542 251.841 L 130.747 247.968 L 129.360 248.088 L 124.083 254.221 L 121.377 262.760 L 118.591 266.210 L 111.561 270.215 L 104.836 272.660 L 98.002 269.267 L 91.065 279.289 L 83.015 294.341 L 80.558 303.894 L 72.359 322.894 L 70.418 330.726 L 66.425 341.726 L 57.655 359.452 L 57.503 361.138 L 59.301 362.569 L 116.460 375.064 L 123.294 377.258 L 125.382 378.893 L 126.863 382.055 L 122.089 394.584 L 126.889 394.585 L 131.660 382.078 L 130.184 378.921 L 128.096 377.294 L 120.436 374.777 L 99.268 370.646 L 60.737 361.835 L 58.684 360.770 L 67.592 341.384 L 71.302 331.260 L 73.215 323.435 L 81.708 303.623 L 83.905 294.936 L 91.863 279.893 L 98.299 270.841 L 103.436 273.829 L 106.014 274.090 L 113.482 271.047 L 119.640 267.365 L 122.309 263.837 L 125.236 254.451 L 129.298 249.653 L 131.408 249.731 L 136.396 253.532 L 144.593 257.201 L 147.193 257.841 L 150.736 257.470 L 160.145 254.451 L 165.773 251.674 L 173.265 245.263 L 177.397 239.429 L 182.233 235.869 L 183.363 236.727 L 186.500 244.174 L 189.504 248.626 L 201.162 256.754 L 204.798 254.617 L 210.391 245.772 L 215.603 245.823 L 221.888 249.229 L 225.734 252.953 L 228.834 254.704 L 236.806 255.794 L 274.810 245.735 L 282.205 250.496 L 286.790 257.086 L 290.526 259.494 L 293.104 259.272 L 300.585 256.194 L 300.584 260.995 L 291.358 264.393 L 288.119 263.018 L 285.451 260.636 L 280.476 252.176 L 274.298 248.702 L 249.874 254.442 L 238.039 258.531 L 229.292 256.754 L 225.341 254.623 L 220.385 249.541 L 215.614 247.045 L 213.038 246.768 L 209.769 247.834 L 204.373 257.136 L 202.139 258.569 L 200.455 258.504 L 188.883 250.115 L 181.718 237.267 L 177.644 240.685 L 173.504 246.526 L 165.995 252.960 L 159.530 256.083 L 150.904 258.644 L 147.358 259.097 L 144.750 258.496 L 135.785 254.310 L 131.446 251.124 L 129.302 251.157 L 126.023 255.410 L 123.259 264.887 L 120.714 268.525 L 113.778 272.672 L 106.278 275.671 L 103.691 275.372 L 98.506 272.676 L 92.686 280.455 L 85.070 294.703 L 82.832 303.392 L 74.347 323.239 L 72.424 331.072 L 68.697 341.205 L 60.013 359.855 L 61.874 361.037 L 100.447 369.919 L 120.794 373.703 L 132.029 376.916 L 134.947 378.906 L 136.445 382.058 L 131.689 394.584 L 136.489 394.585 L 141.239 382.067 L 139.745 378.917 L 137.627 377.330 L 122.095 372.880 L 99.991 368.830 L 61.880 359.527 L 69.846 340.913 L 73.560 330.787 L 75.190 323.810 L 83.670 303.979 L 85.943 295.310 L 93.008 281.804 L 98.309 274.624 L 99.497 274.241 L 103.978 276.903 L 106.555 277.273 L 114.065 274.295 L 120.339 270.785 L 123.401 267.571 L 127.094 255.607 L 129.909 252.216 L 146.487 260.220 L 150.044 260.063 L 161.221 256.678 L 166.026 254.243 L 170.273 250.922 L 181.135 239.203 L 182.597 240.484 L 185.329 247.137 L 188.177 251.702 L 200.545 260.481 L 204.475 258.867 L 210.493 248.916 L 213.701 247.812 L 220.172 250.677 L 224.178 255.404 L 229.444 258.816 L 237.978 261.328 L 250.686 257.168 L 274.083 251.158 L 278.593 253.899 L 282.616 261.860 L 289.705 268.639 L 293.099 268.871 L 300.584 265.795 L 300.585 270.595 L 291.366 273.942 L 286.885 271.276 L 279.571 262.243 L 276.542 255.760 L 273.720 253.750 L 245.139 261.347 L 238.641 264.207 L 229.486 260.919 L 223.757 256.678 L 219.903 251.826 L 213.445 248.994 L 211.146 250.010 L 204.468 260.564 L 202.241 262.041 L 199.714 261.955 L 187.184 253.528 L 181.094 240.873 L 178.559 242.816 L 174.917 247.927 L 166.773 254.970 L 159.530 258.538 L 150.904 261.065 L 145.620 261.183 L 131.350 253.676 L 129.874 253.902 L 127.892 256.734 L 124.656 267.929 L 122.000 271.485 L 115.039 275.579 L 106.702 278.843 L 104.960 278.722 L 98.942 275.777 L 94.038 282.031 L 86.970 295.521 L 84.955 303.325 L 76.178 324.002 L 74.562 330.980 L 70.814 341.094 L 63.185 358.893 L 100.423 367.936 L 121.665 371.668 L 141.660 376.895 L 144.554 378.901 L 146.030 382.068 L 141.289 394.585 L 146.089 394.584 L 150.820 382.059 L 149.344 378.887 L 146.460 376.858 L 121.204 370.447 L 106.095 368.146 L 73.681 360.672 L 65.812 358.764 L 64.770 357.115 L 72.024 340.652 L 75.499 331.389 L 77.086 324.399 L 85.871 303.711 L 87.903 295.905 L 94.493 283.169 L 99.177 277.761 L 100.553 277.670 L 105.150 280.262 L 107.760 280.290 L 116.056 276.830 L 122.268 273.215 L 125.512 269.010 L 128.947 256.934 L 130.580 254.988 L 145.658 262.353 L 150.932 262.271 L 159.548 259.695 L 167.559 255.643 L 175.054 249.209 L 180.625 242.210 L 186.101 255.646 L 195.736 262.043 L 199.862 263.790 L 201.546 264.024 L 204.567 262.160 L 207.399 258.683 L 211.796 250.848 L 213.309 250.135 L 218.990 252.469 L 222.768 257.379 L 228.092 262.035 L 238.404 266.941 L 241.829 266.083 L 246.383 263.299 L 273.243 256.761 L 277.894 264.146 L 282.851 269.324 L 284.945 274.268 L 286.643 276.324 L 291.361 278.724 L 300.585 275.395 L 300.585 280.195 L 292.245 283.455 L 290.521 283.347 L 287.394 281.604 L 282.994 277.152 L 280.200 269.701 L 271.723 259.733 L 249.104 264.981 L 244.049 268.388 L 238.870 269.600 L 234.693 268.066 L 231.619 264.986 L 227.411 263.506 L 224.670 260.090 L 221.772 258.012 L 218.744 253.635 L 213.158 251.439 L 205.270 263.149 L 202.485 265.366 L 199.992 265.677 L 194.190 263.263 L 190.696 260.470 L 185.148 257.594 L 183.843 255.329 L 182.961 250.044 L 180.430 244.494 L 172.984 252.625 L 167.285 256.993 L 160.068 260.628 L 149.758 263.769 L 145.375 263.410 L 131.047 256.380 L 129.895 257.263 L 126.289 270.217 L 123.121 274.478 L 116.133 278.528 L 107.828 281.917 L 105.237 281.733 L 100.015 278.847 L 95.253 283.844 L 88.711 296.589 L 86.987 303.558 L 77.918 325.078 L 76.309 332.052 L 66.325 356.119 L 66.627 357.542 L 100.401 365.946 L 120.789 369.229 L 150.436 376.482 L 154.122 378.910 L 155.613 382.069 L 150.889 394.585 L 155.689 394.584 L 160.401 382.056 L 158.899 378.898 L 155.988 376.904 L 148.302 374.385 L 136.819 372.286 L 121.159 368.167 L 106.896 366.342 L 74.494 358.833 L 68.378 357.331 L 67.562 355.768 L 77.525 331.665 L 78.834 325.537 L 87.873 303.977 L 89.637 297.025 L 95.696 285.018 L 99.177 280.925 L 101.339 280.706 L 105.090 283.166 L 107.654 283.622 L 116.815 279.932 L 123.070 276.385 L 125.126 274.662 L 126.965 271.595 L 130.623 258.639 L 131.539 257.824 L 145.892 264.729 L 150.290 264.828 L 159.733 261.884 L 167.761 257.847 L 173.498 253.519 L 179.946 246.570 L 181.806 249.937 L 183.488 258.636 L 189.001 261.427 L 193.101 264.860 L 200.663 267.659 L 205.121 265.028 L 213.673 252.713 L 216.139 253.214 L 218.325 254.735 L 220.715 258.498 L 224.185 261.246 L 226.027 264.237 L 230.181 265.808 L 233.379 269.832 L 239.152 272.186 L 246.145 270.858 L 250.964 267.266 L 264.850 263.490 L 270.897 262.616 L 277.656 270.799 L 280.633 279.148 L 286.757 285.706 L 289.696 287.737 L 292.237 288.247 L 300.585 284.995 L 300.585 289.794 L 292.249 293.036 L 288.180 291.589 L 278.360 281.158 L 275.010 271.962 L 269.776 264.963 L 263.695 266.133 L 253.538 269.741 L 244.836 273.997 L 238.626 274.444 L 232.146 271.462 L 229.452 267.087 L 225.459 265.411 L 217.919 255.864 L 215.045 253.917 L 213.600 254.109 L 205.159 266.785 L 200.713 269.362 L 192.230 266.640 L 187.629 262.545 L 182.762 260.420 L 181.548 258.117 L 180.952 250.987 L 179.803 248.477 L 173.812 254.580 L 168.028 258.823 L 160.028 262.896 L 149.745 266.100 L 145.378 265.664 L 131.966 259.493 L 127.681 272.843 L 123.862 277.681 L 117.645 281.271 L 108.532 285.080 L 105.932 285.007 L 100.577 281.862 L 96.814 285.157 L 90.675 297.099 L 88.905 304.036 L 79.906 325.575 L 78.569 331.687 L 68.996 354.940 L 69.257 356.259 L 106.547 365.289 L 121.689 367.103 L 159.972 376.565 L 163.698 378.917 L 165.195 382.073 L 160.489 394.585 L 165.289 394.585 L 169.983 382.060 L 168.473 378.906 L 165.557 376.920 L 148.288 372.005 L 136.787 370.201 L 121.243 365.721 L 106.940 364.384 L 89.570 359.773 L 73.702 356.588 L 71.152 355.816 L 70.553 353.826 L 79.764 331.369 L 80.815 326.106 L 89.759 304.523 L 91.891 296.755 L 97.220 286.388 L 100.204 283.347 L 106.303 286.604 L 108.901 286.587 L 118.037 282.822 L 124.263 279.240 L 127.852 275.323 L 132.661 260.942 L 134.889 261.356 L 145.263 266.733 L 149.625 267.247 L 159.091 264.405 L 165.577 261.307 L 171.727 257.590 L 178.993 251.322 L 179.904 252.033 L 180.279 258.293 L 181.587 261.550 L 186.349 263.859 L 190.781 268.103 L 201.015 271.217 L 205.357 268.354 L 213.911 255.732 L 215.309 255.297 L 222.504 262.749 L 224.049 265.898 L 228.685 268.184 L 230.979 272.790 L 238.108 276.441 L 244.306 276.572 L 264.260 268.603 L 267.698 267.560 L 269.172 267.959 L 272.015 272.397 L 276.197 283.227 L 282.634 289.453 L 286.740 295.314 L 289.699 297.297 L 292.242 297.830 L 300.585 294.595 L 300.585 299.395 L 292.246 302.618 L 287.486 300.548 L 283.700 296.751 L 280.917 291.172 L 274.096 285.403 L 269.154 272.947 L 267.662 270.852 L 264.392 271.324 L 244.427 279.403 L 236.734 278.027 L 229.884 273.864 L 227.720 269.180 L 223.208 266.728 L 221.678 263.545 L 218.958 261.308 L 215.379 256.625 L 214.255 257.174 L 205.098 270.479 L 201.509 273.052 L 189.563 269.586 L 185.053 265.418 L 181.172 263.240 L 179.745 261.049 L 178.851 254.848 L 178.040 253.706 L 171.363 259.080 L 163.544 263.504 L 150.020 268.262 L 145.636 267.998 L 133.617 262.244 L 128.357 277.013 L 123.895 281.342 L 118.399 284.387 L 108.386 288.361 L 105.831 287.904 L 100.572 284.696 L 98.133 286.857 L 92.442 298.025 L 90.951 304.112 L 81.760 326.560 L 80.947 330.956 L 71.793 353.421 L 71.987 354.817 L 107.503 363.508 L 122.708 364.568 L 137.228 369.269 L 147.849 370.764 L 169.514 376.594 L 173.260 378.915 L 174.775 382.065 L 170.089 394.585 L 174.889 394.584 L 179.557 382.031 L 178.010 378.885 L 175.056 376.940 L 148.134 369.694 L 137.490 368.304 L 123.159 362.967 L 109.685 362.830 L 101.733 361.267 L 89.632 357.719 L 73.737 354.495 L 73.204 352.623 L 81.731 331.775 L 83.165 325.679 L 92.012 303.989 L 93.853 297.055 L 98.915 287.539 L 100.858 286.162 L 105.992 289.443 L 108.552 289.890 L 118.617 286.010 L 124.154 283.006 L 129.220 277.993 L 133.950 263.555 L 145.726 269.115 L 149.235 269.492 L 161.246 265.756 L 171.534 260.163 L 177.189 256.110 L 179.483 263.277 L 186.661 269.957 L 201.004 274.844 L 204.785 272.797 L 214.057 259.517 L 215.617 258.395 L 220.830 264.258 L 222.309 267.491 L 226.754 270.116 L 228.919 274.849 L 233.911 278.640 L 238.944 280.408 L 242.703 282.712 L 246.104 281.902 L 255.709 277.050 L 264.218 274.104 L 266.480 274.095 L 271.477 286.519 L 278.363 292.216 L 280.712 297.010 L 287.466 305.330 L 292.224 307.412 L 300.584 304.195 L 300.584 308.995 L 292.235 312.201 L 287.469 310.098 L 284.553 306.716 L 282.881 302.591 L 275.627 293.503 L 268.448 286.798 L 264.104 277.338 L 256.512 279.263 L 249.538 283.324 L 243.651 285.544 L 241.960 285.365 L 239.586 284.193 L 237.289 281.649 L 232.409 279.434 L 228.307 275.956 L 225.410 270.646 L 221.672 268.470 L 219.644 264.533 L 215.415 260.487 L 214.281 261.106 L 205.081 274.414 L 201.385 276.804 L 185.505 271.099 L 179.082 264.867 L 176.658 258.468 L 175.225 258.634 L 160.500 267.239 L 149.317 270.545 L 145.808 270.251 L 135.397 264.935 L 134.054 266.663 L 129.777 279.436 L 124.710 284.461 L 119.186 287.465 L 108.241 291.497 L 105.721 290.800 L 101.358 287.830 L 99.436 288.666 L 94.445 298.184 L 92.929 304.276 L 83.828 326.796 L 82.997 331.192 L 74.517 352.028 L 74.875 353.431 L 107.841 361.596 L 123.056 361.256 L 137.132 367.140 L 147.740 368.478 L 179.040 376.627 L 182.819 378.895 L 184.351 382.046 L 179.689 394.584 L 184.489 394.585 L 189.147 382.068 L 187.624 378.920 L 183.867 376.618 L 147.386 367.291 L 137.673 366.234 L 129.734 362.100 L 122.955 359.746 L 107.821 360.605 L 89.635 355.651 L 77.304 353.177 L 75.755 351.624 L 83.883 331.670 L 84.989 326.435 L 94.057 303.942 L 95.577 297.864 L 100.380 289.295 L 101.679 289.408 L 106.042 292.411 L 108.580 293.005 L 124.323 286.555 L 127.848 283.794 L 130.654 280.309 L 134.628 268.400 L 136.093 266.733 L 145.722 271.301 L 149.217 271.651 L 159.570 268.787 L 175.834 259.942 L 179.496 267.605 L 184.010 271.937 L 201.352 278.596 L 205.077 276.420 L 215.253 262.245 L 219.220 265.616 L 221.239 269.535 L 224.890 271.842 L 227.214 276.578 L 231.895 280.735 L 235.798 282.806 L 238.195 286.357 L 241.314 288.063 L 243.810 288.504 L 258.361 281.609 L 260.895 280.693 L 262.313 280.987 L 263.944 284.892 L 268.096 290.750 L 274.264 295.904 L 279.915 302.873 L 282.637 308.473 L 286.837 314.284 L 289.734 316.353 L 292.252 316.990 L 300.585 313.794 L 300.584 318.595 L 292.225 321.782 L 288.193 320.137 L 281.661 311.578 L 273.822 298.453 L 266.496 293.359 L 260.225 284.796 L 258.687 284.691 L 253.666 286.690 L 244.075 291.406 L 242.358 291.357 L 236.790 288.414 L 234.565 283.809 L 226.252 277.191 L 224.022 272.364 L 220.338 270.121 L 218.326 266.183 L 215.456 264.127 L 210.546 269.977 L 205.179 278.295 L 201.468 280.537 L 195.233 277.420 L 189.154 275.764 L 182.592 272.839 L 179.427 269.674 L 175.818 262.464 L 174.634 261.943 L 158.835 270.235 L 148.392 272.846 L 145.773 272.424 L 136.229 268.129 L 131.431 281.255 L 128.139 285.517 L 124.575 288.251 L 108.694 294.443 L 105.343 293.427 L 101.749 290.724 L 100.561 290.967 L 96.620 297.841 L 95.060 303.928 L 77.239 351.612 L 108.188 359.668 L 122.410 358.266 L 129.286 360.395 L 137.891 365.241 L 147.608 366.243 L 188.581 376.609 L 192.372 378.879 L 193.928 382.026 L 189.289 394.584 L 194.089 394.584 L 198.723 382.046 L 197.176 378.900 L 193.397 376.626 L 158.538 367.796 L 152.321 366.875 L 147.255 365.074 L 137.587 364.108 L 129.211 358.863 L 122.313 356.901 L 108.208 358.678 L 79.453 351.470 L 78.321 350.622 L 86.091 331.501 L 86.962 327.114 L 95.856 304.524 L 97.404 298.444 L 100.452 292.963 L 101.662 292.375 L 106.849 295.505 L 109.434 295.782 L 118.796 292.612 L 126.093 289.138 L 129.474 286.206 L 132.026 282.511 L 136.483 269.981 L 137.842 269.642 L 146.783 273.835 L 153.877 273.080 L 161.426 270.218 L 174.747 263.288 L 178.250 270.165 L 181.111 273.601 L 187.617 276.586 L 194.513 278.619 L 201.326 282.600 L 205.078 280.376 L 211.920 269.830 L 214.754 266.401 L 216.141 265.881 L 217.487 266.898 L 219.526 270.842 L 223.186 273.146 L 225.501 277.940 L 232.989 284.233 L 235.098 289.806 L 242.069 293.834 L 244.632 294.061 L 248.046 292.926 L 256.663 288.135 L 259.048 287.572 L 263.596 294.012 L 271.842 299.320 L 279.237 312.667 L 287.510 324.383 L 292.241 326.570 L 300.584 323.395 L 300.584 328.195 L 292.241 331.359 L 288.240 329.658 L 276.910 313.585 L 270.115 300.936 L 262.688 296.040 L 257.619 291.421 L 243.715 296.918 L 234.433 291.709 L 232.890 289.659 L 232.176 285.361 L 224.970 278.885 L 222.505 274.171 L 218.937 271.731 L 216.323 267.388 L 215.011 267.669 L 212.729 270.448 L 204.973 282.542 L 201.153 284.523 L 193.662 279.888 L 181.044 275.236 L 178.522 272.725 L 174.861 265.520 L 173.627 264.932 L 161.027 271.537 L 153.462 274.320 L 146.370 274.832 L 137.395 270.917 L 132.895 283.200 L 130.040 287.765 L 127.348 290.124 L 118.407 294.332 L 109.854 297.116 L 107.249 296.979 L 101.207 294.218 L 98.707 297.859 L 97.097 303.915 L 88.183 326.514 L 87.047 331.757 L 79.884 349.985 L 108.085 357.667 L 111.646 357.569 L 116.722 355.808 L 122.075 355.476 L 128.989 357.260 L 138.016 363.063 L 142.397 363.014 L 147.669 364.089 L 151.862 365.676 L 158.954 366.729 L 173.626 371.040 L 198.178 376.630 L 201.962 378.896 L 203.513 382.043 L 198.889 394.584 L 203.689 394.584 L 208.301 382.032 L 206.743 378.883 L 202.955 376.616 L 173.969 370.133 L 158.464 365.434 L 152.230 364.721 L 142.774 361.962 L 138.407 362.085 L 127.898 355.337 L 120.030 353.958 L 115.601 354.672 L 110.640 356.706 L 107.955 356.657 L 82.760 349.995 L 81.384 348.436 L 100.734 296.424 L 102.677 295.574 L 107.345 298.237 L 109.947 298.433 L 118.540 295.783 L 128.318 291.211 L 130.999 288.843 L 132.830 285.757 L 137.845 272.359 L 147.484 276.118 L 154.599 275.307 L 173.805 266.257 L 179.725 275.893 L 193.053 281.154 L 201.196 286.489 L 203.645 285.694 L 205.590 283.865 L 211.546 273.800 L 215.872 268.621 L 218.343 272.618 L 221.383 274.386 L 223.792 279.172 L 231.016 285.783 L 231.756 290.956 L 233.325 293.024 L 241.269 298.792 L 243.711 299.689 L 256.047 294.407 L 258.226 295.165 L 268.252 302.613 L 273.731 312.951 L 279.162 320.111 L 287.559 333.853 L 292.236 336.149 L 300.584 332.995 L 300.583 337.795 L 293.073 340.854 L 290.552 340.553 L 288.220 339.212 L 285.440 335.731 L 283.326 329.832 L 271.628 313.943 L 265.969 303.733 L 256.399 297.213 L 244.973 302.101 L 240.776 301.250 L 237.283 297.233 L 231.420 293.190 L 229.799 286.421 L 222.857 279.598 L 220.365 274.918 L 217.354 273.098 L 216.002 271.086 L 214.798 271.169 L 212.609 274.021 L 205.219 286.372 L 201.439 288.523 L 198.256 287.083 L 191.880 282.170 L 179.352 277.214 L 177.026 274.514 L 173.766 268.117 L 172.422 267.739 L 154.797 276.456 L 146.795 277.132 L 138.739 273.892 L 132.679 288.707 L 128.890 292.444 L 118.269 297.367 L 109.611 299.831 L 107.024 299.379 L 103.093 297.185 L 101.165 297.601 L 90.184 327.061 L 89.300 331.455 L 82.696 347.255 L 82.967 348.725 L 107.892 355.657 L 110.577 355.677 L 115.420 353.364 L 119.807 352.424 L 127.691 353.672 L 137.966 360.795 L 142.279 360.784 L 151.733 363.572 L 158.855 364.346 L 173.436 369.009 L 207.736 376.599 L 211.525 378.871 L 213.089 382.022 L 208.489 394.584 L 213.289 394.584 L 217.880 382.021 L 216.310 378.872 L 212.523 376.595 L 173.812 368.114 L 159.295 363.275 L 152.164 362.604 L 142.724 359.814 L 138.416 359.768 L 127.600 352.000 L 119.714 350.869 L 115.392 352.061 L 110.637 354.555 L 107.975 354.675 L 85.430 348.454 L 83.896 347.112 L 90.410 331.295 L 91.296 326.901 L 101.522 299.040 L 102.803 298.496 L 107.528 300.828 L 111.041 300.851 L 120.513 297.970 L 130.182 293.150 L 133.737 289.213 L 139.184 275.260 L 147.233 278.283 L 154.356 277.728 L 172.713 268.956 L 176.483 275.704 L 178.864 278.358 L 191.304 283.494 L 198.310 289.083 L 201.514 290.478 L 203.962 289.538 L 205.848 287.646 L 212.037 276.659 L 215.239 272.808 L 220.101 276.220 L 222.583 280.929 L 228.781 287.195 L 230.416 294.007 L 236.213 298.135 L 239.646 303.251 L 244.703 304.560 L 255.512 300.074 L 263.724 305.048 L 272.085 318.844 L 278.040 326.757 L 281.916 330.487 L 283.367 336.508 L 286.965 342.723 L 289.738 344.955 L 292.227 345.742 L 300.583 342.595 L 300.584 347.395 L 293.084 350.447 L 290.565 350.144 L 288.244 348.793 L 281.941 339.030 L 280.443 331.257 L 269.978 320.272 L 262.200 307.158 L 255.384 303.126 L 244.421 306.926 L 239.267 305.830 L 237.482 303.924 L 235.358 299.077 L 229.583 294.922 L 227.432 287.283 L 221.801 281.619 L 218.041 275.760 L 215.641 274.551 L 214.403 275.087 L 205.805 289.746 L 203.873 291.593 L 201.451 292.456 L 197.476 290.476 L 190.601 284.744 L 178.271 279.421 L 175.905 276.759 L 173.159 271.102 L 171.843 270.405 L 155.128 278.757 L 147.139 279.367 L 139.910 276.705 L 134.242 290.714 L 130.461 294.441 L 120.851 299.339 L 111.356 302.089 L 108.694 302.304 L 103.847 300.057 L 102.505 300.270 L 85.317 346.928 L 101.208 352.163 L 108.229 353.710 L 109.984 353.609 L 118.917 349.509 L 127.686 350.346 L 138.978 358.846 L 142.436 358.694 L 151.867 361.462 L 159.856 362.232 L 174.283 367.242 L 217.330 376.618 L 221.111 378.894 L 222.675 382.040 L 218.089 394.584 L 222.889 394.584 L 227.462 382.026 L 225.888 378.878 L 222.096 376.614 L 173.730 366.116 L 160.228 361.163 L 152.227 360.494 L 142.786 357.689 L 138.477 357.556 L 128.264 348.854 L 119.464 347.997 L 109.771 352.572 L 108.031 352.688 L 87.324 346.691 L 86.727 345.476 L 92.174 332.272 L 93.686 326.191 L 102.928 301.790 L 109.259 303.556 L 114.572 302.720 L 123.118 299.915 L 130.983 295.542 L 134.822 291.855 L 140.182 278.555 L 141.607 278.368 L 147.423 280.523 L 154.542 280.094 L 171.997 271.610 L 175.291 277.742 L 177.613 280.458 L 189.909 285.901 L 197.359 292.371 L 202.183 294.362 L 206.275 291.079 L 213.238 278.463 L 215.430 275.947 L 218.556 277.417 L 220.957 282.216 L 226.529 287.969 L 228.281 294.832 L 229.932 296.861 L 234.370 299.864 L 236.322 305.733 L 237.820 307.878 L 241.078 309.313 L 243.742 309.436 L 254.780 305.860 L 259.465 308.148 L 267.533 321.035 L 279.019 332.190 L 278.706 336.507 L 279.633 339.963 L 286.972 352.298 L 289.743 354.533 L 292.228 355.333 L 300.584 352.195 L 300.584 356.995 L 292.235 360.127 L 287.665 357.651 L 277.291 340.959 L 276.401 337.509 L 277.173 332.469 L 264.597 320.988 L 259.980 312.302 L 257.555 309.714 L 254.371 308.373 L 242.471 312.258 L 236.625 310.142 L 235.214 307.936 L 233.711 300.986 L 228.095 296.697 L 225.309 288.277 L 219.859 282.392 L 217.341 277.741 L 215.840 277.327 L 214.569 278.301 L 205.621 293.882 L 202.856 296.102 L 201.177 296.211 L 195.755 293.161 L 189.130 287.107 L 177.665 282.037 L 175.186 279.467 L 172.356 273.854 L 171.100 273.132 L 155.231 281.159 L 147.266 281.579 L 140.838 279.455 L 135.484 292.757 L 131.694 296.496 L 124.766 300.680 L 117.182 303.484 L 109.212 304.768 L 103.729 303.149 L 94.604 326.623 L 93.388 331.850 L 88.080 344.265 L 88.468 345.682 L 101.028 350.118 L 108.037 351.675 L 119.367 346.665 L 128.188 347.332 L 130.537 348.605 L 139.009 356.475 L 146.871 357.535 L 151.921 359.381 L 160.791 360.128 L 174.204 365.245 L 190.113 368.054 L 226.910 376.614 L 230.692 378.886 L 232.256 382.037 L 227.689 394.584 L 232.489 394.584 L 237.091 382.893 L 235.469 378.866 L 231.692 376.576 L 189.590 366.794 L 174.531 364.336 L 161.172 359.075 L 152.291 358.379 L 147.232 356.580 L 139.368 355.464 L 131.015 347.423 L 127.845 345.818 L 119.024 345.411 L 109.515 350.478 L 107.799 350.662 L 90.600 345.471 L 89.240 344.120 L 94.510 331.672 L 99.730 315.432 L 104.454 304.816 L 110.143 305.971 L 115.497 305.229 L 120.727 303.896 L 127.256 300.862 L 135.735 294.277 L 141.313 281.218 L 142.839 281.019 L 147.011 282.650 L 154.974 282.418 L 170.839 274.508 L 176.778 282.900 L 187.463 287.591 L 195.413 294.843 L 201.669 298.284 L 204.052 297.323 L 205.935 295.415 L 214.772 279.718 L 216.431 278.339 L 219.522 283.670 L 224.415 288.862 L 227.242 297.311 L 232.676 301.777 L 233.713 308.832 L 235.166 312.047 L 238.271 313.715 L 243.492 314.881 L 253.463 310.854 L 256.688 311.864 L 261.234 320.400 L 266.294 325.531 L 275.481 332.748 L 273.994 338.515 L 275.269 342.796 L 276.479 345.193 L 280.169 349.092 L 287.696 362.388 L 292.223 364.922 L 300.584 361.795 L 300.584 366.595 L 292.222 369.717 L 287.643 367.246 L 284.265 359.920 L 281.469 356.428 L 279.089 351.587 L 274.200 346.376 L 272.601 343.155 L 271.529 338.834 L 273.240 333.110 L 264.741 326.671 L 258.951 320.994 L 254.604 313.494 L 243.116 317.387 L 233.947 314.215 L 232.554 310.987 L 231.482 302.163 L 226.658 298.328 L 223.242 289.133 L 218.423 283.871 L 216.274 279.978 L 205.982 297.247 L 204.117 299.177 L 201.751 300.165 L 194.768 296.228 L 186.943 288.824 L 176.304 284.077 L 171.016 275.951 L 155.221 283.586 L 147.276 283.767 L 143.085 282.227 L 141.767 282.464 L 136.143 295.473 L 127.677 302.122 L 121.192 305.246 L 116.849 306.408 L 109.693 307.126 L 104.840 305.918 L 99.641 318.330 L 90.814 344.244 L 100.877 348.074 L 107.879 349.642 L 118.991 344.095 L 127.798 344.257 L 131.670 346.436 L 136.377 351.871 L 139.910 354.439 L 146.915 355.473 L 151.994 357.232 L 156.423 357.060 L 161.728 358.046 L 174.129 363.246 L 184.699 365.427 L 190.054 365.753 L 198.683 368.313 L 235.674 376.300 L 239.702 378.202 L 241.837 382.021 L 241.750 383.750 L 237.289 394.584 L 242.089 394.585 L 246.682 382.928 L 245.212 378.819 L 241.747 376.149 L 198.629 367.312 L 190.073 364.620 L 184.744 364.420 L 174.203 362.274 L 161.914 356.951 L 156.636 355.912 L 152.223 356.231 L 147.164 354.487 L 140.175 353.439 L 136.719 350.789 L 131.451 344.682 L 128.481 342.699 L 118.848 342.810 L 107.845 348.630 L 100.864 347.063 L 92.151 343.088 L 104.938 307.975 L 106.308 307.434 L 110.567 308.307 L 117.727 307.729 L 123.697 305.797 L 128.401 303.178 L 136.729 296.381 L 142.734 283.590 L 147.664 284.868 L 155.560 284.721 L 169.077 277.671 L 170.512 277.741 L 176.186 285.486 L 186.043 289.759 L 195.166 298.349 L 202.174 301.938 L 204.467 300.777 L 206.751 298.024 L 215.964 281.990 L 222.425 289.795 L 225.852 298.977 L 230.455 303.000 L 231.202 312.768 L 232.524 316.010 L 235.622 317.724 L 243.215 319.865 L 251.740 317.220 L 253.161 317.426 L 263.041 327.625 L 270.579 332.495 L 271.022 334.711 L 269.059 339.643 L 270.100 343.967 L 272.694 348.685 L 276.913 351.927 L 280.019 358.303 L 283.163 361.419 L 287.082 371.405 L 288.996 373.252 L 292.247 374.512 L 300.585 371.394 L 300.585 376.194 L 292.248 379.311 L 288.958 378.126 L 286.988 376.359 L 284.669 371.522 L 282.082 362.944 L 278.049 359.606 L 275.560 353.105 L 270.855 350.985 L 267.596 344.651 L 266.575 340.338 L 269.126 334.698 L 268.410 332.614 L 260.723 328.001 L 252.346 319.878 L 242.255 322.297 L 233.960 319.380 L 231.051 317.406 L 229.746 313.186 L 229.351 303.361 L 224.793 299.329 L 221.327 290.104 L 215.840 284.159 L 206.072 300.859 L 204.238 302.803 L 201.900 303.777 L 194.213 299.439 L 185.210 290.719 L 175.396 286.362 L 169.810 278.739 L 155.587 285.903 L 147.709 285.977 L 142.900 285.100 L 137.424 297.111 L 126.279 306.108 L 116.998 309.313 L 109.825 309.456 L 105.809 308.645 L 101.277 319.385 L 93.449 342.796 L 101.405 346.227 L 107.498 347.560 L 118.420 341.683 L 128.035 340.914 L 131.079 342.608 L 136.849 349.469 L 140.221 352.269 L 152.284 355.187 L 156.677 354.737 L 162.808 356.042 L 170.743 360.160 L 175.025 361.474 L 184.687 363.396 L 190.002 363.473 L 198.500 366.295 L 235.462 373.897 L 243.418 374.423 L 248.860 377.458 L 251.235 381.214 L 251.336 383.785 L 246.889 394.585 L 251.689 394.585 L 256.138 383.777 L 256.024 381.206 L 252.961 376.874 L 244.116 372.516 L 241.528 371.950 L 235.451 372.866 L 198.459 365.298 L 190.015 362.364 L 184.710 362.378 L 175.043 360.484 L 171.600 359.489 L 162.885 354.924 L 156.767 353.562 L 151.537 354.022 L 140.328 351.078 L 137.025 348.151 L 131.489 341.090 L 128.438 339.388 L 118.836 340.211 L 107.207 346.596 L 101.099 345.127 L 94.775 342.084 L 102.279 319.427 L 106.204 310.384 L 117.401 310.799 L 126.676 307.527 L 138.276 297.656 L 143.626 286.554 L 155.529 287.189 L 169.724 280.465 L 175.008 287.457 L 184.754 291.951 L 193.628 300.826 L 202.081 305.579 L 204.402 304.503 L 206.203 302.517 L 216.134 286.338 L 220.331 290.479 L 224.344 300.423 L 228.190 303.965 L 228.611 314.644 L 230.400 319.607 L 242.622 324.820 L 249.313 322.435 L 251.757 322.397 L 259.141 328.950 L 266.967 333.336 L 267.225 334.593 L 264.183 339.862 L 264.714 344.217 L 268.616 353.152 L 274.064 355.353 L 276.501 361.737 L 280.882 364.431 L 285.095 380.789 L 292.242 384.111 L 300.585 380.995 L 300.584 385.795 L 292.232 388.912 L 284.723 386.103 L 281.733 384.216 L 280.081 380.131 L 281.668 375.175 L 279.816 366.423 L 278.769 365.134 L 274.697 363.457 L 271.465 358.230 L 266.202 355.053 L 262.072 344.262 L 261.541 340.767 L 265.086 334.805 L 264.798 333.551 L 257.596 329.859 L 250.562 324.452 L 242.289 327.084 L 232.321 323.183 L 229.339 321.226 L 227.389 314.426 L 227.107 304.634 L 223.456 300.937 L 219.433 290.950 L 216.318 287.830 L 206.263 304.293 L 202.117 307.413 L 192.902 302.145 L 183.491 292.544 L 173.789 287.912 L 169.052 281.684 L 154.793 288.543 L 144.416 287.317 L 138.521 298.943 L 126.993 308.950 L 117.757 312.332 L 106.770 311.638 L 103.202 319.710 L 99.691 331.752 L 96.242 340.064 L 96.314 341.661 L 101.774 344.331 L 107.873 345.395 L 118.550 338.863 L 123.864 338.777 L 128.138 337.794 L 131.397 339.112 L 137.354 346.973 L 140.609 349.959 L 151.785 353.009 L 156.100 352.328 L 163.090 353.846 L 174.324 359.328 L 184.880 361.367 L 189.308 361.137 L 198.582 364.341 L 234.735 371.731 L 237.371 371.814 L 241.355 369.904 L 243.943 370.295 L 256.217 375.896 L 259.570 378.803 L 260.810 381.191 L 260.943 383.765 L 256.489 394.584 L 261.289 394.584 L 265.744 383.760 L 265.600 381.186 L 264.354 378.799 L 260.197 375.477 L 243.802 368.040 L 241.214 367.803 L 237.574 370.329 L 235.084 370.768 L 198.907 363.429 L 189.670 360.149 L 184.368 360.298 L 173.817 358.200 L 163.500 352.833 L 156.538 351.112 L 152.261 351.992 L 141.066 349.013 L 137.850 345.983 L 132.099 337.971 L 128.918 336.416 L 118.456 337.480 L 107.073 344.436 L 101.833 343.332 L 97.335 340.938 L 104.171 319.885 L 107.020 313.297 L 109.232 312.763 L 118.045 313.907 L 126.491 310.906 L 139.275 299.603 L 144.057 289.968 L 145.186 288.989 L 155.454 289.594 L 168.913 283.182 L 173.771 289.259 L 182.655 293.531 L 191.926 303.271 L 201.841 309.211 L 203.434 308.791 L 206.037 306.352 L 215.649 290.091 L 216.980 289.882 L 218.678 291.737 L 222.327 300.929 L 226.240 305.537 L 226.849 318.983 L 229.140 323.700 L 242.280 329.410 L 248.723 326.721 L 250.318 326.746 L 255.375 330.336 L 262.561 333.965 L 262.544 335.293 L 259.880 338.803 L 258.992 341.305 L 261.790 352.454 L 264.367 358.113 L 269.108 360.503 L 273.122 365.215 L 277.301 366.794 L 278.357 367.988 L 279.683 374.848 L 276.585 377.880 L 275.512 380.252 L 278.377 387.655 L 281.388 389.523 L 292.228 393.712 L 301.000 390.422 L 301.000 393.856 L 295.205 395.000 L 283.616 395.000 L 277.821 389.831 L 277.416 374.516 L 269.952 379.621 L 265.422 375.757 L 243.376 365.618 L 240.816 365.836 L 235.184 369.751 L 199.936 362.658 L 194.198 360.179 L 188.984 358.959 L 184.569 359.303 L 174.034 357.251 L 162.912 351.556 L 156.861 349.947 L 151.759 350.824 L 141.432 347.973 L 138.266 344.869 L 132.627 336.802 L 129.538 335.069 L 118.198 336.092 L 107.026 343.383 L 101.825 342.304 L 98.800 340.604 L 105.292 319.582 L 107.939 314.014 L 112.159 314.164 L 117.295 315.559 L 126.611 312.449 L 139.916 300.418 L 145.345 290.391 L 150.524 289.989 L 155.660 290.781 L 168.339 284.655 L 173.659 290.491 L 182.461 294.864 L 191.500 304.841 L 202.137 311.182 L 204.409 310.049 L 206.149 307.999 L 215.430 292.617 L 217.174 291.416 L 221.767 302.031 L 224.766 305.183 L 225.787 320.289 L 227.927 325.081 L 242.567 331.689 L 249.813 328.968 L 260.105 334.366 L 260.215 335.500 L 257.514 338.855 L 256.453 342.196 L 260.649 358.496 L 262.113 360.658 L 267.919 362.917 L 271.633 366.725 L 276.360 369.101 L 277.741 372.308 L 275.639 372.688 L 271.367 375.253 L 269.720 375.592 L 242.807 363.140 L 239.642 364.509 L 236.007 368.377 L 233.487 368.485 L 199.943 361.651 L 194.214 359.106 L 188.984 357.903 L 184.562 358.264 L 174.873 356.454 L 165.423 351.360 L 156.859 348.734 L 151.773 349.749 L 143.138 347.467 L 139.598 344.894 L 133.490 336.027 L 129.755 333.651 L 118.352 334.579 L 107.368 342.341 L 102.171 341.418 L 99.996 340.196 L 99.848 338.712 L 108.059 315.963 L 111.234 315.218 L 118.048 317.035 L 127.274 313.584 L 141.034 300.650 L 146.232 291.617 L 150.507 291.112 L 155.628 291.999 L 168.280 285.974 L 172.996 291.327 L 181.713 295.917 L 190.637 306.014 L 201.892 313.269 L 205.429 310.972 L 216.819 293.236 L 221.031 302.628 L 224.097 306.785 L 224.792 322.048 L 226.654 326.031 L 237.279 330.786 L 241.761 333.708 L 243.431 333.726 L 249.878 331.059 L 258.042 334.710 L 254.542 340.032 L 253.941 342.592 L 256.133 350.347 L 257.001 358.332 L 259.974 362.710 L 266.717 365.070 L 270.754 368.499 L 274.746 370.531 L 271.394 373.206 L 268.942 373.256 L 244.137 360.521 L 241.666 360.710 L 236.182 366.583 L 233.976 367.563 L 199.600 360.558 L 194.757 358.229 L 189.560 356.896 L 184.267 357.146 L 174.608 355.347 L 165.197 350.160 L 157.544 347.623 L 151.608 348.749 L 143.862 346.617 L 140.288 344.097 L 133.611 334.560 L 129.880 332.220 L 118.489 333.111 L 106.854 341.244 L 101.176 339.655 L 101.109 338.046 L 108.616 316.954 L 111.779 316.434 L 118.502 318.433 L 127.654 314.837 L 141.341 301.856 L 145.591 293.980 L 147.605 292.548 L 150.252 292.253 L 155.334 293.244 L 167.997 287.602 L 172.130 291.990 L 180.765 296.724 L 189.507 306.946 L 202.044 315.359 L 205.527 312.972 L 215.390 296.864 L 217.084 295.776 L 220.189 303.174 L 222.918 306.527 L 223.647 322.661 L 225.408 326.700 L 236.622 332.243 L 242.329 336.376 L 249.116 332.682 L 255.329 335.181 L 252.115 340.062 L 251.435 342.606 L 253.701 352.132 L 253.171 356.542 L 253.721 359.096 L 257.415 364.114 L 265.786 367.174 L 270.919 370.646 L 271.326 388.960 L 265.916 395.000 L 255.096 395.000 L 249.686 385.936 L 249.370 358.787 L 244.781 357.173 L 241.520 357.522 L 235.690 365.451 L 233.572 366.493 L 200.909 359.826 L 194.336 356.953 L 189.112 355.726 L 184.703 356.123 L 175.012 354.416 L 165.578 349.243 L 157.957 346.584 L 156.241 346.340 L 152.043 347.633 L 143.432 345.441 L 140.221 342.382 L 134.112 333.520 L 129.655 330.714 L 118.266 331.682 L 106.776 340.128 L 103.307 339.693 L 102.136 338.825 L 109.463 318.076 L 111.878 317.628 L 118.573 319.830 L 126.977 316.777 L 142.043 302.609 L 147.567 293.644 L 150.211 293.412 L 155.291 294.462 L 167.359 289.023 L 172.684 293.648 L 179.790 297.485 L 188.384 307.846 L 200.608 317.034 L 202.204 317.466 L 205.647 314.969 L 215.434 298.783 L 217.209 298.485 L 222.019 307.901 L 222.527 323.175 L 224.221 327.256 L 235.966 333.768 L 238.904 337.084 L 241.211 338.462 L 244.543 338.212 L 249.201 334.233 L 250.902 334.350 L 253.079 335.740 L 250.015 339.606 L 249.055 342.088 L 249.359 348.350 L 250.992 352.468 L 249.592 356.571 L 247.360 354.088 L 241.546 354.440 L 239.612 356.222 L 237.511 361.157 L 234.167 365.184 L 201.687 358.933 L 189.942 354.749 L 184.677 354.980 L 175.029 353.327 L 166.404 348.547 L 158.026 345.375 L 156.294 345.167 L 152.148 346.527 L 144.420 344.667 L 141.091 341.800 L 134.395 332.284 L 129.976 329.351 L 124.764 330.221 L 118.618 329.947 L 106.541 339.089 L 104.111 338.646 L 103.402 337.411 L 110.143 319.093 L 111.707 318.788 L 118.353 321.245 L 126.818 318.451 L 143.083 302.994 L 148.206 294.766 L 154.984 295.770 L 166.365 290.682 L 167.770 290.742 L 172.536 294.806 L 179.495 298.801 L 187.241 308.688 L 201.472 319.433 L 203.095 319.293 L 205.191 317.661 L 215.417 300.760 L 216.591 300.407 L 220.816 307.789 L 221.490 323.859 L 223.254 327.904 L 234.729 334.803 L 237.438 338.259 L 242.036 340.943 L 244.558 340.558 L 248.888 336.172 L 250.494 336.106 L 246.549 342.533 L 246.416 348.794 L 247.780 352.078 L 242.832 351.261 L 240.497 352.567 L 238.700 354.525 L 236.199 361.195 L 233.217 364.185 L 201.537 357.835 L 195.001 354.862 L 189.812 353.523 L 184.541 353.787 L 175.737 352.452 L 166.246 347.406 L 157.884 344.130 L 152.010 345.448 L 144.317 343.440 L 139.522 338.168 L 135.038 331.472 L 129.936 327.944 L 124.714 328.779 L 118.548 328.460 L 115.417 330.190 L 106.672 337.922 L 104.808 337.369 L 110.499 320.563 L 111.818 320.000 L 118.444 322.644 L 126.942 319.911 L 143.818 303.742 L 147.723 296.682 L 149.087 295.730 L 154.953 296.969 L 166.356 291.946 L 167.729 292.136 L 171.860 295.590 L 178.094 299.129 L 186.357 309.746 L 198.893 319.959 L 202.028 321.398 L 205.629 319.074 L 215.319 302.857 L 216.328 302.419 L 219.963 309.076 L 220.343 323.443 L 221.674 327.698 L 233.352 335.806 L 236.149 339.177 L 243.834 344.515 L 243.553 349.645 L 240.361 349.194 L 237.522 353.747 L 235.839 359.782 L 233.032 363.040 L 202.224 356.902 L 194.024 353.250 L 189.665 352.304 L 184.394 352.563 L 180.061 351.405 L 175.614 351.301 L 166.886 346.650 L 157.738 342.944 L 151.869 344.312 L 145.050 342.521 L 140.180 337.351 L 135.673 330.662 L 129.878 326.607 L 117.627 327.336 L 114.596 329.226 L 107.490 336.117 L 105.893 336.560 L 110.826 322.131 L 112.963 321.680 L 119.605 324.060 L 127.934 320.762 L 144.648 304.383 L 149.206 296.935 L 155.086 298.089 L 167.317 293.196 L 177.650 300.287 L 185.106 310.425 L 198.210 321.370 L 201.348 323.103 L 203.756 322.440 L 205.775 320.673 L 215.041 305.246 L 216.431 304.346 L 218.860 309.029 L 219.291 323.395 L 220.464 327.705 L 222.111 329.783 L 227.519 332.979 L 232.176 337.116 L 240.856 345.840 L 240.401 347.227 L 238.655 348.216 L 236.781 352.268 L 234.555 359.956 L 231.999 361.998 L 203.733 356.216 L 194.692 352.207 L 189.472 350.966 L 185.078 351.389 L 180.736 350.272 L 175.437 350.074 L 157.527 341.693 L 151.660 343.310 L 145.666 341.567 L 140.785 336.444 L 136.828 330.450 L 132.865 326.786 L 129.645 325.263 L 124.359 325.907 L 122.476 325.037 L 128.344 321.941 L 132.973 317.660 L 145.662 304.856 L 149.306 298.682 L 154.922 299.351 L 165.618 294.649 L 167.948 295.201 L 176.237 300.609 L 184.231 311.442 L 197.259 322.498 L 201.182 324.576 L 203.615 324.150 L 206.263 321.737 L 215.993 306.150 L 217.781 309.660 L 218.310 324.011 L 220.065 329.071 L 226.626 333.628 L 229.465 337.077 L 235.756 342.052 L 238.378 345.681 L 234.980 353.598 L 233.961 358.867 L 232.195 360.663 L 204.894 355.464 L 193.321 350.552 L 175.799 349.057 L 157.887 340.640 L 151.989 342.133 L 146.055 340.475 L 141.196 335.292 L 136.564 328.674 L 133.175 325.707 L 129.963 324.124 L 129.417 322.948 L 146.300 305.743 L 150.040 299.853 L 154.902 300.547 L 165.617 295.863 L 167.983 296.524 L 175.511 301.453 L 183.360 312.416 L 190.527 317.872 L 197.030 324.106 L 201.852 326.342 L 204.204 325.302 L 206.754 322.767 L 214.689 309.663 L 216.204 308.315 L 217.322 324.351 L 219.109 329.421 L 220.897 331.393 L 226.234 334.678 L 228.588 338.452 L 234.504 342.455 L 236.582 345.327 L 234.034 352.794 L 233.151 358.085 L 231.523 359.861 L 205.049 354.471 L 193.607 349.363 L 189.235 348.467 L 184.842 348.881 L 180.504 347.747 L 176.111 348.008 L 158.235 339.606 L 156.492 339.502 L 152.311 341.090 L 147.235 339.652 L 145.081 338.280 L 136.907 327.591 L 130.985 322.798 L 147.291 306.255 L 150.786 301.170 L 154.911 301.739 L 165.614 297.073 L 167.217 297.352 L 174.769 302.187 L 182.369 313.284 L 189.527 318.729 L 195.947 325.028 L 201.513 327.937 L 203.894 327.054 L 207.111 323.931 L 215.078 311.598 L 216.224 316.521 L 216.339 324.613 L 218.596 330.450 L 225.105 335.070 L 227.559 339.698 L 234.924 344.563 L 234.797 348.333 L 232.988 352.440 L 232.198 357.741 L 230.919 358.583 L 205.404 353.533 L 200.828 350.828 L 193.241 348.045 L 188.883 347.218 L 184.478 347.578 L 180.150 346.510 L 175.795 346.727 L 157.902 338.407 L 151.982 339.920 L 147.756 338.667 L 145.604 337.243 L 138.601 327.924 L 132.911 322.697 L 138.594 315.995 L 148.368 306.696 L 150.778 303.049 L 155.518 302.754 L 166.211 298.319 L 173.838 302.737 L 181.227 313.955 L 188.359 319.415 L 195.431 326.316 L 200.963 329.236 L 202.624 329.321 L 206.139 326.570 L 209.499 322.354 L 212.974 316.052 L 214.555 314.960 L 215.197 316.418 L 215.480 325.382 L 217.878 331.186 L 224.323 335.847 L 226.338 340.609 L 233.408 344.388 L 233.658 348.073 L 231.727 353.060 L 231.383 356.627 L 230.268 357.468 L 205.659 352.591 L 201.356 349.541 L 193.715 346.898 L 188.478 345.942 L 184.949 346.387 L 180.605 345.291 L 176.255 345.737 L 158.361 337.386 L 151.551 338.855 L 146.637 336.824 L 140.193 328.196 L 134.693 322.419 L 139.595 316.416 L 148.849 307.865 L 151.469 304.242 L 155.529 303.944 L 166.213 299.527 L 173.663 304.176 L 180.945 315.466 L 187.431 320.309 L 194.471 327.256 L 200.759 330.720 L 202.433 330.920 L 206.000 328.232 L 213.960 317.002 L 214.462 325.348 L 217.242 331.962 L 223.001 336.100 L 225.309 341.528 L 231.037 344.077 L 232.583 347.022 L 230.299 355.425 L 229.384 356.445 L 206.549 351.740 L 202.587 348.399 L 194.057 345.746 L 180.124 344.040 L 175.819 344.457 L 158.853 336.388 L 157.105 336.250 L 152.877 337.671 L 150.365 337.231 L 147.183 335.743 L 136.292 322.017 L 151.627 306.019 L 155.593 305.120 L 166.204 300.710 L 172.886 304.877 L 179.933 316.263 L 186.387 321.101 L 193.398 328.033 L 199.537 331.730 L 202.030 332.405 L 205.038 330.653 L 212.948 320.608 L 213.684 326.163 L 216.571 332.712 L 222.121 336.931 L 222.891 340.208 L 224.418 342.336 L 229.329 344.411 L 229.178 345.410 L 231.344 346.837 L 229.326 354.306 L 228.443 355.316 L 206.463 350.702 L 202.986 346.826 L 194.416 344.574 L 189.184 343.523 L 184.792 343.873 L 180.456 342.775 L 176.167 343.450 L 159.199 335.339 L 151.486 336.584 L 146.986 333.872 L 137.696 322.119 L 140.844 318.067 L 152.599 307.051 L 166.392 301.727 L 172.301 305.699 L 179.137 317.234 L 185.576 322.106 L 192.618 329.027 L 198.713 332.825 L 201.171 333.814 L 203.613 333.236 L 212.257 324.804 L 215.657 333.100 L 220.493 336.937 L 222.777 342.406 L 226.645 344.495 L 226.562 345.521 L 230.197 347.633 L 228.682 352.609 L 227.137 354.036 L 207.748 349.940 L 202.173 344.633 L 197.769 344.464 L 189.100 342.304 L 184.687 342.599 L 180.345 341.549 L 176.045 342.253 L 159.894 334.420 L 157.264 334.116 L 152.989 335.474 L 150.441 335.018 L 147.602 332.945 L 139.037 321.833 L 153.326 308.422 L 166.389 302.852 L 171.494 306.437 L 178.222 318.086 L 183.976 322.424 L 191.758 329.930 L 198.617 334.264 L 202.742 335.245 L 211.764 327.397 L 215.346 334.424 L 219.624 337.647 L 220.386 340.819 L 221.850 343.069 L 224.029 344.575 L 223.724 345.507 L 227.941 347.039 L 228.982 348.125 L 228.033 351.363 L 226.291 352.835 L 207.843 348.942 L 204.890 344.692 L 201.926 342.881 L 198.465 343.272 L 188.951 341.033 L 185.441 341.417 L 180.227 340.303 L 175.959 341.099 L 169.326 338.435 L 159.894 333.281 L 151.289 334.168 L 147.208 330.856 L 140.420 321.829 L 147.250 314.904 L 154.301 309.433 L 166.388 303.997 L 170.737 307.085 L 177.258 318.810 L 190.694 330.672 L 198.240 335.542 L 201.489 337.046 L 203.100 336.611 L 211.281 328.985 L 214.652 335.169 L 217.951 338.085 L 221.739 345.398 L 227.630 348.364 L 226.655 351.279 L 225.106 351.476 L 208.489 347.980 L 205.012 343.036 L 202.025 341.242 L 197.770 341.916 L 189.118 339.814 L 184.723 340.107 L 180.400 339.056 L 175.271 339.865 L 160.089 332.201 L 151.453 333.085 L 147.503 329.579 L 141.869 321.901 L 147.997 315.667 L 155.144 310.295 L 166.389 305.146 L 170.489 308.481 L 174.825 317.359 L 176.991 320.199 L 189.750 331.490 L 199.571 337.808 L 202.014 338.622 L 203.584 337.980 L 210.410 330.856 L 211.490 331.104 L 213.830 335.771 L 216.930 338.912 L 220.039 344.276 L 220.327 382.405 L 215.082 395.000 L 204.592 395.000 L 199.347 381.373 L 198.912 340.532 L 189.339 338.548 L 184.924 338.893 L 180.561 337.796 L 175.412 338.715 L 170.356 336.833 L 160.150 331.102 L 151.480 331.917 L 147.683 328.107 L 143.524 321.723 L 148.405 316.744 L 156.373 310.876 L 166.044 306.334 L 169.530 308.846 L 175.919 320.739 L 189.395 332.755 L 199.194 339.246 L 202.665 339.653 L 204.027 339.398 L 211.175 332.274 L 213.019 336.336 L 219.209 344.911 L 226.447 349.278 L 225.067 350.487 L 210.179 347.458 L 208.077 346.139 L 204.612 341.007 L 196.995 338.799 L 180.190 336.558 L 175.091 337.588 L 170.882 336.030 L 159.966 329.907 L 152.997 331.040 L 151.486 330.438 L 148.386 327.253 L 144.910 321.562 L 149.494 317.265 L 157.472 311.563 L 164.600 307.744 L 167.006 307.814 L 169.349 310.427 L 175.135 321.540 L 187.033 332.466 L 193.586 337.185 L 180.433 335.308 L 175.367 336.554 L 171.138 335.088 L 160.305 328.837 L 152.544 329.674 L 149.268 326.654 L 146.310 322.261 L 149.654 318.554 L 157.564 312.826 L 164.607 308.882 L 166.222 308.708 L 168.159 310.320 L 174.311 322.234 L 187.403 334.733 L 184.043 335.036 L 180.623 334.073 L 175.590 335.461 L 172.995 334.790 L 160.571 327.768 L 152.802 328.451 L 147.724 322.343 L 149.810 319.876 L 159.170 313.153 L 164.617 310.039 L 166.218 309.876 L 167.859 311.741 L 173.488 322.914 L 184.447 333.488 L 180.638 331.867 L 176.426 334.012 L 173.842 333.986 L 161.376 326.881 L 153.531 327.220 L 149.357 322.671 L 150.561 320.732 L 156.699 316.982 L 159.215 314.456 L 164.625 311.228 L 166.101 311.196 L 172.235 322.975 L 179.169 330.041 L 178.047 331.810 L 175.824 333.023 L 173.206 332.716 L 161.528 325.783 L 154.417 326.191 L 151.166 323.392 L 151.774 321.304 L 157.208 318.058 L 160.477 314.976 L 165.194 312.484 L 166.897 314.034 L 171.614 323.838 L 177.223 329.767 L 176.753 331.024 L 175.328 331.914 L 173.610 331.797 L 161.931 324.818 L 154.855 324.825 L 152.622 323.434 L 153.560 321.519 L 157.503 319.247 L 161.514 315.634 L 165.305 313.827 L 170.688 324.266 L 175.468 329.946 L 172.900 330.318 L 161.455 323.456 L 154.567 323.341 L 154.789 322.328 L 161.610 316.892 L 165.227 315.162 L 169.402 324.026 L 173.000 328.541" fill="none" stroke="black" stroke-width="1.000" stroke-linecap="round" stroke-linejoin="round"/></svg>