<svg xmlns="http://www.w3.org/2000/svg" viewBox="0 0 396 264"><path d="M 0.000 43.400 L 10.836 38.403 L 16.817 31.850 L 21.982 20.607 L 25.413 17.811 L 37.808 10.919 L 42.325 0.430 L 46.000 -0.000 L 47.123 0.435 L 46.720 2.158 L 41.534 12.589 L 27.051 19.735 L 23.491 22.400 L 18.044 36.659 L 15.448 40.304 L 12.851 42.766 L 0.416 48.028 L 0.420 52.826 L 16.186 45.907 L 19.888 39.712 L 22.105 31.863 L 25.603 23.559 L 28.552 21.454 L 40.404 16.843 L 44.280 14.495 L 47.907 10.518 L 51.922 0.439 L 56.724 0.433 L 52.782 10.357 L 48.692 15.050 L 41.778 19.125 L 31.536 22.284 L 27.145 25.269 L 23.698 33.483 L 22.706 39.593 L 17.418 49.822 L 14.461 51.780 L 0.413 57.629 L 0.417 62.427 L 16.148 55.652 L 19.101 52.321 L 22.207 44.849 L 25.238 40.410 L 25.596 34.351 L 29.309 26.244 L 33.921 23.495 L 42.729 21.888 L 50.329 17.101 L 57.068 11.206 L 61.523 0.436 L 66.324 0.435 L 62.760 9.605 L 58.720 14.358 L 44.076 24.602 L 34.557 25.490 L 30.254 28.605 L 27.878 34.365 L 28.948 38.545 L 28.597 40.226 L 24.209 45.771 L 18.087 58.732 L 14.535 61.358 L 0.416 67.228 L 0.416 72.028 L 15.353 65.733 L 19.412 62.261 L 25.666 48.350 L 29.354 44.512 L 31.575 40.608 L 31.946 38.102 L 30.205 34.229 L 32.399 29.423 L 37.151 27.031 L 42.064 28.451 L 45.383 27.293 L 50.390 22.212 L 65.498 12.547 L 67.556 9.619 L 71.123 0.435 L 75.924 0.435 L 72.348 9.603 L 68.280 14.334 L 51.933 23.672 L 47.431 29.203 L 45.239 30.740 L 41.902 31.690 L 37.319 29.318 L 33.622 31.562 L 32.881 33.904 L 35.082 37.676 L 34.908 40.179 L 31.280 46.390 L 25.689 53.345 L 21.278 63.949 L 16.111 70.086 L 0.416 76.828 L 0.415 81.628 L 14.523 75.752 L 18.599 72.374 L 21.065 67.592 L 25.335 61.849 L 26.146 57.602 L 32.642 49.084 L 37.666 40.588 L 38.249 38.068 L 35.757 33.580 L 36.002 32.393 L 37.404 32.129 L 41.792 35.005 L 46.707 33.312 L 53.416 25.090 L 69.250 16.736 L 75.002 12.448 L 77.533 8.781 L 80.724 0.434 L 85.522 0.437 L 82.303 8.841 L 79.673 12.464 L 74.587 16.225 L 54.625 26.716 L 49.588 35.126 L 40.926 39.352 L 34.823 50.340 L 30.497 56.051 L 27.814 62.645 L 22.642 68.907 L 17.551 78.437 L 14.627 80.506 L 0.418 86.427 L 0.415 91.228 L 14.511 85.368 L 18.695 82.156 L 23.857 70.708 L 31.420 61.893 L 33.522 56.074 L 36.304 52.633 L 42.208 41.662 L 51.875 37.282 L 54.666 29.824 L 56.387 27.863 L 77.995 17.146 L 83.777 12.896 L 86.733 9.573 L 90.324 0.434 L 95.124 0.433 L 91.560 9.565 L 89.316 12.307 L 79.802 18.994 L 73.857 20.883 L 58.150 29.189 L 56.547 31.144 L 56.023 35.536 L 53.848 39.358 L 43.978 43.049 L 36.056 56.856 L 34.227 62.637 L 25.540 71.628 L 19.966 85.687 L 15.284 89.778 L 0.414 96.029 L 0.418 100.827 L 14.621 94.912 L 18.176 92.221 L 24.040 84.265 L 24.991 78.097 L 26.965 73.069 L 37.721 62.219 L 38.710 58.054 L 45.653 44.469 L 51.592 42.941 L 56.340 40.474 L 58.963 35.770 L 59.380 30.761 L 64.833 27.609 L 71.563 25.039 L 74.409 22.913 L 81.261 20.804 L 92.756 13.667 L 96.313 9.653 L 99.923 0.437 L 104.723 0.435 L 100.682 10.383 L 96.200 14.766 L 83.808 21.942 L 75.360 24.950 L 71.820 27.565 L 62.821 31.424 L 61.774 32.522 L 62.073 34.947 L 61.345 37.493 L 58.280 41.919 L 55.270 43.790 L 46.968 46.451 L 42.352 56.028 L 41.059 61.911 L 28.396 74.552 L 27.045 78.792 L 27.242 84.003 L 21.496 90.781 L 18.676 96.390 L 15.355 99.334 L 0.416 105.628 L 0.417 110.427 L 14.586 104.527 L 18.083 101.777 L 22.791 92.126 L 28.164 87.362 L 30.195 84.422 L 30.590 82.755 L 29.247 78.573 L 29.929 76.034 L 44.097 62.344 L 44.797 59.864 L 44.554 56.427 L 48.311 48.443 L 59.092 44.290 L 63.745 38.828 L 65.907 32.511 L 71.787 30.360 L 77.003 26.914 L 95.763 18.310 L 102.407 13.658 L 105.935 9.636 L 109.523 0.436 L 114.324 0.433 L 110.767 9.564 L 106.700 14.257 L 97.615 19.972 L 79.007 28.589 L 74.074 32.291 L 69.238 34.531 L 65.697 40.506 L 60.856 45.753 L 49.485 50.580 L 46.839 56.160 L 47.868 60.300 L 46.466 63.550 L 44.912 65.724 L 39.839 69.356 L 31.654 77.477 L 31.686 79.075 L 33.460 82.131 L 33.262 84.577 L 30.662 88.189 L 24.377 93.143 L 18.132 106.911 L 14.482 109.384 L 0.414 115.229 L 0.417 120.027 L 16.231 113.370 L 19.657 110.528 L 25.758 94.660 L 32.205 89.904 L 36.291 85.188 L 36.768 82.654 L 34.299 78.917 L 34.589 77.637 L 40.877 71.354 L 46.184 68.023 L 49.781 62.851 L 50.681 60.388 L 49.197 55.530 L 50.952 52.518 L 61.542 47.896 L 67.306 42.237 L 70.864 37.078 L 75.716 34.857 L 79.753 31.297 L 83.930 29.700 L 109.205 15.950 L 115.083 10.417 L 119.123 0.436 L 123.923 0.437 L 120.322 9.645 L 116.092 14.263 L 110.073 18.265 L 81.713 33.651 L 77.854 37.305 L 72.164 39.897 L 63.477 48.974 L 52.332 54.701 L 51.856 56.097 L 53.517 60.103 L 52.136 64.312 L 47.058 70.574 L 42.318 73.115 L 37.860 77.579 L 37.456 79.050 L 39.580 83.729 L 38.563 87.145 L 36.501 90.016 L 27.515 95.882 L 24.401 104.291 L 23.713 109.593 L 21.867 113.681 L 16.230 118.125 L 0.418 124.827 L 0.415 129.628 L 16.125 122.994 L 24.505 116.293 L 27.088 109.661 L 26.926 103.587 L 28.804 97.595 L 30.734 95.902 L 37.365 93.239 L 39.355 91.472 L 42.172 83.993 L 40.333 78.591 L 43.277 75.478 L 48.693 72.394 L 54.116 66.511 L 56.294 60.646 L 55.092 57.394 L 55.607 56.035 L 64.726 50.585 L 73.713 41.928 L 80.391 39.523 L 83.375 36.295 L 87.416 34.379 L 90.062 32.028 L 118.079 16.312 L 124.706 10.354 L 128.724 0.434 L 133.524 0.434 L 129.486 10.345 L 124.942 14.631 L 119.812 18.250 L 100.717 28.166 L 82.250 41.777 L 74.766 44.412 L 66.129 52.095 L 59.313 56.309 L 58.345 57.597 L 58.702 61.727 L 56.099 68.392 L 51.155 73.498 L 43.407 79.161 L 44.818 83.971 L 41.117 93.981 L 38.240 96.025 L 30.725 98.400 L 29.392 102.643 L 30.710 108.534 L 27.088 118.593 L 16.126 127.782 L 0.415 134.428 L 0.415 139.228 L 16.916 132.161 L 29.432 120.707 L 32.577 114.279 L 33.986 108.178 L 32.008 100.787 L 40.044 98.065 L 42.891 95.979 L 47.385 84.313 L 46.665 80.158 L 57.986 70.501 L 61.383 61.300 L 61.260 58.007 L 62.993 56.141 L 67.672 53.526 L 75.799 46.594 L 82.544 44.446 L 86.774 41.179 L 91.642 38.941 L 93.964 36.285 L 103.129 29.351 L 126.025 17.120 L 133.783 11.086 L 138.324 0.434 L 143.123 0.436 L 139.523 9.631 L 135.144 14.077 L 127.646 19.075 L 110.648 27.351 L 103.099 32.245 L 99.680 36.309 L 93.976 40.492 L 87.363 43.261 L 83.280 46.691 L 77.320 48.528 L 65.090 57.509 L 60.105 72.401 L 49.674 80.532 L 49.799 85.345 L 44.456 97.742 L 36.296 102.766 L 37.312 107.571 L 36.123 113.764 L 31.976 122.733 L 27.711 125.951 L 16.967 136.849 L 0.417 144.027 L 0.415 148.828 L 16.868 141.711 L 29.918 128.247 L 34.886 124.612 L 39.287 114.834 L 40.532 106.966 L 39.962 103.770 L 44.317 101.075 L 46.023 99.077 L 52.624 85.384 L 52.726 81.312 L 57.221 78.709 L 62.413 73.842 L 67.634 58.764 L 78.204 50.671 L 84.135 48.993 L 88.667 44.873 L 93.710 43.094 L 101.467 38.768 L 105.291 33.992 L 114.000 27.766 L 130.277 20.353 L 140.753 13.460 L 144.359 9.576 L 147.924 0.433 L 152.724 0.434 L 149.142 9.584 L 145.530 13.502 L 131.011 22.396 L 117.765 27.921 L 107.312 36.251 L 104.010 40.380 L 89.298 46.724 L 85.121 51.257 L 78.469 53.382 L 70.422 60.259 L 64.610 75.171 L 59.617 80.220 L 55.890 82.530 L 54.764 86.537 L 47.009 101.625 L 43.737 104.382 L 42.276 116.285 L 40.079 122.173 L 37.266 126.753 L 32.402 130.521 L 27.428 136.874 L 23.151 140.094 L 16.887 146.492 L 0.415 153.628 L 0.416 158.428 L 17.707 150.796 L 22.290 145.297 L 29.339 139.723 L 34.906 132.672 L 39.125 129.474 L 41.627 125.745 L 43.925 119.873 L 45.113 115.538 L 45.113 110.227 L 50.169 99.154 L 52.757 95.519 L 58.390 84.257 L 66.305 77.210 L 70.031 69.018 L 70.712 64.620 L 72.053 62.326 L 75.035 60.401 L 77.772 56.943 L 85.187 54.322 L 90.532 48.392 L 106.206 41.782 L 112.900 35.864 L 116.889 31.160 L 133.912 22.988 L 150.223 13.468 L 153.917 9.610 L 157.523 0.436 L 162.323 0.436 L 158.707 9.621 L 155.616 12.831 L 136.119 24.044 L 122.315 30.589 L 117.905 33.655 L 115.041 38.095 L 107.876 43.506 L 92.077 49.959 L 85.652 57.349 L 79.781 59.147 L 76.857 62.331 L 73.071 64.609 L 72.358 69.790 L 68.178 78.784 L 63.355 84.069 L 59.820 86.616 L 51.938 100.672 L 50.767 105.905 L 47.913 110.455 L 47.049 118.356 L 41.874 130.799 L 36.558 135.469 L 30.523 143.311 L 23.836 147.826 L 21.487 151.637 L 17.638 155.427 L 0.417 163.227 L 0.415 168.028 L 16.781 160.737 L 24.104 152.919 L 26.576 149.233 L 34.025 144.358 L 38.521 137.668 L 42.046 134.958 L 45.420 130.784 L 50.251 116.458 L 50.688 111.185 L 53.758 105.850 L 54.058 101.479 L 61.503 88.237 L 65.310 86.067 L 70.572 79.984 L 74.706 70.081 L 75.316 65.912 L 81.061 62.071 L 87.526 59.283 L 93.435 51.619 L 110.036 45.047 L 118.030 39.372 L 120.296 35.575 L 125.052 31.559 L 137.884 25.464 L 160.520 12.816 L 163.539 9.581 L 167.124 0.434 L 171.924 0.433 L 168.355 9.570 L 165.449 12.902 L 134.652 29.011 L 131.896 31.203 L 126.939 33.157 L 120.163 41.291 L 115.515 43.882 L 111.575 47.446 L 102.945 49.600 L 94.731 53.160 L 92.316 55.717 L 89.603 61.245 L 82.262 64.526 L 77.946 67.438 L 73.082 81.635 L 67.611 87.499 L 62.438 90.772 L 56.931 101.020 L 56.257 106.945 L 53.244 112.249 L 52.628 116.587 L 50.374 122.437 L 50.530 127.701 L 49.058 130.925 L 40.417 139.887 L 36.218 146.708 L 29.340 150.878 L 26.527 154.294 L 21.565 158.101 L 16.756 165.559 L 0.414 172.828 L 0.416 177.628 L 17.639 169.918 L 22.838 159.566 L 28.153 156.247 L 31.384 153.159 L 38.431 149.205 L 42.662 141.338 L 52.061 131.770 L 54.004 127.783 L 52.863 121.870 L 55.586 113.354 L 59.120 106.173 L 59.054 101.895 L 64.508 91.588 L 72.359 87.348 L 74.770 84.748 L 76.189 81.453 L 77.271 75.266 L 79.980 68.663 L 83.690 66.220 L 91.211 63.342 L 95.768 54.901 L 104.019 51.415 L 109.363 51.547 L 112.705 50.342 L 116.865 45.750 L 122.352 42.841 L 128.610 35.385 L 151.729 22.059 L 168.796 14.098 L 173.126 9.608 L 176.723 0.435 L 181.523 0.436 L 177.469 10.399 L 171.280 15.550 L 153.239 23.607 L 145.829 28.585 L 137.687 32.408 L 134.493 35.526 L 129.862 38.178 L 123.815 44.752 L 118.267 47.629 L 115.700 51.274 L 112.956 53.577 L 109.624 54.777 L 104.477 53.575 L 97.777 56.154 L 96.478 57.250 L 94.953 62.382 L 93.012 65.303 L 85.281 67.627 L 82.180 69.428 L 79.283 75.889 L 78.571 83.035 L 76.768 87.132 L 74.755 88.861 L 65.887 93.145 L 62.022 100.238 L 61.338 102.777 L 61.643 106.188 L 57.702 114.216 L 55.114 121.870 L 57.147 127.528 L 55.562 131.628 L 44.474 143.325 L 40.831 151.452 L 24.597 160.623 L 22.312 164.404 L 21.370 169.682 L 19.564 172.733 L 15.385 176.122 L 0.417 182.427 L 0.415 187.228 L 16.822 180.016 L 23.664 171.833 L 24.494 169.318 L 24.044 164.999 L 25.285 162.671 L 30.134 160.669 L 33.511 157.834 L 38.524 156.021 L 43.834 152.807 L 46.923 144.577 L 57.893 132.886 L 59.643 129.772 L 59.964 127.222 L 57.565 121.672 L 59.915 114.997 L 64.442 106.362 L 64.157 100.514 L 67.680 94.309 L 77.476 89.990 L 79.406 88.193 L 81.292 83.192 L 81.232 76.086 L 83.245 71.192 L 86.275 69.365 L 91.552 68.486 L 94.725 66.875 L 99.631 57.716 L 103.773 56.006 L 109.534 57.755 L 113.686 56.324 L 119.658 49.754 L 125.031 46.597 L 132.166 39.867 L 136.066 37.763 L 139.452 33.687 L 146.893 30.559 L 155.026 25.174 L 171.510 18.150 L 179.150 13.502 L 182.744 9.579 L 186.324 0.434 L 191.124 0.434 L 187.534 9.584 L 183.216 14.054 L 173.091 19.777 L 156.584 26.835 L 148.445 32.288 L 141.840 35.081 L 137.920 39.813 L 132.420 42.706 L 127.250 47.679 L 122.104 51.260 L 114.610 58.915 L 109.573 60.550 L 104.583 58.662 L 102.962 58.926 L 100.914 60.456 L 99.125 64.559 L 95.944 68.836 L 91.079 71.095 L 86.679 71.422 L 84.480 72.882 L 83.091 77.033 L 83.877 84.070 L 81.605 89.879 L 79.551 91.531 L 69.601 95.513 L 66.337 100.751 L 67.738 106.312 L 61.514 117.076 L 59.933 121.275 L 63.155 128.226 L 60.425 133.818 L 49.600 145.725 L 48.705 149.963 L 45.990 154.566 L 39.037 158.594 L 34.836 159.875 L 31.400 162.613 L 26.506 164.536 L 26.172 166.001 L 27.592 169.175 L 27.105 171.712 L 25.170 174.682 L 21.681 177.433 L 18.191 183.649 L 14.525 186.160 L 0.415 192.028 L 0.415 196.828 L 17.595 189.111 L 20.355 185.598 L 23.346 179.114 L 27.171 176.968 L 28.919 174.996 L 30.557 170.824 L 29.841 165.610 L 35.288 162.555 L 39.440 161.328 L 46.369 157.225 L 50.161 153.486 L 53.456 145.360 L 62.426 135.386 L 66.308 128.322 L 65.434 124.953 L 62.783 120.691 L 70.959 106.217 L 68.907 99.980 L 71.658 96.598 L 81.779 93.090 L 83.801 91.426 L 86.684 84.870 L 86.762 82.204 L 85.208 77.105 L 86.366 73.962 L 90.594 73.646 L 98.018 70.522 L 103.783 61.657 L 110.519 62.998 L 116.416 60.939 L 123.733 53.146 L 128.779 49.423 L 133.837 44.348 L 140.231 41.202 L 143.610 37.116 L 150.058 33.999 L 161.267 26.713 L 173.812 21.786 L 184.932 15.985 L 191.861 10.348 L 195.924 0.435 L 200.724 0.434 L 197.148 9.576 L 194.121 12.798 L 182.722 19.922 L 162.129 28.630 L 155.239 32.748 L 151.956 35.725 L 145.624 39.046 L 141.924 42.846 L 134.058 47.002 L 130.455 50.968 L 124.740 55.251 L 118.464 62.733 L 111.786 65.299 L 104.939 64.985 L 102.694 69.601 L 100.415 72.292 L 90.404 76.126 L 88.032 76.278 L 87.601 77.654 L 89.822 84.316 L 85.727 93.195 L 83.803 94.885 L 75.106 96.981 L 71.510 99.498 L 74.139 106.438 L 69.392 112.879 L 66.454 120.082 L 69.304 128.114 L 64.040 137.440 L 56.101 145.882 L 53.587 153.330 L 48.642 158.468 L 39.529 164.104 L 32.980 166.422 L 32.385 167.724 L 33.060 171.147 L 30.721 176.946 L 29.054 178.996 L 24.660 181.698 L 22.300 187.512 L 18.929 192.797 L 15.316 195.386 L 0.415 201.628 L 0.417 206.427 L 14.576 200.528 L 17.554 198.537 L 22.382 193.217 L 25.394 187.682 L 26.608 183.359 L 31.993 178.918 L 35.063 172.407 L 35.105 168.211 L 40.453 166.138 L 50.392 160.008 L 55.668 155.128 L 58.168 150.349 L 58.766 147.027 L 65.918 139.035 L 71.979 129.016 L 71.967 126.481 L 69.340 119.936 L 71.230 113.979 L 75.028 110.190 L 76.885 107.123 L 76.813 104.631 L 74.227 100.245 L 75.938 98.801 L 83.915 97.508 L 87.006 95.882 L 89.067 90.950 L 92.842 84.933 L 91.376 78.508 L 102.353 74.632 L 106.708 68.185 L 111.763 68.095 L 120.165 64.902 L 126.591 56.407 L 131.742 52.809 L 136.724 47.670 L 144.028 44.182 L 147.169 41.069 L 152.806 38.355 L 156.729 34.756 L 163.525 30.436 L 184.225 21.656 L 198.139 13.371 L 201.923 9.622 L 205.523 0.436 L 210.323 0.435 L 206.728 9.607 L 203.757 12.917 L 185.047 23.621 L 165.268 32.213 L 158.603 36.696 L 155.476 39.796 L 149.698 42.260 L 146.664 45.309 L 138.513 49.092 L 133.508 54.179 L 128.400 57.773 L 122.113 67.301 L 115.436 69.961 L 108.530 71.128 L 104.998 76.817 L 98.008 78.027 L 94.979 79.573 L 95.963 84.322 L 95.622 86.044 L 90.935 92.543 L 88.912 97.509 L 85.200 99.862 L 77.993 101.255 L 80.172 106.551 L 77.395 111.153 L 72.909 115.467 L 71.592 119.706 L 71.717 121.410 L 74.939 126.819 L 74.959 129.327 L 67.801 140.703 L 61.961 147.536 L 60.764 151.708 L 57.331 156.974 L 52.697 161.206 L 37.991 169.819 L 33.459 180.397 L 29.097 184.701 L 27.436 190.700 L 25.038 194.490 L 16.128 204.474 L 0.416 211.228 L 0.416 216.028 L 14.564 210.135 L 17.542 208.154 L 22.037 200.443 L 29.180 193.666 L 31.299 185.930 L 34.403 182.804 L 39.803 171.524 L 49.581 165.238 L 55.246 162.513 L 62.414 154.634 L 64.674 147.987 L 70.118 142.072 L 73.188 136.576 L 76.109 133.189 L 78.354 128.315 L 73.897 120.738 L 74.520 117.364 L 81.760 109.507 L 83.312 106.294 L 83.053 104.003 L 90.415 99.682 L 93.007 93.983 L 98.310 86.804 L 98.922 85.130 L 98.053 81.757 L 98.575 80.546 L 106.336 79.724 L 108.337 78.120 L 110.114 74.226 L 118.619 71.928 L 124.360 69.330 L 130.672 58.758 L 135.039 55.702 L 140.085 50.627 L 148.264 46.989 L 150.576 44.452 L 157.947 41.232 L 166.869 33.923 L 181.800 27.653 L 206.295 14.383 L 211.080 10.390 L 215.123 0.435 L 219.923 0.435 L 216.344 9.615 L 212.756 13.558 L 183.457 29.188 L 168.571 35.486 L 158.971 43.397 L 152.399 46.284 L 149.103 49.055 L 142.394 51.492 L 132.512 60.430 L 126.451 71.236 L 113.053 76.296 L 109.570 81.209 L 102.368 84.091 L 100.203 88.851 L 94.651 95.870 L 92.147 101.640 L 86.737 106.229 L 82.905 112.277 L 76.669 118.635 L 76.588 120.948 L 80.127 125.011 L 81.423 128.210 L 71.946 144.285 L 67.368 148.369 L 66.954 151.743 L 65.225 155.892 L 61.626 158.333 L 57.566 164.194 L 50.972 166.960 L 42.056 172.962 L 35.736 184.755 L 32.670 187.756 L 30.891 195.612 L 22.822 202.681 L 18.126 212.313 L 14.557 214.947 L 0.416 220.828 L 0.416 225.628 L 14.569 219.751 L 18.401 217.461 L 24.628 203.651 L 32.788 196.846 L 34.495 189.000 L 37.614 186.015 L 39.822 180.161 L 41.836 177.178 L 51.514 169.303 L 59.053 166.614 L 63.001 160.729 L 66.805 158.540 L 69.636 152.945 L 70.511 148.732 L 74.072 146.047 L 84.211 129.192 L 83.833 125.924 L 79.149 119.845 L 84.699 114.170 L 88.826 108.272 L 93.640 104.329 L 96.623 96.914 L 104.950 86.407 L 111.360 83.336 L 114.875 78.362 L 119.150 77.201 L 128.844 72.626 L 134.229 62.315 L 137.764 59.650 L 143.740 53.041 L 150.509 50.801 L 154.010 48.183 L 160.511 45.112 L 170.926 36.716 L 183.366 31.505 L 215.354 15.137 L 220.680 10.390 L 224.723 0.435 L 229.524 0.435 L 225.493 10.373 L 219.470 15.684 L 197.996 26.839 L 171.768 38.582 L 161.471 47.122 L 149.740 53.590 L 144.637 54.967 L 139.753 61.303 L 135.593 64.530 L 131.242 74.294 L 119.935 79.665 L 116.476 80.494 L 113.305 85.493 L 106.857 88.558 L 98.144 98.753 L 96.126 106.456 L 90.383 110.582 L 83.044 119.599 L 87.371 126.788 L 87.324 129.241 L 76.788 146.912 L 73.779 150.055 L 69.041 160.589 L 64.623 163.383 L 60.573 169.186 L 57.322 170.665 L 52.959 171.372 L 43.044 178.841 L 41.515 181.047 L 39.104 187.741 L 35.869 190.565 L 34.620 198.506 L 26.167 204.806 L 21.626 219.175 L 16.153 223.768 L 0.416 230.428 L 0.415 235.228 L 16.116 228.574 L 23.326 221.905 L 25.533 218.044 L 25.769 211.946 L 27.898 206.064 L 30.500 203.699 L 35.984 200.900 L 37.214 197.597 L 37.592 191.401 L 40.885 188.687 L 44.142 180.465 L 53.843 174.266 L 58.161 173.486 L 62.246 171.706 L 67.052 165.331 L 71.360 162.349 L 75.912 152.608 L 78.811 149.317 L 80.714 144.321 L 90.396 129.343 L 90.475 126.887 L 87.245 121.510 L 87.158 119.291 L 91.641 112.638 L 98.519 108.646 L 99.885 105.361 L 100.775 99.284 L 107.927 91.320 L 115.878 87.482 L 118.586 83.156 L 133.072 76.191 L 135.203 72.296 L 136.911 66.333 L 141.277 63.417 L 145.203 57.489 L 150.141 56.044 L 162.524 48.966 L 173.376 39.757 L 199.756 28.540 L 221.296 17.612 L 229.817 11.100 L 234.324 0.434 L 239.124 0.434 L 235.556 9.591 L 232.151 13.696 L 223.063 19.484 L 201.442 30.287 L 173.964 41.145 L 168.320 45.562 L 163.382 50.699 L 155.522 54.943 L 151.488 58.389 L 145.914 60.450 L 143.000 64.952 L 138.641 67.718 L 137.348 72.785 L 134.312 78.220 L 129.031 81.566 L 120.854 85.207 L 117.505 90.221 L 109.476 93.828 L 103.300 100.290 L 102.832 106.355 L 100.924 110.400 L 93.827 113.998 L 91.495 116.648 L 90.048 120.727 L 93.430 126.955 L 93.418 129.436 L 82.704 145.760 L 81.383 150.900 L 77.825 154.726 L 73.278 164.467 L 69.073 167.651 L 63.493 174.549 L 54.939 177.015 L 45.444 181.861 L 42.682 189.331 L 39.859 192.568 L 39.601 197.846 L 38.364 202.157 L 36.425 203.756 L 31.395 205.605 L 29.293 208.345 L 27.837 212.577 L 29.020 217.605 L 26.127 223.129 L 16.100 233.315 L 0.415 240.028 L 0.416 244.828 L 16.100 238.066 L 22.538 230.632 L 27.347 226.624 L 32.173 218.081 L 32.212 216.373 L 30.192 212.410 L 30.857 209.920 L 33.000 207.214 L 38.185 205.873 L 40.202 204.334 L 42.125 198.398 L 42.462 194.036 L 47.394 182.741 L 55.608 179.275 L 65.124 176.921 L 71.483 169.550 L 75.058 166.922 L 80.009 156.368 L 83.562 152.532 L 85.002 146.610 L 96.495 129.664 L 96.717 127.176 L 92.895 121.117 L 93.014 118.669 L 95.324 115.998 L 103.200 111.966 L 106.116 106.431 L 106.459 101.315 L 108.332 99.396 L 112.288 95.808 L 119.603 92.478 L 123.565 86.797 L 130.241 84.134 L 135.313 80.471 L 137.813 76.837 L 140.994 68.707 L 144.122 67.009 L 147.311 62.774 L 153.893 60.455 L 156.513 56.982 L 164.788 51.721 L 168.808 46.910 L 174.414 42.430 L 178.378 40.357 L 186.206 38.313 L 203.033 32.003 L 225.664 21.172 L 234.745 15.342 L 238.799 11.792 L 240.733 8.791 L 243.924 0.435 L 248.724 0.435 L 243.656 11.833 L 227.711 23.438 L 213.571 29.211 L 205.680 33.460 L 178.177 41.723 L 175.053 43.467 L 169.470 47.971 L 165.587 52.884 L 159.203 57.783 L 156.368 62.238 L 148.907 64.928 L 143.217 70.281 L 137.243 82.166 L 131.679 86.627 L 124.985 89.095 L 121.804 94.335 L 114.046 98.744 L 110.149 102.439 L 108.737 108.327 L 105.224 113.529 L 103.249 115.301 L 97.371 117.531 L 95.488 119.271 L 95.310 120.758 L 100.021 127.311 L 99.744 129.818 L 90.664 142.051 L 87.299 148.179 L 86.004 153.206 L 82.221 158.000 L 77.308 168.600 L 73.144 171.909 L 66.608 179.148 L 54.403 181.785 L 48.844 184.363 L 46.183 190.932 L 44.792 198.812 L 41.907 206.353 L 38.976 208.255 L 33.850 209.561 L 32.768 210.866 L 35.230 217.860 L 29.709 228.072 L 22.098 234.180 L 16.869 242.424 L 0.416 249.628 L 0.416 254.428 L 16.869 247.174 L 20.351 243.120 L 22.683 236.392 L 31.190 229.977 L 37.757 218.274 L 36.039 212.022 L 42.307 209.294 L 44.001 207.305 L 48.242 197.384 L 48.336 191.163 L 50.786 185.488 L 54.801 183.656 L 63.711 182.655 L 68.740 180.750 L 70.842 179.103 L 75.139 173.378 L 78.769 170.834 L 84.453 159.649 L 89.057 153.111 L 92.121 143.911 L 100.998 133.767 L 103.098 129.817 L 103.193 127.268 L 98.202 120.247 L 105.818 116.541 L 111.458 109.599 L 114.201 103.091 L 123.598 96.270 L 125.854 91.430 L 133.316 88.914 L 139.363 83.619 L 145.132 71.608 L 149.664 67.373 L 157.890 64.109 L 162.077 57.285 L 166.940 53.320 L 170.746 48.338 L 176.399 43.899 L 197.825 37.260 L 206.678 35.747 L 215.285 30.960 L 229.661 25.755 L 248.375 11.790 L 250.329 8.800 L 253.523 0.435 L 258.323 0.435 L 255.500 7.974 L 253.220 11.816 L 232.531 27.563 L 217.244 32.729 L 207.907 37.993 L 198.115 38.716 L 177.422 44.643 L 171.695 48.969 L 167.923 53.972 L 163.781 57.396 L 158.222 66.507 L 150.898 69.601 L 146.825 72.995 L 141.427 85.153 L 134.741 91.034 L 127.481 93.896 L 125.467 97.883 L 123.076 100.562 L 116.617 105.181 L 114.127 110.897 L 110.282 114.638 L 107.908 118.369 L 102.118 120.738 L 106.362 127.690 L 105.541 131.966 L 103.291 135.828 L 93.760 145.315 L 92.521 152.114 L 80.859 172.217 L 77.132 174.542 L 73.917 179.802 L 70.361 182.486 L 64.542 184.869 L 55.603 185.440 L 52.343 186.745 L 50.694 190.727 L 51.159 197.704 L 45.316 209.782 L 39.814 213.920 L 40.109 218.846 L 37.254 225.429 L 31.715 232.418 L 26.988 234.956 L 24.340 237.341 L 22.298 244.974 L 17.614 251.532 L 0.416 259.228 L 3.313 262.828 L 17.451 256.963 L 20.402 255.033 L 21.940 249.985 L 25.437 243.753 L 26.442 237.853 L 33.263 233.676 L 40.276 225.720 L 42.755 218.975 L 43.133 214.764 L 47.261 211.447 L 49.376 205.525 L 53.944 197.851 L 54.476 195.253 L 53.151 190.155 L 53.560 188.567 L 56.740 187.359 L 63.877 187.447 L 72.158 183.951 L 75.900 181.506 L 79.085 176.279 L 82.803 174.039 L 86.856 168.151 L 95.333 152.362 L 95.980 150.694 L 95.760 146.548 L 105.173 138.230 L 108.681 131.963 L 109.571 128.566 L 106.498 123.160 L 106.531 122.041 L 110.262 120.222 L 112.160 116.216 L 116.760 112.021 L 119.702 106.556 L 124.303 103.947 L 129.126 96.429 L 137.081 92.501 L 142.999 87.119 L 148.008 74.866 L 152.282 71.755 L 156.567 70.549 L 158.774 69.093 L 164.192 58.797 L 168.860 54.646 L 171.957 50.243 L 179.225 45.085 L 197.476 40.294 L 208.157 40.303 L 213.191 38.378 L 219.303 34.655 L 233.935 30.283 L 249.774 17.152 L 258.017 11.813 L 259.931 8.795 L 263.123 0.435 L 267.924 0.434 L 264.734 8.775 L 262.774 11.752 L 257.058 16.068 L 250.658 19.199 L 245.268 25.178 L 236.108 32.344 L 221.467 36.533 L 215.284 40.073 L 208.482 42.364 L 197.840 41.672 L 179.566 46.185 L 172.984 50.753 L 169.921 55.159 L 165.285 59.305 L 159.660 71.492 L 157.564 73.071 L 153.244 74.010 L 149.518 76.315 L 147.002 84.741 L 144.963 88.686 L 142.111 90.803 L 139.338 94.270 L 132.076 97.722 L 126.927 106.014 L 121.672 109.181 L 118.715 113.630 L 114.657 117.084 L 113.013 121.160 L 110.822 123.606 L 112.552 128.317 L 111.873 131.689 L 106.435 140.971 L 98.950 147.308 L 98.423 152.073 L 89.274 169.534 L 84.701 176.110 L 80.885 178.250 L 78.287 182.814 L 76.276 184.533 L 63.860 189.731 L 56.334 189.960 L 57.310 193.788 L 57.109 196.433 L 54.319 203.048 L 51.079 207.264 L 49.061 213.204 L 45.999 216.200 L 44.929 221.377 L 41.825 228.826 L 34.518 235.120 L 29.010 238.026 L 28.183 239.480 L 28.059 243.781 L 25.261 249.405 L 25.657 253.619 L 24.226 257.841 L 22.332 259.649 L 14.900 262.828 L 26.236 262.719 L 27.468 261.470 L 30.115 254.815 L 28.397 249.276 L 30.932 242.664 L 30.704 239.301 L 36.054 236.470 L 43.823 230.689 L 53.120 208.612 L 57.265 202.927 L 59.912 196.251 L 60.007 192.032 L 63.942 191.951 L 77.393 186.984 L 79.979 184.619 L 82.300 179.907 L 86.953 177.448 L 91.142 171.610 L 97.944 157.935 L 101.380 152.670 L 102.672 147.777 L 106.893 144.602 L 115.017 131.693 L 115.758 129.195 L 114.265 124.348 L 116.779 118.619 L 123.460 111.571 L 128.930 108.596 L 133.817 100.107 L 140.950 96.549 L 146.937 90.104 L 149.284 85.291 L 150.740 78.379 L 153.581 76.355 L 157.077 75.995 L 160.068 74.137 L 166.087 60.182 L 170.120 56.693 L 173.737 51.571 L 180.372 47.086 L 197.892 43.120 L 209.398 44.331 L 217.886 41.371 L 221.783 39.207 L 238.096 34.342 L 246.669 27.819 L 252.120 20.730 L 260.955 16.435 L 267.530 11.741 L 269.526 8.787 L 272.724 0.435 L 277.523 0.435 L 274.331 8.793 L 272.349 11.751 L 263.301 17.599 L 253.563 22.159 L 248.158 30.359 L 240.172 36.146 L 235.242 38.337 L 223.086 41.541 L 210.586 46.498 L 207.929 46.679 L 197.398 44.599 L 180.693 48.137 L 174.178 52.771 L 171.180 57.235 L 166.644 61.459 L 161.091 75.637 L 157.654 78.455 L 152.769 79.662 L 152.216 83.904 L 150.635 88.103 L 144.039 97.530 L 136.904 101.095 L 131.403 110.190 L 125.262 113.819 L 119.020 120.126 L 117.428 124.234 L 118.926 129.118 L 118.188 131.635 L 113.407 138.114 L 108.236 147.533 L 105.724 149.908 L 92.031 175.150 L 87.801 179.781 L 83.841 181.706 L 81.040 187.247 L 79.236 189.193 L 63.250 194.832 L 59.078 205.557 L 55.369 209.292 L 52.881 216.971 L 45.236 233.158 L 38.723 237.756 L 33.214 240.143 L 33.246 243.368 L 31.340 248.409 L 34.250 252.558 L 34.835 255.053 L 31.893 262.584 L 35.320 263.000 L 36.693 262.584 L 39.576 255.044 L 38.383 251.813 L 34.141 247.566 L 35.794 243.386 L 37.218 241.358 L 41.246 239.461 L 47.277 234.336 L 51.105 225.222 L 55.272 218.332 L 57.184 211.424 L 61.099 208.078 L 65.309 197.279 L 80.255 192.274 L 82.108 190.390 L 84.977 183.847 L 89.505 181.187 L 94.643 176.174 L 99.150 166.442 L 107.681 152.685 L 110.159 150.241 L 115.261 139.834 L 121.084 131.912 L 122.120 128.567 L 120.376 124.434 L 120.922 121.971 L 124.406 119.301 L 127.178 115.814 L 133.274 112.114 L 139.040 103.107 L 146.019 99.330 L 152.847 88.909 L 155.576 82.304 L 159.307 80.048 L 162.656 75.850 L 167.878 61.530 L 171.955 58.084 L 175.526 52.946 L 181.495 49.061 L 195.589 46.171 L 199.168 46.167 L 208.645 48.971 L 211.290 48.903 L 217.448 45.382 L 234.835 40.973 L 241.492 38.248 L 249.681 32.779 L 255.035 23.580 L 269.677 16.712 L 276.505 12.389 L 278.736 9.603 L 282.323 0.435 L 287.123 0.436 L 283.926 8.807 L 281.961 11.787 L 271.291 18.458 L 256.457 24.918 L 255.223 26.120 L 251.106 35.075 L 244.425 39.599 L 235.181 43.145 L 217.860 47.230 L 214.519 50.075 L 212.030 51.118 L 209.399 51.254 L 198.327 47.653 L 194.743 47.669 L 181.497 50.252 L 175.706 54.386 L 172.746 58.894 L 168.653 62.329 L 163.652 76.748 L 160.145 81.973 L 157.536 84.346 L 154.884 90.058 L 147.734 101.345 L 140.962 105.452 L 134.748 114.148 L 129.334 117.248 L 126.456 121.674 L 124.279 123.151 L 124.999 128.879 L 123.754 132.207 L 114.485 146.513 L 112.900 151.617 L 109.732 154.597 L 101.107 167.257 L 97.725 176.463 L 91.192 182.590 L 86.621 185.216 L 84.075 192.869 L 82.342 194.841 L 68.056 199.369 L 64.666 205.557 L 63.157 210.691 L 59.536 212.987 L 57.245 220.646 L 52.954 226.371 L 48.708 236.288 L 45.219 238.978 L 43.080 241.759 L 37.891 245.033 L 37.534 247.292 L 41.946 250.392 L 44.265 254.173 L 41.493 262.584 L 44.920 263.000 L 46.293 262.584 L 48.692 256.756 L 48.991 254.186 L 47.239 251.087 L 41.362 245.715 L 45.360 243.757 L 50.472 237.817 L 54.630 227.864 L 59.640 221.590 L 61.895 215.822 L 65.587 212.324 L 66.756 206.178 L 69.801 201.813 L 79.271 199.459 L 84.975 196.905 L 86.344 194.665 L 88.337 186.885 L 92.789 184.120 L 100.119 177.582 L 101.693 174.364 L 103.355 167.508 L 111.393 156.670 L 114.843 153.996 L 117.129 147.326 L 126.142 132.848 L 127.692 129.598 L 127.780 125.291 L 130.405 119.797 L 136.308 115.989 L 143.069 107.675 L 149.692 103.339 L 151.439 99.225 L 153.809 96.607 L 164.851 77.111 L 169.243 63.454 L 173.270 59.997 L 176.863 54.858 L 181.946 51.261 L 195.240 49.048 L 211.388 53.444 L 215.546 51.769 L 218.754 48.823 L 225.804 48.393 L 230.560 45.966 L 235.004 45.391 L 246.064 41.676 L 253.289 36.464 L 257.266 26.586 L 265.328 22.656 L 272.136 20.375 L 284.755 13.541 L 288.338 9.606 L 291.923 0.435 L 296.724 0.434 L 293.144 9.588 L 290.887 12.337 L 287.281 15.003 L 277.425 19.266 L 272.984 22.265 L 266.125 24.277 L 258.841 27.714 L 257.371 29.870 L 255.134 38.428 L 246.965 43.858 L 231.470 48.177 L 225.889 50.877 L 219.828 50.299 L 216.547 53.094 L 210.901 55.701 L 205.969 53.885 L 201.612 53.358 L 196.935 50.780 L 194.279 50.509 L 182.757 52.242 L 177.624 55.729 L 174.610 60.171 L 170.012 64.266 L 166.192 77.134 L 155.903 98.036 L 153.647 100.739 L 151.775 105.704 L 144.259 110.314 L 140.383 114.049 L 137.899 117.754 L 132.263 121.782 L 130.106 130.365 L 119.662 148.163 L 118.493 153.251 L 116.490 156.207 L 112.305 159.463 L 105.715 167.964 L 104.770 170.399 L 104.789 173.944 L 102.867 177.977 L 94.225 185.662 L 90.387 187.858 L 89.042 195.668 L 87.616 198.879 L 79.465 202.479 L 71.568 203.869 L 69.087 206.379 L 67.192 215.017 L 56.942 228.369 L 51.803 240.775 L 47.480 246.335 L 52.034 251.065 L 53.733 254.205 L 53.486 256.766 L 51.092 262.585 L 54.520 263.000 L 55.893 262.584 L 58.584 255.042 L 57.139 251.851 L 52.171 246.718 L 51.886 245.499 L 54.538 242.221 L 55.672 236.975 L 58.414 230.336 L 69.028 217.132 L 71.129 207.594 L 72.997 205.809 L 80.933 204.818 L 88.509 201.948 L 90.534 200.322 L 91.851 196.992 L 92.530 189.177 L 104.324 179.822 L 107.503 174.406 L 107.568 170.038 L 108.621 167.636 L 120.760 154.598 L 121.933 152.186 L 122.559 147.894 L 133.051 130.083 L 135.083 122.461 L 139.458 119.478 L 144.387 113.175 L 151.676 109.825 L 154.230 107.413 L 159.410 96.080 L 162.293 87.560 L 168.662 74.681 L 170.921 65.087 L 174.838 61.602 L 178.504 56.516 L 183.723 53.213 L 194.428 51.974 L 201.483 55.590 L 205.747 56.375 L 210.463 58.720 L 213.649 57.293 L 220.434 51.697 L 225.409 53.361 L 247.489 45.980 L 257.243 39.715 L 258.639 36.453 L 258.900 31.106 L 260.311 28.948 L 266.852 26.037 L 273.766 24.242 L 277.404 21.642 L 284.090 19.234 L 293.485 13.921 L 297.935 9.606 L 301.523 0.435 L 306.323 0.435 L 302.732 9.604 L 300.499 12.386 L 290.454 18.337 L 274.454 26.250 L 267.490 27.832 L 261.737 30.364 L 260.647 32.570 L 260.957 36.991 L 259.119 41.045 L 248.604 47.785 L 237.402 51.024 L 225.718 55.533 L 220.406 53.552 L 213.935 60.924 L 210.867 62.649 L 206.716 61.319 L 194.814 53.679 L 183.256 54.630 L 178.930 57.729 L 175.859 62.139 L 171.937 65.590 L 170.142 75.224 L 163.875 87.115 L 161.093 97.537 L 156.039 110.027 L 153.366 112.350 L 145.814 114.928 L 143.240 117.426 L 140.965 121.271 L 136.797 124.442 L 136.156 129.729 L 125.092 148.176 L 125.086 151.476 L 123.648 154.727 L 110.484 169.133 L 110.340 174.231 L 106.631 180.378 L 94.600 190.788 L 94.846 197.706 L 92.113 203.327 L 82.127 207.187 L 74.993 207.660 L 73.642 208.366 L 71.135 219.526 L 59.965 232.296 L 58.025 237.299 L 58.032 240.864 L 56.702 245.961 L 63.193 254.201 L 63.085 256.753 L 60.693 262.584 L 64.120 263.000 L 65.492 262.585 L 68.128 255.053 L 65.974 251.274 L 59.801 246.221 L 60.883 241.177 L 60.393 236.825 L 61.429 234.357 L 63.492 231.426 L 73.617 221.431 L 74.931 218.118 L 76.102 210.427 L 84.676 209.461 L 91.464 207.131 L 94.338 205.129 L 98.129 197.058 L 97.041 192.110 L 108.592 181.330 L 112.791 175.512 L 113.554 173.002 L 113.208 170.551 L 116.473 165.558 L 121.165 161.490 L 126.834 154.550 L 127.986 152.134 L 128.145 148.833 L 138.793 130.226 L 139.934 125.229 L 142.614 122.957 L 146.657 117.156 L 153.390 115.565 L 158.172 111.636 L 163.236 97.288 L 165.001 87.588 L 172.525 74.442 L 172.890 66.484 L 176.659 62.952 L 179.729 58.559 L 184.222 55.784 L 193.944 55.374 L 203.875 64.226 L 209.527 66.964 L 212.071 66.615 L 215.555 63.884 L 218.035 58.163 L 220.407 55.728 L 226.374 57.862 L 237.831 53.045 L 248.193 50.270 L 259.814 43.551 L 263.345 37.418 L 263.246 31.620 L 267.349 29.819 L 272.648 29.085 L 276.849 27.521 L 300.825 15.335 L 307.083 10.346 L 311.124 0.434 L 315.923 0.435 L 312.322 9.609 L 309.393 12.961 L 278.473 29.435 L 266.311 32.269 L 265.273 33.304 L 265.306 38.355 L 261.925 44.673 L 250.381 51.576 L 239.203 54.896 L 226.128 60.519 L 220.228 58.103 L 216.905 67.045 L 215.230 69.152 L 212.170 70.995 L 209.605 71.358 L 201.604 67.256 L 197.012 63.014 L 192.464 56.625 L 184.411 57.077 L 180.588 59.270 L 177.545 63.709 L 174.242 66.559 L 174.914 74.361 L 172.018 79.949 L 166.628 87.113 L 163.295 106.546 L 159.967 112.917 L 154.855 117.890 L 151.620 119.439 L 148.179 119.341 L 146.248 121.000 L 142.595 126.941 L 141.194 131.002 L 133.180 143.971 L 129.802 154.786 L 122.857 163.032 L 118.148 167.100 L 116.410 171.161 L 116.238 174.580 L 114.483 177.685 L 106.215 187.193 L 100.710 191.695 L 100.261 193.234 L 101.165 197.440 L 95.767 207.705 L 88.625 211.363 L 78.350 213.217 L 77.909 219.248 L 75.974 223.286 L 65.472 232.961 L 62.830 236.562 L 63.818 241.611 L 62.800 245.648 L 69.438 250.005 L 71.892 252.587 L 72.863 255.891 L 70.293 262.584 L 73.720 263.000 L 75.093 262.584 L 77.477 256.752 L 77.482 254.188 L 72.848 248.809 L 65.652 245.275 L 66.883 241.414 L 65.729 236.487 L 70.583 231.248 L 77.521 225.605 L 80.823 220.268 L 81.205 216.227 L 91.155 213.440 L 98.019 209.374 L 99.908 204.379 L 103.908 198.439 L 104.167 196.722 L 102.854 192.730 L 107.683 188.897 L 117.173 178.107 L 118.899 174.972 L 119.193 170.667 L 120.252 168.208 L 132.555 155.250 L 134.118 152.050 L 133.965 149.489 L 135.198 145.196 L 143.810 131.650 L 147.767 123.649 L 148.877 122.488 L 152.962 122.032 L 157.434 119.023 L 164.571 109.808 L 166.044 106.554 L 168.096 87.899 L 176.915 75.459 L 177.517 72.937 L 175.660 67.166 L 178.765 64.225 L 181.167 60.428 L 184.179 58.642 L 191.293 58.084 L 194.981 65.818 L 200.195 70.732 L 209.863 75.428 L 214.135 74.494 L 216.415 73.101 L 217.974 70.933 L 221.682 61.957 L 225.582 62.898 L 227.309 62.546 L 234.900 59.890 L 240.428 56.913 L 249.054 54.417 L 257.023 50.264 L 264.274 45.175 L 267.158 39.585 L 268.240 33.918 L 272.679 33.696 L 279.568 31.686 L 285.467 27.642 L 295.344 23.311 L 311.154 14.895 L 316.663 10.362 L 320.723 0.435 L 325.523 0.435 L 321.930 9.615 L 318.959 12.922 L 296.259 25.564 L 287.077 29.276 L 281.386 33.582 L 270.402 37.060 L 265.315 47.399 L 257.888 52.317 L 247.318 57.344 L 242.129 58.828 L 234.996 62.582 L 223.940 65.369 L 218.933 75.540 L 216.248 77.713 L 210.114 78.607 L 199.232 74.409 L 192.219 67.530 L 190.255 59.992 L 184.221 60.039 L 181.996 61.385 L 177.787 67.953 L 180.128 72.532 L 179.739 75.074 L 169.933 88.992 L 168.609 105.938 L 167.082 110.128 L 158.797 120.761 L 153.871 124.686 L 149.932 126.347 L 137.301 146.876 L 137.095 152.061 L 136.055 154.495 L 122.622 168.936 L 121.409 171.287 L 121.208 174.756 L 119.226 178.771 L 108.872 191.184 L 106.287 193.250 L 107.111 198.142 L 101.796 205.289 L 99.635 212.069 L 96.683 214.057 L 85.110 218.853 L 79.622 226.971 L 68.927 236.449 L 70.066 244.110 L 74.655 246.593 L 81.807 253.373 L 82.277 256.741 L 79.893 262.584 L 83.320 263.000 L 84.693 262.584 L 87.069 256.754 L 86.999 254.185 L 84.955 251.302 L 80.354 248.561 L 73.945 242.477 L 72.094 238.554 L 72.316 236.948 L 74.518 234.188 L 81.516 228.644 L 87.433 220.828 L 99.870 215.762 L 101.832 214.038 L 103.669 206.244 L 109.000 200.311 L 110.094 197.853 L 110.212 193.634 L 112.565 189.825 L 121.413 178.555 L 123.162 174.431 L 123.622 171.005 L 139.024 154.800 L 140.285 151.529 L 139.978 147.345 L 144.820 138.747 L 151.733 129.446 L 156.064 126.527 L 160.475 122.051 L 168.803 111.488 L 170.980 106.591 L 172.166 89.664 L 182.786 74.274 L 182.887 72.562 L 180.679 67.821 L 183.130 62.210 L 185.511 61.376 L 188.046 61.798 L 190.045 70.137 L 197.118 76.853 L 204.895 78.993 L 210.470 81.821 L 218.355 80.564 L 220.492 79.096 L 222.135 74.043 L 226.562 67.521 L 238.415 63.731 L 260.304 53.521 L 266.864 48.975 L 272.274 38.853 L 283.365 35.402 L 288.055 31.345 L 298.049 27.344 L 310.253 19.938 L 322.312 13.916 L 326.281 10.364 L 330.324 0.435 L 335.123 0.435 L 331.515 9.602 L 327.103 14.003 L 312.583 21.181 L 299.643 29.139 L 289.637 33.144 L 285.160 37.383 L 274.062 40.950 L 268.178 50.821 L 257.681 57.553 L 240.485 65.246 L 228.548 68.891 L 224.302 74.573 L 222.432 81.359 L 219.582 83.421 L 210.991 85.430 L 204.207 81.133 L 193.071 77.843 L 187.967 72.856 L 186.357 68.679 L 185.994 64.225 L 184.319 63.441 L 183.198 66.604 L 185.690 74.006 L 184.522 76.372 L 178.532 83.042 L 174.626 90.109 L 173.519 106.135 L 171.203 111.937 L 158.562 128.234 L 154.272 131.312 L 146.867 140.186 L 142.865 147.201 L 143.363 152.269 L 141.353 156.210 L 134.518 162.032 L 125.247 171.757 L 124.636 175.165 L 122.400 180.076 L 113.874 191.625 L 110.763 201.646 L 105.852 206.803 L 104.845 212.935 L 103.487 216.219 L 101.364 217.800 L 95.397 219.749 L 89.113 223.153 L 82.933 230.815 L 74.812 237.649 L 81.236 246.817 L 87.770 249.457 L 90.427 251.834 L 92.012 255.886 L 89.493 262.584 L 92.920 263.000 L 94.292 262.585 L 96.663 256.757 L 95.730 252.590 L 93.360 249.932 L 89.584 247.504 L 82.879 245.439 L 80.658 240.887 L 77.860 238.009 L 84.569 232.556 L 90.920 225.048 L 103.789 218.814 L 105.601 216.920 L 107.704 208.298 L 112.195 202.881 L 115.788 191.970 L 123.629 181.061 L 127.407 172.038 L 136.041 162.992 L 144.378 156.250 L 146.392 152.307 L 145.438 147.312 L 148.106 142.652 L 156.411 133.355 L 160.828 130.463 L 168.186 118.169 L 173.714 112.405 L 176.063 106.601 L 176.585 92.298 L 179.449 84.832 L 182.720 80.575 L 187.712 77.420 L 198.287 82.206 L 203.534 83.120 L 208.451 88.165 L 210.817 89.374 L 212.541 89.547 L 219.276 87.335 L 224.647 82.707 L 226.047 75.835 L 229.695 70.815 L 243.273 66.625 L 259.596 59.307 L 269.246 52.963 L 275.203 43.170 L 286.212 39.607 L 291.439 34.889 L 301.347 30.719 L 319.677 19.559 L 329.563 15.344 L 335.843 10.332 L 339.924 0.435 L 344.724 0.435 L 341.113 9.592 L 337.316 13.327 L 328.752 18.273 L 321.108 20.857 L 311.514 27.486 L 292.360 37.269 L 286.069 42.213 L 276.733 45.202 L 271.183 54.158 L 260.998 61.226 L 248.414 66.035 L 243.999 68.958 L 231.197 72.627 L 228.036 76.768 L 227.728 81.138 L 226.524 84.519 L 221.837 89.880 L 219.621 91.377 L 211.001 93.106 L 206.195 90.768 L 203.169 85.428 L 198.914 85.177 L 187.637 79.801 L 184.602 81.137 L 181.186 85.238 L 180.701 88.721 L 178.645 93.667 L 178.702 106.182 L 175.379 114.474 L 169.446 119.798 L 166.142 125.145 L 163.067 132.554 L 157.686 135.483 L 149.972 144.193 L 148.227 147.325 L 149.182 152.272 L 146.435 156.848 L 137.369 164.144 L 128.749 173.193 L 124.306 182.980 L 117.075 193.239 L 114.602 201.753 L 109.547 209.025 L 108.589 214.285 L 106.394 219.163 L 92.467 227.007 L 82.152 237.909 L 84.512 243.176 L 95.173 247.848 L 99.418 251.139 L 101.592 255.890 L 99.093 262.584 L 102.520 263.000 L 103.893 262.584 L 106.263 256.739 L 105.199 252.595 L 97.652 246.276 L 86.305 240.950 L 85.302 238.848 L 94.039 228.854 L 97.962 226.706 L 100.450 224.195 L 107.543 220.591 L 109.833 215.744 L 111.225 209.675 L 115.808 203.092 L 118.669 193.740 L 125.391 184.206 L 130.024 174.452 L 138.038 166.025 L 145.205 160.601 L 148.277 157.318 L 151.637 152.060 L 150.927 147.828 L 151.931 145.473 L 159.050 137.491 L 164.608 134.924 L 167.732 129.489 L 168.554 125.166 L 170.328 122.060 L 172.027 120.001 L 175.867 117.723 L 178.150 114.973 L 181.097 106.504 L 181.441 99.325 L 180.647 94.988 L 182.982 89.200 L 183.031 85.771 L 185.180 83.043 L 187.230 81.556 L 188.902 81.939 L 197.083 87.413 L 201.079 88.336 L 203.559 92.879 L 210.711 96.620 L 213.297 97.074 L 220.212 95.383 L 223.885 92.840 L 228.118 87.084 L 229.978 82.046 L 230.210 77.688 L 233.004 74.306 L 239.723 71.789 L 245.001 71.236 L 249.839 67.475 L 258.387 64.747 L 266.482 60.842 L 269.563 57.686 L 272.604 55.875 L 277.713 47.557 L 286.170 44.795 L 294.134 39.070 L 299.154 37.119 L 310.862 30.500 L 322.607 22.242 L 328.630 20.472 L 339.089 15.290 L 345.442 10.362 L 349.523 0.435 L 354.324 0.434 L 350.745 9.591 L 347.052 13.398 L 340.098 17.477 L 323.566 24.044 L 312.025 32.537 L 306.322 35.109 L 301.222 38.751 L 295.336 40.933 L 287.504 46.746 L 279.134 49.604 L 273.920 57.822 L 270.919 59.674 L 267.948 62.862 L 258.025 67.072 L 251.146 68.974 L 245.026 73.920 L 239.824 73.827 L 234.063 76.096 L 232.678 78.316 L 231.485 85.288 L 227.778 93.428 L 224.905 96.829 L 221.942 98.830 L 217.804 100.477 L 211.658 100.985 L 201.553 95.233 L 198.969 91.719 L 193.465 88.735 L 188.537 83.609 L 186.320 84.317 L 185.295 85.709 L 184.951 89.951 L 182.815 94.865 L 183.797 99.943 L 183.437 106.202 L 180.337 116.473 L 178.025 119.188 L 172.125 122.950 L 170.917 125.339 L 170.752 129.594 L 166.530 136.462 L 160.340 139.719 L 154.306 146.282 L 153.410 147.755 L 153.366 152.816 L 148.152 160.110 L 139.236 167.601 L 131.194 175.952 L 126.384 185.592 L 120.172 194.360 L 116.955 204.536 L 112.540 211.165 L 111.538 215.517 L 108.573 222.019 L 105.688 224.086 L 101.555 225.555 L 95.488 230.694 L 89.638 238.395 L 89.799 239.489 L 99.451 244.280 L 109.390 251.936 L 111.164 255.898 L 108.692 262.585 L 112.120 263.000 L 113.492 262.585 L 115.850 256.755 L 114.682 252.655 L 112.040 250.268 L 105.781 246.787 L 101.262 242.439 L 93.019 237.910 L 97.631 231.655 L 101.579 228.063 L 107.825 224.858 L 110.326 222.352 L 114.339 211.474 L 118.262 205.554 L 122.354 193.766 L 127.141 187.279 L 132.510 176.939 L 148.378 162.557 L 154.628 153.791 L 156.644 147.243 L 161.582 142.087 L 167.658 138.484 L 171.763 132.632 L 173.822 128.653 L 173.517 125.226 L 174.256 123.729 L 179.791 121.029 L 182.215 118.430 L 183.934 114.291 L 185.653 106.423 L 185.943 100.156 L 184.748 95.944 L 186.851 90.151 L 187.296 86.019 L 188.489 85.739 L 191.872 91.011 L 196.187 94.114 L 198.856 97.540 L 210.570 103.990 L 214.815 105.133 L 218.350 104.678 L 222.466 102.889 L 226.244 100.494 L 229.495 96.233 L 234.348 83.684 L 234.993 78.445 L 236.124 77.234 L 239.453 75.961 L 243.659 76.862 L 245.342 76.458 L 249.074 74.002 L 251.956 70.690 L 257.150 69.474 L 269.686 64.568 L 275.621 59.485 L 281.051 51.486 L 287.000 49.681 L 296.257 42.907 L 302.963 40.412 L 312.265 35.106 L 324.457 26.057 L 331.968 23.170 L 336.526 20.361 L 341.705 19.013 L 351.210 14.007 L 355.550 9.588 L 359.124 0.434 L 363.924 0.435 L 359.875 10.367 L 355.261 14.570 L 343.135 20.408 L 337.122 22.039 L 333.503 24.559 L 325.996 27.563 L 313.315 37.384 L 305.427 41.662 L 297.061 44.896 L 293.175 47.056 L 287.852 51.768 L 282.047 53.876 L 277.824 60.635 L 272.041 65.851 L 256.943 71.588 L 253.428 72.222 L 249.807 76.028 L 245.379 79.076 L 242.863 79.361 L 239.571 78.160 L 237.978 78.719 L 237.177 79.848 L 236.892 83.360 L 231.396 97.607 L 228.007 102.902 L 224.563 105.718 L 218.128 108.890 L 213.736 108.901 L 196.190 99.860 L 188.725 90.561 L 186.696 95.251 L 187.893 99.420 L 187.825 106.582 L 186.360 114.444 L 184.055 120.284 L 181.626 122.881 L 176.272 125.727 L 175.893 128.994 L 169.748 138.908 L 158.152 148.677 L 155.051 156.046 L 149.365 164.139 L 138.530 174.870 L 133.462 178.395 L 128.004 188.715 L 123.367 195.310 L 119.308 207.154 L 115.843 212.309 L 111.186 223.958 L 99.648 232.210 L 97.445 236.053 L 98.123 238.210 L 102.846 240.797 L 107.120 245.370 L 119.397 252.663 L 120.649 256.744 L 118.293 262.584 L 121.720 263.000 L 123.092 262.585 L 125.441 256.753 L 124.163 252.681 L 121.375 250.495 L 109.312 244.551 L 104.377 239.402 L 99.960 236.482 L 99.924 234.927 L 105.128 230.284 L 110.453 226.994 L 112.825 224.356 L 117.126 213.507 L 120.521 208.321 L 125.325 194.886 L 129.026 189.817 L 134.586 179.588 L 139.950 176.659 L 149.806 166.278 L 155.503 158.220 L 159.862 149.451 L 170.222 140.972 L 179.306 126.866 L 183.166 124.878 L 185.671 122.364 L 188.705 114.901 L 188.800 110.498 L 190.208 106.329 L 189.665 97.438 L 191.839 98.841 L 194.260 102.552 L 201.806 107.376 L 213.990 113.038 L 216.594 113.255 L 219.100 112.348 L 227.515 107.245 L 229.402 105.358 L 233.442 98.375 L 240.309 81.320 L 243.400 82.176 L 245.066 81.860 L 254.678 74.274 L 274.022 67.619 L 276.640 64.159 L 279.577 62.261 L 283.540 56.314 L 287.538 54.622 L 294.233 48.752 L 314.638 39.565 L 323.789 31.229 L 327.556 28.831 L 335.155 26.083 L 338.596 23.466 L 344.629 21.756 L 358.520 15.484 L 364.680 10.347 L 368.724 0.434 L 373.524 0.434 L 369.504 10.363 L 365.533 13.906 L 359.402 17.646 L 340.168 25.049 L 335.952 28.069 L 328.296 30.562 L 314.119 42.508 L 295.966 50.130 L 285.070 59.187 L 281.783 63.419 L 278.166 65.859 L 274.940 69.937 L 272.474 70.963 L 267.173 71.486 L 255.532 76.193 L 247.627 83.323 L 244.389 84.858 L 241.970 84.845 L 238.701 90.008 L 235.062 100.121 L 230.761 107.976 L 218.181 116.421 L 215.714 117.429 L 213.172 116.877 L 200.313 110.517 L 195.138 106.975 L 192.957 106.520 L 191.014 110.405 L 191.067 115.566 L 187.610 123.838 L 185.192 126.453 L 181.314 128.561 L 179.305 131.445 L 175.823 134.217 L 171.425 141.942 L 161.000 150.317 L 152.803 165.197 L 142.566 177.651 L 135.534 181.010 L 126.702 195.577 L 121.900 209.062 L 118.636 214.364 L 113.731 225.929 L 102.905 234.778 L 102.987 235.936 L 110.797 243.248 L 116.922 246.995 L 125.355 250.068 L 128.334 252.008 L 130.297 255.902 L 127.892 262.585 L 131.320 263.000 L 132.693 262.583 L 135.040 256.728 L 133.643 252.666 L 129.249 249.645 L 115.780 244.620 L 111.461 241.384 L 106.625 236.082 L 106.182 234.622 L 115.376 226.259 L 119.899 215.448 L 123.147 210.111 L 128.066 196.578 L 135.936 183.466 L 137.797 181.826 L 143.759 180.175 L 156.287 162.689 L 161.811 151.406 L 172.352 143.180 L 176.438 135.352 L 180.428 133.396 L 183.201 130.022 L 186.398 128.451 L 188.979 125.985 L 193.877 115.376 L 193.887 110.269 L 199.751 114.624 L 209.362 119.543 L 214.391 121.456 L 217.703 120.659 L 223.623 115.174 L 232.866 109.792 L 236.491 102.564 L 240.420 91.559 L 242.908 87.955 L 250.088 84.534 L 257.161 77.749 L 267.130 73.576 L 272.408 73.540 L 275.694 72.177 L 279.721 67.529 L 282.805 65.789 L 286.281 61.677 L 289.886 59.119 L 297.434 51.617 L 313.451 45.704 L 329.622 31.944 L 336.566 30.213 L 341.581 26.660 L 360.937 19.347 L 370.351 14.049 L 374.725 9.615 L 378.323 0.435 L 383.123 0.435 L 379.596 9.637 L 376.732 12.965 L 361.869 21.333 L 343.369 28.277 L 336.801 32.649 L 329.902 34.162 L 325.844 38.836 L 313.975 48.081 L 298.778 53.393 L 291.424 61.047 L 288.376 62.873 L 284.275 67.603 L 281.131 69.222 L 278.534 72.781 L 275.645 74.921 L 272.359 76.141 L 267.112 75.595 L 257.361 80.132 L 251.859 86.028 L 245.441 89.248 L 243.483 91.004 L 238.279 104.376 L 234.271 112.366 L 224.808 117.412 L 217.201 124.969 L 213.910 125.588 L 196.393 117.603 L 189.452 129.016 L 184.843 131.722 L 181.971 134.996 L 176.314 137.192 L 173.245 144.453 L 162.603 152.486 L 157.768 163.096 L 147.959 177.066 L 145.516 181.840 L 142.510 183.665 L 138.957 183.703 L 136.905 184.995 L 129.755 196.454 L 124.175 211.634 L 120.965 217.007 L 116.388 227.778 L 108.603 234.858 L 112.802 240.300 L 117.058 243.607 L 132.300 249.034 L 137.782 252.035 L 139.864 255.888 L 137.493 262.584 L 140.920 263.000 L 142.293 262.584 L 144.629 256.727 L 144.049 254.236 L 142.475 252.081 L 138.619 249.821 L 118.295 242.488 L 114.024 239.210 L 111.098 235.058 L 117.852 228.436 L 125.931 211.396 L 131.151 197.013 L 136.912 187.870 L 138.604 185.959 L 142.819 186.239 L 146.508 183.884 L 149.736 177.498 L 156.304 168.946 L 163.524 153.465 L 165.342 151.509 L 174.243 145.703 L 176.902 138.261 L 184.283 136.176 L 186.454 133.414 L 191.711 130.042 L 197.493 122.329 L 213.649 129.676 L 215.330 129.933 L 216.910 129.116 L 225.701 120.206 L 236.395 113.759 L 245.506 92.297 L 253.181 87.832 L 259.525 81.501 L 266.721 77.827 L 272.692 78.865 L 276.009 77.608 L 280.205 74.225 L 282.885 70.755 L 286.686 68.527 L 289.398 64.943 L 293.168 62.629 L 300.376 54.872 L 314.032 50.634 L 327.460 40.384 L 330.969 36.369 L 337.832 34.867 L 344.299 30.127 L 351.639 26.695 L 361.995 23.689 L 374.585 16.895 L 381.393 15.057 L 383.364 12.144 L 387.923 0.436 L 392.724 0.434 L 386.806 15.433 L 384.882 18.376 L 380.784 20.155 L 375.794 19.097 L 373.269 19.808 L 369.102 21.486 L 362.456 25.912 L 352.906 28.286 L 346.436 31.384 L 340.306 36.423 L 331.881 38.875 L 313.990 53.403 L 302.727 56.074 L 300.069 59.499 L 291.089 66.570 L 287.695 70.715 L 283.866 72.883 L 281.886 75.814 L 277.119 79.885 L 273.004 81.559 L 268.020 80.097 L 265.499 80.709 L 260.272 84.138 L 255.205 89.169 L 248.096 92.902 L 244.347 99.978 L 242.667 106.005 L 237.981 115.679 L 221.794 126.661 L 216.127 133.454 L 214.475 133.865 L 211.929 133.177 L 198.236 126.706 L 185.309 138.195 L 181.913 139.228 L 177.738 139.094 L 175.524 146.699 L 164.668 154.121 L 157.529 170.575 L 150.786 178.923 L 147.194 186.108 L 143.667 188.707 L 138.792 188.029 L 136.193 191.653 L 132.329 197.713 L 127.258 212.100 L 119.296 229.144 L 113.549 235.453 L 115.339 238.268 L 118.891 240.981 L 146.518 251.615 L 148.406 253.476 L 149.436 255.903 L 147.092 262.585 L 151.893 262.584 L 154.229 255.886 L 151.998 252.146 L 128.775 242.504 L 120.177 239.871 L 115.746 235.883 L 120.262 230.789 L 128.891 212.031 L 133.618 198.438 L 136.962 193.109 L 139.193 190.492 L 144.068 191.320 L 147.038 189.418 L 152.197 180.016 L 158.715 172.620 L 165.633 155.065 L 167.482 153.168 L 176.635 147.904 L 178.253 141.131 L 183.114 141.004 L 186.560 140.038 L 190.219 136.325 L 198.225 130.777 L 199.871 130.948 L 209.160 136.319 L 213.506 137.459 L 216.036 136.848 L 222.523 128.458 L 225.806 127.143 L 235.768 119.630 L 239.731 117.678 L 245.046 106.379 L 246.542 100.326 L 250.144 94.208 L 256.537 91.031 L 260.234 87.144 L 266.146 83.119 L 267.779 82.779 L 272.848 84.260 L 278.632 81.866 L 283.979 77.093 L 285.966 74.196 L 289.768 71.904 L 293.190 67.766 L 302.297 60.807 L 304.295 58.022 L 314.603 55.870 L 332.531 41.431 L 342.556 38.015 L 346.832 33.562 L 353.226 30.313 L 362.826 28.168 L 369.426 23.634 L 373.517 21.810 L 375.185 21.723 L 380.288 24.872 L 387.823 22.087 L 389.583 20.138 L 394.828 7.693 L 394.828 19.281 L 393.053 23.408 L 391.343 25.389 L 380.503 29.564 L 378.129 28.520 L 374.712 24.498 L 373.269 24.043 L 363.532 30.267 L 353.969 32.354 L 348.443 35.314 L 344.141 39.690 L 334.084 43.306 L 327.293 48.907 L 319.762 53.670 L 316.222 57.620 L 312.959 59.070 L 306.095 60.261 L 303.763 62.847 L 295.221 69.053 L 291.141 73.771 L 287.366 76.047 L 285.634 79.077 L 280.256 83.802 L 272.765 86.673 L 266.827 85.527 L 261.611 88.980 L 257.831 92.775 L 251.498 96.077 L 248.812 100.682 L 247.405 106.692 L 244.081 111.996 L 241.398 119.497 L 236.700 121.783 L 227.737 129.088 L 222.774 130.652 L 218.367 137.292 L 215.783 139.732 L 212.409 140.734 L 207.135 139.780 L 203.050 137.941 L 198.786 133.815 L 191.923 137.833 L 187.418 141.870 L 183.969 142.790 L 179.046 142.570 L 177.626 149.347 L 172.695 151.297 L 166.952 155.418 L 160.252 173.949 L 153.844 181.418 L 148.108 191.500 L 144.446 193.908 L 139.628 192.622 L 137.840 194.321 L 134.664 199.730 L 129.965 213.306 L 121.382 232.047 L 118.090 235.807 L 118.782 237.020 L 121.843 238.839 L 129.612 241.061 L 143.433 247.551 L 156.260 251.484 L 159.024 255.898 L 156.692 262.585 L 161.492 262.585 L 163.819 255.895 L 162.358 252.686 L 160.416 250.865 L 156.306 249.126 L 150.080 248.353 L 144.046 246.590 L 131.276 240.003 L 120.534 236.168 L 122.779 232.881 L 128.838 219.882 L 135.900 200.468 L 138.523 195.776 L 140.345 194.367 L 142.579 195.844 L 145.110 196.311 L 149.505 193.449 L 155.397 183.437 L 161.386 175.603 L 168.029 156.117 L 173.892 152.197 L 178.843 150.474 L 180.564 144.180 L 184.738 144.537 L 188.195 143.634 L 190.631 142.496 L 193.036 139.937 L 197.742 137.674 L 201.106 141.259 L 206.887 143.685 L 211.329 143.945 L 215.447 142.278 L 218.648 139.164 L 222.542 133.138 L 229.886 130.734 L 233.848 127.128 L 242.626 121.175 L 245.744 112.886 L 250.069 106.140 L 251.106 100.971 L 253.699 97.459 L 259.140 94.335 L 267.541 87.755 L 273.524 88.898 L 281.882 85.724 L 286.746 81.770 L 289.462 77.292 L 293.246 74.998 L 296.588 70.810 L 307.791 62.278 L 312.999 61.529 L 317.117 59.750 L 321.226 55.214 L 329.645 50.216 L 335.714 45.081 L 346.560 40.778 L 350.448 37.156 L 355.056 34.434 L 360.357 33.820 L 365.409 31.979 L 372.589 26.640 L 373.889 27.314 L 377.361 32.491 L 379.562 34.009 L 382.131 34.054 L 394.590 28.904 L 394.585 33.745 L 382.105 38.851 L 380.382 38.907 L 376.651 36.616 L 373.618 31.126 L 371.810 29.927 L 365.434 34.710 L 361.215 36.239 L 355.934 36.940 L 347.815 42.365 L 337.080 46.900 L 331.002 52.100 L 322.605 57.039 L 319.301 61.121 L 313.561 63.690 L 309.237 64.245 L 303.354 68.127 L 298.559 72.093 L 295.257 76.304 L 291.585 78.725 L 289.166 83.285 L 284.973 86.647 L 276.874 90.488 L 272.449 91.082 L 268.212 90.100 L 264.432 92.183 L 253.936 100.361 L 252.555 106.240 L 247.188 114.416 L 243.898 122.694 L 231.984 132.013 L 227.172 134.410 L 223.162 134.958 L 217.780 142.118 L 213.632 145.532 L 209.511 147.246 L 205.960 147.110 L 200.129 144.798 L 196.022 141.653 L 187.519 145.857 L 181.639 146.088 L 180.062 151.698 L 174.236 153.514 L 168.532 157.524 L 162.691 176.372 L 150.327 196.103 L 145.771 198.700 L 144.050 198.582 L 140.293 196.278 L 139.203 197.161 L 123.603 235.329 L 133.784 239.439 L 144.703 245.662 L 150.737 247.403 L 157.877 247.672 L 163.779 249.797 L 166.592 251.978 L 168.613 255.893 L 166.292 262.585 L 171.093 262.583 L 173.407 255.871 L 171.894 252.672 L 169.193 250.333 L 160.201 246.285 L 156.648 245.742 L 150.413 246.313 L 145.274 244.674 L 134.538 238.087 L 127.057 234.979 L 126.079 233.098 L 130.966 222.514 L 139.669 198.853 L 140.989 198.700 L 143.929 200.601 L 146.465 201.091 L 149.710 199.585 L 151.594 197.687 L 164.037 176.835 L 166.726 170.150 L 169.724 157.973 L 174.926 154.652 L 180.901 153.055 L 183.253 147.933 L 188.299 147.619 L 194.662 144.384 L 199.409 147.861 L 205.245 150.199 L 208.798 150.112 L 212.084 148.684 L 217.576 144.036 L 223.404 137.173 L 228.259 136.551 L 240.670 129.405 L 243.261 126.964 L 245.885 123.337 L 249.391 115.085 L 254.864 106.875 L 255.842 101.908 L 265.424 94.033 L 268.588 92.377 L 272.910 93.235 L 277.363 92.788 L 287.168 88.321 L 291.308 84.903 L 293.878 80.262 L 304.758 69.857 L 309.980 66.506 L 313.398 65.937 L 321.672 62.399 L 324.307 58.887 L 332.633 53.728 L 338.647 48.456 L 349.377 43.758 L 355.408 39.926 L 361.559 38.879 L 367.448 36.625 L 371.297 33.009 L 372.255 33.555 L 374.855 39.131 L 379.545 43.264 L 382.062 43.647 L 394.583 38.545 L 394.584 43.345 L 381.214 48.482 L 377.411 46.369 L 370.961 38.062 L 361.944 41.211 L 355.781 42.150 L 339.836 50.387 L 334.500 55.150 L 326.373 60.537 L 322.882 64.462 L 311.094 68.693 L 306.500 71.362 L 301.115 75.979 L 295.381 82.748 L 293.255 86.699 L 288.326 90.558 L 276.760 95.324 L 268.858 94.666 L 267.260 95.312 L 258.647 102.842 L 257.626 106.776 L 251.136 116.464 L 244.925 129.373 L 232.573 136.454 L 229.116 139.197 L 223.359 139.823 L 212.579 150.635 L 207.578 152.652 L 204.038 152.695 L 199.055 150.657 L 194.332 147.243 L 188.559 149.743 L 185.095 150.059 L 182.098 154.155 L 175.206 155.904 L 171.343 158.079 L 170.257 159.421 L 168.559 170.070 L 167.255 173.421 L 152.491 199.154 L 150.012 201.729 L 146.806 203.293 L 144.281 202.804 L 141.416 200.856 L 140.224 201.050 L 131.714 224.693 L 128.148 231.911 L 129.038 233.867 L 136.351 237.360 L 146.084 243.824 L 151.226 245.299 L 157.368 244.057 L 161.823 244.577 L 173.976 250.399 L 176.710 252.661 L 178.201 255.872 L 175.893 262.584 L 180.693 262.584 L 182.993 255.869 L 181.470 252.671 L 178.818 250.279 L 162.643 242.583 L 157.281 242.415 L 151.272 244.205 L 148.652 243.761 L 143.899 241.220 L 136.696 235.823 L 131.052 233.011 L 130.169 231.777 L 140.812 203.370 L 141.756 202.941 L 144.529 204.849 L 147.029 205.354 L 151.539 202.505 L 165.877 179.712 L 170.290 170.856 L 170.665 163.700 L 171.752 159.450 L 175.498 157.107 L 182.484 155.567 L 186.296 152.212 L 193.891 150.168 L 199.856 153.625 L 204.144 154.939 L 206.796 154.689 L 214.355 151.795 L 218.181 146.933 L 223.634 142.277 L 225.201 141.908 L 227.730 142.648 L 230.273 141.953 L 239.213 134.760 L 244.282 133.073 L 247.128 130.926 L 248.952 127.869 L 251.872 119.376 L 259.450 108.279 L 261.157 103.402 L 268.556 97.034 L 277.281 97.573 L 290.522 92.077 L 295.333 88.059 L 302.988 77.114 L 308.493 72.686 L 312.410 70.519 L 325.100 65.972 L 328.560 62.008 L 335.932 57.051 L 341.892 51.694 L 357.137 44.162 L 361.540 43.590 L 369.249 41.078 L 371.098 42.350 L 376.793 50.454 L 379.545 52.726 L 382.056 53.213 L 394.583 48.145 L 394.584 52.945 L 382.927 57.727 L 380.369 57.834 L 376.731 55.344 L 371.103 46.144 L 368.769 43.740 L 358.426 46.299 L 343.047 53.528 L 337.408 59.133 L 329.991 64.056 L 326.465 67.976 L 314.571 71.987 L 309.802 74.456 L 304.987 78.320 L 296.854 89.901 L 292.822 93.454 L 278.066 99.812 L 269.358 99.464 L 264.377 103.011 L 261.272 109.313 L 253.583 120.301 L 252.236 123.630 L 251.705 128.048 L 249.573 131.985 L 246.017 134.645 L 240.116 136.632 L 235.955 139.917 L 232.730 144.062 L 228.580 145.579 L 223.645 144.466 L 218.812 148.481 L 216.224 152.981 L 206.058 156.463 L 200.789 156.039 L 193.793 152.373 L 187.786 153.837 L 184.226 156.236 L 176.376 158.129 L 173.177 159.699 L 171.958 163.784 L 172.287 170.921 L 170.353 175.939 L 161.560 188.436 L 158.099 195.731 L 152.931 203.076 L 147.196 207.262 L 141.629 205.707 L 132.637 230.989 L 133.231 232.343 L 148.888 242.750 L 151.498 243.053 L 157.354 240.793 L 162.684 240.317 L 167.643 242.380 L 172.730 246.033 L 179.559 248.206 L 185.602 252.076 L 187.518 255.042 L 187.786 256.725 L 185.493 262.584 L 190.292 262.585 L 192.581 255.886 L 191.098 252.684 L 189.067 250.985 L 184.078 248.982 L 178.795 245.660 L 173.579 244.495 L 168.715 240.602 L 163.877 238.257 L 160.367 238.263 L 152.079 241.674 L 149.492 241.844 L 134.661 230.774 L 137.058 221.408 L 142.151 208.968 L 143.155 208.082 L 146.197 209.262 L 147.862 208.894 L 154.132 203.856 L 159.298 196.530 L 162.672 189.211 L 172.287 177.420 L 174.229 171.463 L 173.225 164.406 L 173.784 160.974 L 176.812 159.320 L 193.003 154.612 L 201.991 158.179 L 205.521 158.074 L 217.581 154.623 L 219.419 152.807 L 220.951 148.733 L 223.731 146.586 L 228.514 148.464 L 233.573 146.978 L 241.286 138.742 L 247.895 136.088 L 251.973 132.684 L 254.174 128.789 L 254.983 121.863 L 262.646 110.887 L 265.865 104.574 L 270.324 101.810 L 276.349 102.721 L 278.967 102.254 L 286.622 97.751 L 294.257 95.366 L 297.653 92.458 L 301.115 87.255 L 304.430 84.314 L 306.285 80.274 L 311.033 76.413 L 315.703 73.796 L 323.549 71.894 L 328.401 69.581 L 332.482 65.003 L 339.458 61.002 L 341.850 57.322 L 343.919 55.621 L 358.444 48.642 L 367.008 46.239 L 369.225 46.993 L 374.988 58.149 L 378.764 61.893 L 382.090 62.784 L 394.585 57.745 L 394.583 62.545 L 382.911 67.325 L 380.346 67.377 L 377.267 65.591 L 374.336 62.194 L 367.408 48.756 L 358.161 51.233 L 345.355 57.755 L 341.512 62.594 L 333.544 66.618 L 331.349 70.352 L 328.399 72.395 L 324.294 74.213 L 317.225 75.569 L 312.529 78.110 L 308.559 81.602 L 306.528 85.539 L 302.410 88.919 L 299.026 94.200 L 295.717 97.212 L 291.559 98.932 L 288.074 99.402 L 284.903 102.384 L 278.386 105.409 L 275.752 105.524 L 271.543 104.254 L 267.577 106.137 L 256.897 122.615 L 256.784 128.624 L 254.370 133.416 L 249.710 137.556 L 242.459 141.007 L 239.885 143.465 L 237.655 147.306 L 235.504 148.890 L 228.914 151.498 L 224.295 149.203 L 222.995 149.278 L 220.308 155.476 L 213.613 157.903 L 202.217 159.944 L 193.081 156.394 L 187.804 157.182 L 175.125 161.538 L 174.538 164.826 L 176.109 172.681 L 173.723 180.370 L 171.553 183.233 L 164.104 189.631 L 160.243 197.713 L 155.672 204.387 L 147.991 210.590 L 143.260 210.879 L 138.187 222.261 L 136.590 228.358 L 136.862 230.691 L 149.523 240.644 L 151.233 240.692 L 160.981 236.055 L 163.602 235.813 L 169.267 238.475 L 173.873 242.706 L 179.084 243.557 L 184.789 247.764 L 193.411 250.124 L 195.927 252.621 L 197.377 255.867 L 195.093 262.584 L 199.893 262.584 L 202.174 256.727 L 201.899 255.044 L 200.056 252.013 L 195.145 248.115 L 185.575 246.527 L 181.173 242.217 L 174.404 240.785 L 169.181 235.886 L 163.465 233.372 L 149.851 239.526 L 137.993 229.090 L 139.108 223.855 L 143.828 213.234 L 148.489 211.981 L 156.283 205.917 L 160.914 199.318 L 164.772 191.246 L 167.364 188.786 L 172.989 186.065 L 175.270 183.337 L 178.038 173.918 L 177.785 170.351 L 175.908 165.313 L 176.008 162.797 L 187.657 158.599 L 192.068 157.909 L 194.664 158.300 L 202.053 161.463 L 208.104 160.038 L 213.447 160.129 L 221.210 157.888 L 225.117 153.504 L 230.164 154.077 L 238.277 150.219 L 244.354 142.724 L 252.253 138.552 L 256.730 134.191 L 259.227 128.455 L 258.654 124.217 L 261.044 119.495 L 265.136 114.734 L 269.163 107.829 L 271.629 106.979 L 275.818 108.384 L 278.448 108.246 L 285.834 104.988 L 289.417 101.292 L 297.098 99.037 L 299.756 96.682 L 303.588 90.614 L 307.916 87.492 L 310.879 83.065 L 314.642 79.384 L 317.837 77.790 L 324.903 76.572 L 329.054 74.881 L 332.753 72.343 L 335.317 67.906 L 343.324 64.086 L 347.635 59.623 L 359.347 53.004 L 366.157 51.513 L 367.747 53.302 L 371.835 63.274 L 378.002 70.938 L 382.079 72.366 L 394.584 67.345 L 394.584 72.145 L 382.938 76.909 L 379.556 76.601 L 376.029 73.876 L 369.782 65.094 L 366.129 54.999 L 364.046 54.241 L 359.768 55.402 L 348.367 62.409 L 344.360 65.968 L 337.071 69.418 L 334.379 73.901 L 331.729 76.285 L 325.952 78.728 L 319.746 79.663 L 316.415 80.965 L 310.200 88.413 L 305.102 92.040 L 300.841 98.872 L 298.906 100.682 L 290.454 103.690 L 287.612 106.956 L 281.061 109.861 L 276.728 110.936 L 271.584 109.515 L 270.039 110.037 L 267.147 116.393 L 263.289 120.135 L 261.982 122.449 L 260.976 124.864 L 261.485 129.065 L 258.538 135.590 L 254.785 139.433 L 246.230 144.246 L 242.403 150.238 L 240.418 151.991 L 229.649 156.517 L 226.197 156.796 L 223.882 159.249 L 221.512 160.463 L 213.699 162.497 L 208.497 161.499 L 201.511 162.728 L 192.443 159.148 L 187.998 159.693 L 177.823 163.064 L 177.203 165.276 L 179.614 171.064 L 179.943 174.623 L 178.805 180.800 L 176.380 186.592 L 174.624 188.576 L 166.445 191.989 L 157.788 206.556 L 149.232 213.094 L 145.275 214.753 L 140.522 224.120 L 139.364 228.450 L 149.566 238.169 L 153.580 236.831 L 161.841 231.441 L 164.411 231.093 L 170.005 233.902 L 175.127 238.877 L 179.389 239.164 L 181.864 240.204 L 186.566 245.373 L 194.384 245.169 L 204.140 251.473 L 205.933 253.432 L 206.969 256.728 L 204.693 262.585 L 209.493 262.584 L 211.765 256.720 L 210.212 252.689 L 207.401 250.522 L 200.769 247.781 L 195.316 243.150 L 192.803 242.603 L 188.633 244.108 L 187.005 243.952 L 182.850 238.338 L 179.543 237.031 L 176.124 237.156 L 169.738 231.052 L 164.004 228.653 L 159.972 230.369 L 153.653 235.404 L 149.613 236.687 L 140.976 227.841 L 145.465 217.176 L 159.093 207.327 L 166.906 194.251 L 172.738 192.516 L 177.222 189.645 L 180.379 182.207 L 181.794 175.161 L 181.442 171.603 L 178.787 164.445 L 187.837 160.979 L 193.161 160.484 L 201.366 163.922 L 208.411 163.061 L 214.076 165.230 L 220.952 163.180 L 227.689 159.181 L 242.000 154.004 L 244.639 151.631 L 248.245 145.493 L 255.365 141.686 L 260.488 136.695 L 264.133 128.503 L 263.515 125.092 L 263.960 123.418 L 269.405 117.596 L 271.494 112.083 L 276.495 113.095 L 283.472 111.471 L 289.156 108.793 L 293.060 105.321 L 300.622 102.481 L 306.482 93.548 L 312.450 89.600 L 318.263 82.945 L 326.044 81.276 L 333.576 78.333 L 338.592 71.142 L 354.906 61.892 L 359.932 58.131 L 363.284 56.969 L 364.407 57.671 L 367.364 66.000 L 373.359 74.955 L 378.020 80.411 L 382.066 81.943 L 394.584 76.945 L 394.584 81.745 L 382.925 86.504 L 380.360 86.468 L 376.085 83.338 L 361.875 60.772 L 351.019 66.192 L 340.188 72.540 L 336.774 78.739 L 334.942 80.594 L 327.434 83.624 L 319.660 85.163 L 313.653 91.703 L 307.536 95.377 L 302.030 104.499 L 294.514 107.438 L 291.074 110.180 L 284.645 113.408 L 277.653 115.016 L 272.710 114.941 L 270.568 119.826 L 266.246 124.353 L 266.773 128.539 L 262.138 138.243 L 256.273 143.753 L 250.070 147.222 L 246.577 153.435 L 243.114 156.237 L 228.679 161.185 L 225.861 163.262 L 214.223 168.046 L 211.694 167.611 L 207.486 164.502 L 201.279 165.086 L 193.093 161.700 L 188.642 162.060 L 180.994 164.664 L 180.526 166.416 L 182.979 171.216 L 183.631 175.623 L 182.090 182.641 L 178.741 190.981 L 173.936 194.913 L 167.528 196.913 L 159.612 208.906 L 147.042 217.511 L 142.523 227.180 L 146.895 232.509 L 150.300 235.210 L 153.561 234.037 L 162.586 226.699 L 165.150 226.300 L 167.671 227.234 L 171.432 229.653 L 176.239 234.888 L 180.442 235.018 L 183.740 236.381 L 187.547 242.310 L 189.027 242.373 L 192.911 240.340 L 194.607 240.442 L 202.082 246.728 L 213.684 251.486 L 216.547 255.871 L 214.293 262.584 L 219.093 262.585 L 221.341 255.877 L 218.548 251.442 L 202.702 245.231 L 197.716 240.151 L 194.695 238.239 L 192.179 238.438 L 187.850 240.525 L 186.260 236.330 L 184.581 234.309 L 181.272 232.951 L 176.356 232.713 L 171.811 227.157 L 168.063 224.712 L 165.563 223.787 L 163.022 224.285 L 159.318 226.800 L 153.586 232.493 L 151.264 233.649 L 149.678 233.305 L 144.141 227.428 L 147.839 218.647 L 160.438 210.121 L 168.887 199.688 L 174.511 197.445 L 179.827 192.679 L 183.886 182.702 L 185.403 176.607 L 184.958 172.179 L 182.319 165.992 L 188.597 163.306 L 193.910 162.996 L 200.328 166.095 L 206.447 166.046 L 210.182 169.566 L 213.476 170.687 L 225.946 165.612 L 230.423 162.743 L 238.282 161.018 L 244.807 158.022 L 248.937 154.635 L 252.459 148.461 L 259.355 144.305 L 263.731 139.816 L 269.190 129.524 L 268.969 125.264 L 272.316 121.206 L 274.173 117.342 L 285.386 115.506 L 296.241 109.398 L 303.727 106.371 L 305.418 104.364 L 308.840 97.104 L 314.971 93.501 L 321.224 87.278 L 328.165 86.144 L 336.468 82.713 L 338.381 80.983 L 340.631 75.114 L 341.851 73.887 L 351.901 68.023 L 360.150 64.870 L 361.559 65.469 L 363.774 68.297 L 373.954 85.155 L 378.090 89.864 L 382.079 91.516 L 394.585 86.545 L 394.583 91.345 L 382.910 96.098 L 379.524 95.641 L 377.318 94.117 L 371.965 86.995 L 365.563 74.134 L 361.778 69.107 L 358.820 67.842 L 352.852 69.762 L 342.793 75.588 L 340.124 83.104 L 338.870 84.294 L 328.987 88.573 L 322.870 89.504 L 315.453 95.843 L 310.102 99.052 L 307.092 106.449 L 305.161 108.242 L 297.595 111.143 L 285.807 117.588 L 275.524 119.797 L 271.584 125.568 L 271.473 130.597 L 265.266 141.518 L 260.832 145.969 L 254.865 149.937 L 251.068 155.986 L 246.953 159.422 L 239.007 163.652 L 231.098 164.645 L 225.065 168.466 L 213.326 172.884 L 209.153 171.704 L 205.915 167.655 L 200.751 167.505 L 193.552 164.032 L 188.225 164.591 L 185.001 166.117 L 184.194 167.355 L 186.846 173.038 L 187.195 177.487 L 185.801 182.697 L 180.817 194.259 L 175.736 199.339 L 169.588 203.019 L 161.348 211.277 L 149.218 219.007 L 145.678 226.120 L 145.974 227.662 L 151.199 232.223 L 153.437 230.951 L 162.488 222.216 L 164.908 221.154 L 167.469 221.612 L 172.673 225.100 L 177.108 230.655 L 181.287 230.681 L 185.438 232.288 L 186.704 233.505 L 188.742 238.145 L 193.034 236.140 L 194.727 236.119 L 197.799 237.963 L 204.229 244.117 L 222.830 250.710 L 224.692 252.608 L 226.139 255.860 L 223.893 262.584 L 228.692 262.585 L 230.937 255.880 L 229.086 251.840 L 225.802 248.873 L 212.760 245.769 L 206.071 243.233 L 203.769 241.874 L 198.156 236.074 L 195.074 234.258 L 193.399 234.128 L 189.679 235.675 L 186.571 230.430 L 182.506 228.651 L 177.518 228.672 L 172.692 222.224 L 166.648 218.464 L 164.111 218.847 L 161.853 220.305 L 151.736 230.401 L 149.578 229.511 L 147.288 226.873 L 147.247 225.233 L 149.160 221.169 L 169.648 206.960 L 177.264 200.761 L 181.984 195.359 L 187.636 183.151 L 188.886 178.853 L 188.825 174.403 L 186.175 167.755 L 186.835 166.571 L 193.599 165.346 L 200.734 168.939 L 204.926 169.263 L 207.696 173.611 L 211.811 175.061 L 223.793 171.711 L 232.064 166.471 L 237.308 166.976 L 240.623 165.757 L 251.316 159.206 L 256.691 152.103 L 266.780 143.341 L 273.664 131.806 L 274.559 129.305 L 274.217 125.975 L 276.980 121.590 L 280.240 120.318 L 285.540 119.779 L 298.961 112.683 L 307.332 109.498 L 309.171 107.616 L 312.240 100.398 L 322.978 92.527 L 328.138 91.521 L 340.517 86.269 L 342.643 83.520 L 343.890 77.489 L 344.931 76.193 L 354.377 71.100 L 357.856 70.419 L 360.293 71.175 L 364.022 75.006 L 369.588 88.222 L 377.345 98.922 L 382.087 101.091 L 394.585 96.145 L 394.584 100.945 L 382.914 105.687 L 379.536 105.171 L 376.683 103.027 L 372.066 97.541 L 366.097 86.572 L 362.234 75.671 L 358.493 73.251 L 355.940 72.756 L 348.641 76.085 L 345.933 78.149 L 345.759 82.493 L 343.175 87.167 L 328.569 94.024 L 322.703 95.590 L 320.903 97.577 L 314.121 101.897 L 311.343 108.345 L 308.956 110.948 L 299.788 114.541 L 286.214 121.479 L 278.462 123.124 L 276.958 126.267 L 276.854 130.527 L 268.854 144.579 L 263.376 150.502 L 258.456 154.380 L 253.337 160.612 L 244.661 165.327 L 240.491 168.738 L 237.160 169.767 L 232.109 168.661 L 223.270 174.758 L 210.130 177.034 L 206.215 175.141 L 203.600 170.784 L 200.150 170.221 L 193.032 166.573 L 188.770 167.149 L 187.924 168.328 L 190.656 174.948 L 190.564 180.300 L 189.156 184.562 L 183.035 196.574 L 178.530 202.191 L 171.427 208.985 L 151.217 220.657 L 148.563 225.251 L 150.013 228.089 L 152.249 228.374 L 162.730 217.256 L 165.902 215.689 L 168.443 216.276 L 174.072 220.685 L 178.207 226.443 L 183.258 226.517 L 186.623 227.733 L 188.553 229.523 L 190.367 233.245 L 194.431 232.265 L 196.874 233.234 L 207.052 241.961 L 212.042 243.988 L 223.567 245.240 L 229.451 247.402 L 233.373 251.062 L 235.734 255.862 L 233.493 262.584 L 238.293 262.584 L 240.546 256.722 L 240.255 255.033 L 237.528 250.430 L 232.346 245.460 L 224.809 242.631 L 212.442 242.511 L 208.308 240.792 L 197.347 231.655 L 194.075 230.410 L 191.062 230.927 L 189.260 227.127 L 187.268 225.421 L 183.868 224.351 L 178.881 224.353 L 175.431 219.253 L 170.592 214.190 L 170.675 212.955 L 179.343 203.930 L 184.263 197.507 L 190.879 185.794 L 192.359 181.557 L 192.708 176.194 L 190.087 168.938 L 193.111 168.161 L 201.993 172.346 L 205.448 177.139 L 209.459 178.967 L 217.404 177.749 L 222.689 177.891 L 225.854 176.224 L 231.968 170.961 L 237.592 172.548 L 240.099 171.830 L 246.162 166.579 L 255.069 162.338 L 259.768 156.932 L 266.537 151.108 L 275.422 138.792 L 279.528 129.791 L 279.899 124.807 L 287.495 122.973 L 311.013 112.120 L 317.066 102.489 L 324.569 97.787 L 327.985 96.939 L 344.917 88.702 L 348.437 82.538 L 348.420 78.444 L 355.652 74.946 L 360.446 76.897 L 361.603 78.182 L 362.405 84.291 L 369.746 99.656 L 377.345 108.429 L 382.073 110.665 L 394.584 105.745 L 394.584 110.545 L 382.073 115.453 L 378.043 113.771 L 371.571 105.206 L 367.212 100.763 L 359.633 84.481 L 358.940 78.670 L 355.751 77.285 L 351.557 78.712 L 350.512 84.312 L 346.685 90.311 L 318.592 104.244 L 313.006 113.275 L 306.128 117.441 L 298.510 120.005 L 285.435 125.978 L 282.119 126.608 L 281.915 129.656 L 277.439 140.387 L 268.049 153.470 L 261.877 158.625 L 257.072 163.927 L 246.397 168.543 L 240.058 174.765 L 237.544 175.311 L 232.061 173.269 L 226.205 178.782 L 223.154 180.656 L 221.443 181.039 L 217.120 180.175 L 209.102 180.793 L 205.026 179.039 L 200.942 173.535 L 192.128 170.033 L 194.759 177.008 L 194.438 182.375 L 192.583 187.438 L 185.860 198.032 L 173.833 213.403 L 180.056 222.714 L 185.165 222.202 L 188.509 223.424 L 192.225 228.932 L 194.549 228.683 L 198.605 230.596 L 204.436 234.801 L 208.086 238.733 L 211.248 240.410 L 218.167 240.860 L 224.229 239.656 L 234.403 243.054 L 242.738 251.234 L 244.712 254.209 L 245.343 256.721 L 243.093 262.584 L 247.893 262.583 L 250.142 256.704 L 249.091 253.382 L 235.702 240.195 L 230.711 238.149 L 223.655 236.779 L 217.805 238.798 L 211.787 238.958 L 208.754 237.045 L 202.960 231.443 L 196.693 227.883 L 192.752 226.860 L 190.935 222.778 L 189.002 220.973 L 185.621 219.884 L 180.610 220.562 L 177.182 215.288 L 176.680 213.029 L 177.988 210.664 L 193.963 190.078 L 196.978 181.613 L 196.140 173.803 L 200.691 175.127 L 204.049 180.281 L 208.038 182.329 L 211.544 182.993 L 216.906 182.639 L 221.109 183.971 L 225.129 182.436 L 232.173 175.713 L 237.657 178.135 L 240.979 177.147 L 246.771 170.377 L 259.208 165.386 L 272.723 152.416 L 279.651 142.001 L 282.420 133.478 L 285.774 128.304 L 298.719 121.986 L 307.238 119.319 L 314.896 114.747 L 320.560 105.737 L 347.951 92.158 L 351.837 87.281 L 353.684 83.190 L 353.917 80.589 L 355.109 79.806 L 356.315 80.505 L 356.865 84.662 L 364.175 101.061 L 366.214 104.022 L 370.284 107.507 L 377.338 117.910 L 382.042 120.236 L 394.583 115.345 L 394.584 120.145 L 382.904 124.871 L 381.196 124.933 L 378.048 123.233 L 368.277 109.331 L 364.083 105.996 L 361.356 102.417 L 357.487 91.514 L 355.461 87.665 L 354.581 87.386 L 349.565 93.670 L 337.300 99.304 L 321.585 107.966 L 317.694 114.972 L 315.832 116.805 L 312.479 118.069 L 306.506 122.005 L 300.418 123.307 L 286.983 130.379 L 284.372 133.999 L 280.950 145.100 L 275.584 153.315 L 271.610 156.929 L 269.694 159.931 L 265.151 162.718 L 260.103 167.793 L 247.390 172.060 L 241.341 179.757 L 238.010 180.751 L 232.580 178.173 L 224.902 185.566 L 221.781 187.115 L 216.913 185.084 L 211.583 185.182 L 208.139 184.244 L 203.425 181.623 L 200.352 177.391 L 199.415 177.090 L 198.713 183.970 L 195.114 193.202 L 191.397 198.273 L 185.471 203.780 L 178.834 213.256 L 179.087 214.892 L 181.563 218.537 L 186.573 217.608 L 189.937 218.753 L 191.779 220.645 L 194.192 225.299 L 204.677 230.444 L 212.643 237.632 L 217.738 236.612 L 223.308 233.929 L 232.154 235.367 L 237.868 237.993 L 244.825 246.213 L 251.544 250.710 L 253.895 253.377 L 254.939 256.704 L 252.693 262.583 L 257.493 262.584 L 259.734 256.716 L 258.253 252.616 L 255.789 250.051 L 247.146 245.307 L 239.309 235.559 L 232.845 232.445 L 223.168 231.074 L 215.505 235.347 L 212.277 235.583 L 205.224 228.733 L 195.428 224.213 L 190.959 216.720 L 186.795 215.329 L 181.905 216.488 L 180.654 214.205 L 181.267 211.785 L 186.365 205.496 L 192.122 201.257 L 195.468 197.058 L 201.286 182.420 L 209.621 186.839 L 215.787 187.261 L 222.123 190.051 L 225.179 188.354 L 232.634 180.649 L 238.002 183.282 L 242.146 181.990 L 248.457 173.413 L 261.371 169.871 L 267.223 164.433 L 271.907 161.965 L 273.919 158.053 L 277.951 154.540 L 282.444 147.824 L 285.856 135.757 L 288.510 132.334 L 300.861 125.296 L 306.844 124.016 L 312.779 120.028 L 317.784 118.143 L 322.837 109.888 L 329.318 106.889 L 339.235 100.704 L 350.661 95.469 L 354.661 91.945 L 356.078 94.607 L 356.290 99.027 L 358.605 103.883 L 362.017 108.053 L 366.299 111.276 L 371.799 118.270 L 377.379 127.481 L 382.069 129.814 L 394.584 124.945 L 394.583 129.745 L 382.902 134.463 L 378.763 133.333 L 375.498 130.299 L 369.807 119.100 L 364.520 113.076 L 360.076 110.065 L 357.172 106.637 L 354.130 101.113 L 352.970 97.200 L 347.321 98.897 L 331.847 108.052 L 324.544 111.505 L 319.147 119.561 L 314.149 121.506 L 307.371 125.864 L 302.311 127.330 L 289.885 134.129 L 287.844 136.913 L 284.528 149.985 L 278.926 156.994 L 276.134 159.230 L 274.268 164.137 L 268.654 166.628 L 265.119 170.683 L 262.870 172.118 L 254.002 173.449 L 248.964 175.214 L 244.285 182.809 L 242.304 184.590 L 238.102 185.767 L 232.699 183.193 L 225.361 191.013 L 221.484 192.925 L 215.286 189.589 L 209.179 188.712 L 201.916 184.429 L 198.425 195.548 L 194.870 201.807 L 192.380 204.367 L 187.038 207.617 L 182.531 213.070 L 182.821 214.283 L 187.644 212.992 L 191.772 214.580 L 196.413 223.054 L 206.307 227.389 L 209.891 230.110 L 213.275 234.053 L 214.848 233.805 L 219.471 229.649 L 222.742 228.271 L 227.931 229.324 L 232.402 229.269 L 239.012 232.087 L 242.509 234.871 L 248.633 243.740 L 258.321 248.362 L 262.908 252.674 L 264.531 256.702 L 262.293 262.583 L 267.093 262.584 L 269.323 256.718 L 267.701 252.709 L 262.428 249.400 L 258.642 245.649 L 250.349 242.427 L 243.923 232.741 L 240.575 229.777 L 233.226 226.442 L 227.038 226.601 L 222.796 225.415 L 218.748 227.191 L 214.742 231.879 L 213.478 232.141 L 210.783 228.590 L 207.939 226.410 L 197.337 221.707 L 193.657 213.650 L 191.725 211.827 L 188.413 210.492 L 188.366 209.558 L 193.584 206.460 L 195.892 203.764 L 199.635 196.603 L 202.856 186.458 L 209.106 190.701 L 215.171 191.854 L 219.498 194.942 L 221.948 195.629 L 226.939 191.973 L 232.420 186.186 L 233.814 186.026 L 238.620 188.297 L 242.825 186.984 L 244.764 185.180 L 248.010 178.779 L 250.413 176.228 L 255.629 174.980 L 261.876 175.394 L 266.076 173.913 L 270.041 169.162 L 276.477 166.504 L 278.049 160.666 L 286.354 152.559 L 287.705 149.263 L 289.693 138.673 L 291.471 135.717 L 320.155 121.190 L 322.209 119.514 L 326.017 113.497 L 335.639 108.766 L 342.274 104.160 L 350.251 100.126 L 351.358 100.859 L 357.040 110.914 L 362.965 114.868 L 368.466 120.672 L 372.988 131.340 L 377.420 136.986 L 382.079 139.392 L 394.584 134.545 L 394.585 139.345 L 382.942 144.048 L 381.250 144.075 L 378.121 142.351 L 369.670 130.822 L 366.717 121.580 L 360.918 116.096 L 354.792 112.462 L 349.646 103.487 L 344.813 105.610 L 338.240 110.249 L 330.753 113.173 L 327.917 115.335 L 323.018 121.655 L 315.717 125.060 L 307.761 130.902 L 292.972 137.204 L 291.677 139.424 L 290.272 150.086 L 288.465 154.166 L 280.567 161.388 L 278.866 168.972 L 271.619 171.931 L 268.483 176.163 L 261.712 178.315 L 255.750 176.694 L 251.401 177.628 L 248.885 180.073 L 245.482 187.374 L 243.599 189.227 L 238.510 190.572 L 232.827 188.658 L 223.747 197.258 L 221.451 198.439 L 218.319 196.975 L 215.133 193.906 L 209.071 192.686 L 203.306 189.368 L 200.026 199.282 L 193.600 209.810 L 198.045 220.252 L 209.403 225.317 L 213.613 229.899 L 218.157 224.580 L 222.163 222.678 L 227.214 224.113 L 233.341 223.463 L 241.524 227.124 L 245.320 230.906 L 251.695 240.633 L 258.482 242.649 L 263.035 248.014 L 271.927 252.044 L 274.117 256.723 L 271.892 262.585 L 276.693 262.585 L 278.915 256.721 L 276.909 251.897 L 273.991 249.937 L 264.498 247.336 L 259.439 240.216 L 252.714 238.390 L 245.154 227.257 L 241.129 223.762 L 233.669 220.678 L 227.640 221.776 L 221.878 219.857 L 217.852 221.725 L 213.638 226.578 L 208.798 223.106 L 199.625 219.629 L 198.257 217.446 L 195.994 209.914 L 201.315 199.645 L 203.656 191.908 L 204.541 191.685 L 208.833 194.496 L 214.040 195.370 L 218.250 199.851 L 221.360 201.381 L 223.738 200.328 L 226.322 196.709 L 232.477 191.465 L 234.077 191.084 L 240.031 192.621 L 245.058 190.953 L 249.233 182.135 L 252.302 179.000 L 255.753 178.426 L 261.288 181.022 L 269.823 178.820 L 273.872 174.274 L 279.014 172.850 L 281.124 171.343 L 283.086 161.987 L 289.819 156.140 L 292.199 152.384 L 293.695 140.022 L 294.630 138.629 L 309.592 132.890 L 316.353 127.045 L 326.745 121.761 L 331.538 115.412 L 341.466 111.418 L 348.045 107.154 L 349.358 107.895 L 353.407 114.828 L 359.067 117.384 L 365.055 122.683 L 366.811 131.166 L 371.963 137.309 L 377.445 146.552 L 382.086 148.980 L 394.585 144.145 L 394.584 148.945 L 382.927 153.647 L 381.232 153.655 L 378.092 151.933 L 375.761 149.238 L 369.936 138.083 L 364.573 132.146 L 363.293 128.850 L 363.819 125.408 L 363.160 123.855 L 358.644 119.627 L 352.072 117.096 L 347.975 111.351 L 346.619 110.991 L 332.863 117.340 L 329.166 123.282 L 319.400 127.690 L 314.981 130.783 L 310.705 135.297 L 296.322 139.982 L 295.663 141.429 L 295.472 151.210 L 292.363 156.660 L 285.052 163.156 L 284.008 171.013 L 282.104 174.917 L 275.441 177.132 L 271.746 180.705 L 266.930 182.970 L 260.079 183.392 L 255.776 180.365 L 253.270 180.276 L 250.121 183.311 L 247.368 190.906 L 245.834 193.053 L 243.425 194.177 L 239.857 194.545 L 234.791 192.949 L 233.232 193.253 L 227.609 197.649 L 225.049 202.302 L 222.107 204.251 L 218.146 202.838 L 213.074 196.735 L 208.740 196.191 L 204.920 194.632 L 197.551 210.501 L 200.165 217.953 L 212.200 223.440 L 213.501 223.337 L 217.618 218.847 L 221.655 216.998 L 227.307 219.279 L 231.435 217.910 L 234.050 217.891 L 241.524 220.989 L 245.592 224.469 L 253.423 235.393 L 258.344 236.602 L 260.604 238.021 L 264.651 245.924 L 269.732 247.428 L 275.976 247.927 L 280.672 250.425 L 283.681 255.862 L 281.493 262.584 L 286.293 262.584 L 288.477 255.853 L 287.046 252.578 L 284.235 249.082 L 281.401 246.902 L 277.993 245.788 L 274.439 245.355 L 270.025 246.037 L 265.729 244.934 L 261.193 235.350 L 258.994 233.854 L 254.147 232.377 L 246.442 222.401 L 241.023 217.719 L 233.469 214.924 L 227.709 216.883 L 221.269 214.193 L 217.220 216.027 L 213.008 220.587 L 211.597 221.100 L 201.100 216.456 L 199.029 211.557 L 199.314 209.887 L 205.277 197.025 L 212.612 198.222 L 217.555 205.585 L 219.817 207.024 L 222.320 207.060 L 225.994 204.512 L 228.819 198.997 L 233.740 195.146 L 239.566 196.451 L 244.016 196.330 L 246.423 195.257 L 248.373 192.327 L 250.939 184.648 L 253.306 182.019 L 254.859 181.956 L 259.609 185.647 L 263.804 184.868 L 267.026 185.885 L 276.285 180.704 L 282.981 178.339 L 285.415 174.728 L 286.790 169.505 L 287.055 164.231 L 293.735 158.376 L 298.230 151.672 L 297.710 142.857 L 298.507 141.525 L 301.732 140.133 L 306.138 139.901 L 312.784 137.184 L 316.188 133.101 L 322.614 128.197 L 330.941 124.940 L 334.382 118.971 L 346.050 114.315 L 350.528 119.116 L 357.909 121.877 L 361.213 124.860 L 360.639 128.889 L 361.491 131.367 L 364.391 135.916 L 368.795 140.354 L 374.311 151.663 L 378.117 156.658 L 381.215 158.441 L 382.913 158.447 L 394.584 153.745 L 394.585 158.545 L 382.939 163.241 L 381.243 163.248 L 378.105 161.532 L 371.246 151.162 L 367.082 142.221 L 362.780 137.684 L 358.912 131.648 L 357.977 129.179 L 358.542 125.355 L 349.642 121.447 L 345.567 117.025 L 343.847 117.223 L 335.730 120.822 L 332.946 126.221 L 324.074 130.344 L 318.324 134.591 L 313.644 139.897 L 306.033 142.559 L 302.534 142.241 L 300.212 143.045 L 299.783 145.482 L 301.239 150.587 L 300.841 152.274 L 295.063 160.214 L 289.544 164.614 L 288.994 171.491 L 286.307 179.117 L 284.648 181.169 L 273.061 185.852 L 267.564 188.888 L 262.858 187.245 L 258.707 187.741 L 253.612 183.661 L 251.566 186.552 L 249.152 194.274 L 247.305 197.297 L 244.147 198.816 L 238.087 198.309 L 235.594 197.305 L 234.023 197.671 L 230.449 200.254 L 227.007 206.465 L 221.123 210.282 L 218.764 209.542 L 215.937 207.366 L 211.835 199.619 L 206.237 198.850 L 200.445 211.439 L 202.454 215.237 L 211.331 218.957 L 215.869 213.958 L 220.559 211.448 L 222.269 211.518 L 227.719 214.447 L 233.369 212.170 L 240.223 213.977 L 245.665 218.633 L 255.169 229.388 L 261.421 232.311 L 266.373 243.670 L 269.734 244.630 L 274.817 243.091 L 279.290 243.118 L 285.044 245.427 L 290.683 251.220 L 292.985 255.032 L 293.092 257.584 L 291.092 262.585 L 295.893 262.585 L 298.104 256.718 L 297.443 254.204 L 287.219 243.114 L 282.446 240.662 L 279.822 240.204 L 274.512 240.954 L 270.570 243.060 L 268.027 242.945 L 266.784 241.849 L 262.365 230.123 L 256.395 226.467 L 241.844 211.847 L 236.152 209.347 L 232.613 209.618 L 227.862 211.900 L 226.414 211.392 L 226.062 210.146 L 229.298 207.130 L 232.291 201.666 L 234.443 200.057 L 243.684 201.406 L 247.694 199.830 L 249.643 196.874 L 253.190 186.779 L 254.312 186.840 L 258.447 189.999 L 262.556 189.552 L 267.050 191.894 L 285.928 184.085 L 287.987 181.195 L 291.511 171.983 L 292.060 165.197 L 296.495 162.236 L 301.624 155.999 L 303.287 152.820 L 303.812 150.281 L 302.082 146.173 L 302.518 144.825 L 306.560 144.986 L 314.265 142.831 L 319.410 136.766 L 323.327 134.664 L 326.642 131.702 L 334.041 128.494 L 337.680 122.604 L 344.073 119.668 L 347.819 122.944 L 355.456 127.090 L 355.245 129.451 L 357.102 133.541 L 360.417 138.858 L 364.739 143.334 L 368.445 151.499 L 372.506 156.245 L 374.937 162.001 L 377.454 165.698 L 382.078 168.159 L 394.584 163.345 L 394.585 168.145 L 382.935 172.838 L 381.236 172.833 L 377.408 170.545 L 370.954 157.812 L 365.698 151.757 L 362.960 145.151 L 358.483 140.868 L 355.609 136.333 L 352.027 127.493 L 343.081 122.486 L 339.086 124.466 L 335.587 130.479 L 329.035 133.310 L 325.296 137.037 L 320.425 139.167 L 315.777 145.522 L 313.348 146.674 L 309.006 146.551 L 306.528 147.530 L 306.454 151.374 L 303.667 157.003 L 298.157 164.080 L 294.456 166.335 L 293.794 173.176 L 289.531 183.042 L 286.605 187.501 L 282.558 189.399 L 274.745 191.431 L 267.469 194.958 L 265.057 194.199 L 262.373 192.079 L 258.382 192.272 L 253.692 189.338 L 250.119 199.494 L 248.150 202.434 L 244.103 204.070 L 235.563 202.858 L 234.115 203.624 L 233.185 205.744 L 237.725 206.733 L 242.434 209.321 L 254.582 219.931 L 258.753 224.606 L 262.496 226.946 L 268.678 241.539 L 270.268 241.629 L 275.585 238.363 L 280.832 237.213 L 284.275 238.039 L 288.965 240.660 L 293.442 247.305 L 299.019 249.976 L 301.844 253.394 L 302.901 256.718 L 300.693 262.585 L 305.493 262.584 L 307.656 255.854 L 304.332 250.649 L 300.066 247.361 L 295.080 245.718 L 290.467 238.195 L 283.441 234.315 L 279.962 234.449 L 269.249 239.647 L 263.469 224.709 L 243.870 207.116 L 247.524 205.828 L 249.571 204.175 L 253.606 193.228 L 254.685 192.441 L 258.319 194.553 L 261.624 194.625 L 265.023 197.273 L 267.444 198.046 L 274.726 194.513 L 283.508 192.637 L 287.533 190.714 L 296.195 174.059 L 296.920 171.496 L 296.681 168.070 L 300.016 165.474 L 304.972 159.078 L 308.438 152.771 L 309.184 149.572 L 310.183 149.124 L 313.579 149.815 L 318.406 147.478 L 322.139 141.608 L 327.897 139.136 L 330.646 135.724 L 337.878 132.162 L 340.285 126.500 L 343.194 124.958 L 349.928 129.142 L 353.589 138.271 L 357.127 143.430 L 360.463 146.347 L 362.464 151.283 L 366.103 156.419 L 369.415 159.370 L 376.688 174.774 L 382.056 177.744 L 394.584 172.945 L 394.584 177.745 L 382.913 182.438 L 381.211 182.410 L 377.392 180.094 L 373.521 175.172 L 367.666 161.093 L 364.211 158.455 L 357.664 147.860 L 351.669 140.156 L 348.408 130.891 L 347.244 129.611 L 342.633 127.514 L 339.943 133.853 L 333.053 137.931 L 330.282 141.347 L 324.521 143.803 L 321.433 149.124 L 316.706 151.702 L 311.628 152.718 L 310.467 153.694 L 306.561 160.780 L 302.145 166.468 L 299.361 168.669 L 298.678 174.475 L 288.883 193.569 L 284.138 196.015 L 274.421 197.660 L 267.161 200.997 L 264.721 200.219 L 261.361 197.441 L 254.694 195.354 L 249.517 208.144 L 264.227 222.103 L 270.143 237.552 L 274.090 234.582 L 281.334 231.021 L 283.960 231.058 L 288.104 232.781 L 292.243 236.179 L 296.175 243.009 L 300.208 244.555 L 310.393 251.910 L 312.495 256.706 L 310.293 262.584 L 315.093 262.584 L 317.290 256.703 L 315.660 252.663 L 297.368 239.751 L 294.161 234.394 L 289.640 230.055 L 284.733 227.830 L 282.105 227.765 L 272.111 233.747 L 270.389 233.799 L 265.445 220.300 L 263.170 217.533 L 254.556 211.086 L 252.732 209.091 L 252.245 206.794 L 254.539 199.021 L 255.585 197.919 L 266.955 203.940 L 275.127 200.463 L 284.048 199.551 L 289.730 196.998 L 293.874 188.108 L 298.379 182.583 L 301.715 173.349 L 302.370 169.328 L 309.244 161.069 L 312.187 155.633 L 316.368 154.546 L 323.642 151.037 L 326.779 145.751 L 333.298 142.925 L 335.519 140.165 L 340.744 136.663 L 343.654 131.291 L 344.798 130.815 L 346.762 132.567 L 349.300 141.166 L 353.007 147.253 L 360.681 157.124 L 362.214 160.355 L 366.224 163.636 L 371.603 176.930 L 376.720 184.306 L 382.048 187.334 L 394.584 182.545 L 394.584 187.345 L 382.047 192.130 L 376.678 189.144 L 370.184 179.453 L 364.468 165.388 L 360.378 162.152 L 350.874 149.218 L 347.477 142.912 L 345.010 134.712 L 340.667 140.400 L 335.997 144.536 L 327.994 148.283 L 325.411 152.915 L 313.302 158.351 L 311.218 162.266 L 305.513 169.154 L 300.253 185.071 L 295.203 189.985 L 292.572 197.628 L 290.477 200.482 L 285.626 202.767 L 275.784 203.300 L 266.701 206.888 L 256.310 200.457 L 254.957 201.970 L 253.887 207.227 L 256.465 210.681 L 265.446 216.393 L 271.564 231.044 L 273.032 230.853 L 277.949 226.928 L 282.743 224.469 L 285.373 224.489 L 290.268 226.749 L 294.858 231.028 L 299.948 238.340 L 309.262 245.379 L 319.915 251.955 L 322.086 256.703 L 319.893 262.584 L 324.693 262.584 L 326.883 256.700 L 324.770 251.903 L 321.891 249.809 L 316.108 247.412 L 300.885 236.388 L 296.359 228.653 L 292.713 224.691 L 286.414 221.231 L 283.801 220.987 L 272.146 228.129 L 266.607 214.027 L 264.605 212.360 L 257.207 209.167 L 255.587 207.165 L 255.541 205.482 L 256.069 203.845 L 257.182 203.188 L 260.980 206.905 L 267.388 209.812 L 275.570 206.096 L 285.383 206.414 L 290.374 204.476 L 294.234 199.598 L 296.514 191.889 L 301.797 187.272 L 307.734 169.590 L 312.485 164.278 L 314.671 160.358 L 320.933 157.063 L 326.823 155.052 L 329.549 150.581 L 338.327 146.339 L 344.040 140.176 L 349.139 151.999 L 358.680 163.790 L 362.827 167.013 L 368.741 181.933 L 376.072 193.248 L 378.777 195.592 L 382.041 196.924 L 394.584 192.145 L 394.585 196.945 L 382.086 201.730 L 376.783 198.694 L 366.816 183.804 L 360.964 168.123 L 352.843 161.276 L 347.048 154.479 L 345.345 148.524 L 343.682 145.768 L 339.471 148.695 L 332.098 151.975 L 328.517 156.885 L 320.929 159.384 L 316.425 162.217 L 310.294 169.792 L 303.420 188.893 L 298.192 193.565 L 296.763 199.524 L 292.124 207.151 L 285.656 209.984 L 279.626 208.430 L 275.190 208.737 L 269.549 211.471 L 268.741 213.528 L 273.022 224.863 L 280.574 219.407 L 284.579 217.488 L 287.991 218.214 L 294.183 221.832 L 296.605 224.427 L 302.515 235.384 L 310.280 239.833 L 317.717 246.094 L 325.280 248.826 L 329.005 251.263 L 331.678 256.723 L 329.492 262.585 L 334.292 262.585 L 336.474 256.722 L 335.400 253.400 L 333.785 251.275 L 328.545 247.852 L 319.280 244.526 L 311.986 238.232 L 303.342 233.605 L 300.867 229.920 L 297.479 220.698 L 287.436 214.024 L 292.826 210.670 L 294.563 208.654 L 299.572 199.117 L 300.748 194.928 L 304.393 191.101 L 306.038 187.914 L 312.848 170.664 L 318.409 163.775 L 321.245 161.615 L 325.473 160.819 L 329.527 158.887 L 333.364 154.193 L 342.687 149.419 L 343.535 149.907 L 344.025 154.334 L 345.580 157.510 L 359.204 170.075 L 359.982 173.414 L 363.336 178.664 L 364.871 185.593 L 376.738 203.544 L 382.083 206.525 L 394.585 201.745 L 394.585 206.545 L 382.075 211.318 L 376.756 208.280 L 363.579 187.950 L 361.894 183.803 L 361.106 178.632 L 352.961 167.124 L 343.490 159.118 L 340.677 153.080 L 335.198 156.010 L 332.584 159.558 L 327.266 162.859 L 321.421 164.246 L 315.629 170.983 L 310.477 181.378 L 308.246 188.168 L 303.212 195.504 L 300.359 202.989 L 294.467 213.781 L 299.753 219.173 L 300.886 226.173 L 304.123 231.474 L 312.803 236.034 L 318.544 240.275 L 320.159 242.311 L 329.360 245.742 L 337.907 250.671 L 341.220 255.866 L 339.093 262.585 L 343.893 262.583 L 346.069 256.697 L 343.885 251.930 L 340.418 249.083 L 331.078 243.750 L 322.616 240.889 L 314.240 234.348 L 305.632 229.514 L 302.408 225.308 L 302.976 220.949 L 302.338 218.361 L 297.884 213.133 L 302.668 203.680 L 305.179 196.070 L 309.847 189.654 L 313.140 180.354 L 317.525 172.508 L 322.739 166.641 L 325.251 166.459 L 329.364 164.663 L 338.859 156.829 L 340.146 157.427 L 342.933 161.871 L 346.820 164.055 L 350.828 167.657 L 354.464 172.735 L 359.266 180.137 L 360.066 185.323 L 365.313 195.779 L 372.311 207.352 L 377.326 213.703 L 382.033 216.105 L 394.583 211.345 L 395.000 212.373 L 394.585 216.145 L 383.776 220.609 L 381.221 220.776 L 376.624 218.040 L 370.007 209.605 L 363.455 197.827 L 358.718 188.150 L 356.822 180.489 L 354.515 177.745 L 350.260 169.973 L 340.921 163.150 L 338.717 159.759 L 330.972 166.643 L 323.639 169.611 L 318.872 174.593 L 315.086 180.686 L 311.592 190.839 L 307.122 197.349 L 303.245 208.324 L 300.771 211.928 L 301.020 213.333 L 303.849 215.467 L 305.832 219.481 L 304.972 225.323 L 323.798 238.799 L 332.304 241.218 L 336.431 244.603 L 341.330 246.798 L 347.962 251.429 L 349.744 253.403 L 350.863 256.714 L 348.693 262.584 L 353.493 262.583 L 355.661 256.692 L 353.461 251.933 L 346.425 248.080 L 334.217 239.100 L 324.830 236.629 L 308.176 224.581 L 308.699 218.866 L 307.151 215.624 L 304.153 212.305 L 309.197 199.374 L 314.295 190.032 L 317.824 179.902 L 323.532 174.363 L 325.333 171.430 L 331.950 168.877 L 338.175 164.412 L 348.930 171.924 L 354.591 182.007 L 357.883 192.256 L 367.604 211.583 L 376.630 222.695 L 382.022 225.695 L 394.583 220.945 L 395.000 221.973 L 394.585 225.745 L 383.801 230.199 L 381.250 230.377 L 376.732 227.549 L 365.551 213.598 L 359.436 201.625 L 352.503 183.195 L 346.754 173.218 L 341.279 168.780 L 338.149 167.255 L 336.623 167.652 L 332.657 171.187 L 327.731 173.156 L 325.224 176.605 L 319.268 181.832 L 316.260 191.180 L 309.263 205.552 L 307.847 210.720 L 311.534 218.550 L 310.962 222.717 L 311.652 224.035 L 322.331 232.155 L 326.284 234.201 L 335.704 236.911 L 344.680 242.699 L 348.068 246.819 L 357.020 250.751 L 358.882 252.661 L 360.397 255.877 L 358.292 262.585 L 363.093 262.584 L 365.253 256.706 L 362.548 251.241 L 357.198 247.959 L 350.487 245.360 L 346.830 240.469 L 341.211 237.721 L 337.701 234.934 L 333.535 233.267 L 327.366 232.090 L 323.420 229.995 L 314.473 222.693 L 314.085 217.804 L 310.659 211.558 L 311.534 206.424 L 317.243 195.248 L 321.602 182.575 L 327.351 178.414 L 329.338 175.567 L 334.905 172.776 L 338.641 169.774 L 345.332 175.510 L 351.247 185.472 L 357.273 203.353 L 363.416 215.356 L 376.644 232.356 L 382.049 235.294 L 394.584 230.545 L 395.000 231.573 L 394.585 235.345 L 383.798 239.800 L 381.245 239.968 L 375.936 236.715 L 365.710 221.987 L 361.483 217.400 L 354.742 203.742 L 349.085 185.846 L 343.368 176.842 L 338.342 173.493 L 331.603 177.226 L 328.882 180.582 L 323.676 183.917 L 319.565 196.632 L 314.201 205.946 L 313.361 211.099 L 317.039 218.212 L 317.797 222.281 L 326.022 229.021 L 338.889 232.457 L 343.006 235.831 L 349.456 238.837 L 352.573 243.066 L 365.414 249.422 L 368.503 252.637 L 369.988 255.875 L 367.892 262.585 L 372.692 262.585 L 374.781 255.869 L 371.460 250.658 L 366.555 246.741 L 355.430 240.979 L 351.729 237.226 L 345.269 234.135 L 341.212 230.685 L 334.426 228.372 L 327.442 227.185 L 320.706 221.511 L 319.630 217.477 L 316.054 211.273 L 316.214 206.892 L 322.376 197.100 L 323.430 190.966 L 325.271 185.944 L 330.393 182.517 L 333.167 179.167 L 338.045 177.041 L 339.721 177.039 L 342.469 179.199 L 347.542 187.582 L 353.056 205.511 L 359.423 219.366 L 363.776 223.781 L 373.371 238.938 L 378.045 243.124 L 382.078 244.894 L 394.585 240.145 L 395.000 241.173 L 394.585 244.945 L 382.072 249.688 L 378.084 247.837 L 370.300 240.424 L 367.225 236.010 L 361.957 225.587 L 357.441 221.408 L 347.439 196.488 L 345.859 188.660 L 340.054 179.730 L 335.203 180.751 L 327.248 187.398 L 325.575 191.511 L 325.415 195.950 L 324.518 198.472 L 318.572 206.187 L 318.648 211.371 L 323.701 220.691 L 328.271 224.831 L 342.825 228.665 L 356.780 238.218 L 368.610 244.564 L 377.593 251.895 L 379.581 255.865 L 377.492 262.585 L 367.064 263.000 L 363.645 256.881 L 363.257 238.301 L 343.433 226.180 L 329.639 222.932 L 325.899 219.165 L 320.622 210.887 L 320.223 206.592 L 326.215 200.230 L 327.823 196.057 L 327.564 192.530 L 328.722 189.185 L 336.120 183.008 L 339.287 182.129 L 344.040 189.655 L 344.790 192.226 L 344.695 196.590 L 348.329 202.664 L 354.942 222.200 L 360.483 227.733 L 363.946 236.959 L 358.858 232.289 L 345.977 224.648 L 340.075 222.563 L 331.407 220.907 L 326.976 216.788 L 321.934 208.595 L 322.479 206.227 L 326.233 203.964 L 328.668 200.256 L 330.081 196.965 L 329.712 192.661 L 330.649 190.198 L 338.370 184.849 L 340.292 186.648 L 342.469 191.538 L 342.231 197.510 L 343.784 200.723 L 346.617 203.953 L 353.086 224.391 L 357.861 228.057 L 359.179 230.370 L 349.868 223.539 L 339.803 219.960 L 332.829 218.683 L 328.759 215.365 L 324.227 208.875 L 324.363 207.461 L 328.132 205.066 L 331.556 199.796 L 332.566 197.290 L 331.972 193.020 L 332.646 191.503 L 338.259 187.784 L 340.099 191.811 L 339.145 195.171 L 339.516 197.751 L 341.571 201.759 L 344.555 204.952 L 349.288 221.328 L 340.454 217.588 L 334.322 216.571 L 330.091 213.487 L 327.839 209.585 L 327.950 208.115 L 332.105 203.539 L 335.050 197.949 L 335.409 196.269 L 334.472 193.193 L 337.060 191.720 L 336.486 197.094 L 338.525 201.104 L 342.503 205.909 L 345.514 217.645" fill="none" stroke="black" stroke-width="1.000" stroke-linecap="round" stroke-linejoin="round"/></svg>